SplineFontDB: 3.0
FontName: MarckScript-Regular
FullName: Marck Script Regular
FamilyName: Marck Script
Weight: Regular
Copyright: Copyright (c) 2011, Denis Masharov <denis.masharov@gmail.com>, Marck Fogel, with Reserved Font Names "Marck Script".
Version: 001.001
ItalicAngle: 0
UnderlinePosition: -76
UnderlineWidth: 75
Ascent: 800
Descent: 200
sfntRevision: 0x00010083
LayerCount: 2
Layer: 0 1 "Back"  1
Layer: 1 1 "Fore"  0
NeedsXUIDChange: 1
XUID: [1021 288 713564382 656742]
FSType: 0
OS2Version: 2
OS2_WeightWidthSlopeOnly: 0
OS2_UseTypoMetrics: 1
CreationTime: 1318243514
ModificationTime: 1318254348
PfmFamily: 17
TTFWeight: 400
TTFWidth: 5
LineGap: 0
VLineGap: 0
Panose: 2 0 0 0 0 0 0 0 0 0
OS2TypoAscent: 64
OS2TypoAOffset: 1
OS2TypoDescent: -185
OS2TypoDOffset: 1
OS2TypoLinegap: 0
OS2WinAscent: 0
OS2WinAOffset: 1
OS2WinDescent: 0
OS2WinDOffset: 1
HheadAscent: 0
HheadAOffset: 1
HheadDescent: 0
HheadDOffset: 1
OS2SubXSize: 700
OS2SubYSize: 650
OS2SubXOff: 0
OS2SubYOff: 140
OS2SupXSize: 700
OS2SupYSize: 650
OS2SupXOff: 0
OS2SupYOff: 477
OS2StrikeYSize: 50
OS2StrikeYPos: 250
OS2Vendor: 'pyrs'
OS2CodePages: 20000197.06000000
OS2UnicodeRanges: a000022f.0000004a.00000000.00000000
Lookup: 258 0 0 "'kern' Horizontal Kerning in Latin lookup 0"  {"'kern' Horizontal Kerning in Latin lookup 0 subtable"  } ['kern' ('latn' <'dflt' > ) ]
MarkAttachClasses: 1
DEI: 91125
TtTable: prep
PUSHW_1
 511
SCANCTRL
PUSHB_1
 4
SCANTYPE
EndTTInstrs
LangName: 1033 "" "" "" "DenisMasharov: Marck Script Regular: 2011" "MarckScript-Regular" "Version 1.002" "" "Marck Script is a trademark of Denis Masharov & Marck Fogel" "Denis Masharov" "Denis Masharov, Marck Fogel" "" "denis.masharov@gmail.com" "denis.masharov@gmail.com" "This Font Software is licensed under the SIL Open Font License, Version 1.1. This license is available with a FAQ at: http://scripts.sil.org/OFL" "http://scripts.sil.org/OFL" 
GaspTable: 1 65535 15
Encoding: UnicodeBmp
UnicodeInterp: none
NameList: Adobe Glyph List

StartChar: grave
Encoding: 96 96 4
Width: 196
Flags: HMW
HStem: 394 21G<163 163> 470 20G<60 60>
LayerCount: 2
Fore
SplineSet
163 394 m 1,0,-1
 -8 450 l 1,1,-1
 60 490 l 1,2,-1
 192 412 l 1,3,-1
 163 394 l 1,0,-1
EndSplineSet
EndChar

StartChar: A
Encoding: 65 65 5
Width: 790
Flags: HMW
HStem: -76 83<54.5 87> 0 21G<559 629 559 559> 239 64 671 20G<709.5 733>
VStem: -95 105<46 90> 553 76<0 114.5>
LayerCount: 2
Fore
SplineSet
746 298 m 1,0,-1
 741 238 l 1,1,2
 718 240 718 240 691.5 240 c 128,-1,3
 665 240 665 240 647 239 c 1,4,5
 633 129 633 129 629 0 c 1,6,-1
 559 0 l 1,7,8
 553 26 553 26 553 69 c 128,-1,9
 553 112 553 112 555.5 143.5 c 128,-1,10
 558 175 558 175 562 206 c 128,-1,11
 566 237 566 237 566 242 c 1,12,13
 552 243 552 243 500 243 c 128,-1,14
 448 243 448 243 428 241 c 1,15,16
 312 85 312 85 214 4.5 c 128,-1,17
 116 -76 116 -76 18 -76 c 0,18,19
 -30 -76 -30 -76 -62.5 -47 c 128,-1,20
 -95 -18 -95 -18 -95 30 c 0,21,22
 -95 121 -95 121 43.5 196 c 128,-1,23
 182 271 182 271 402 297 c 1,24,25
 428 337 428 337 499 420.5 c 128,-1,26
 570 504 570 504 639 566 c 1,27,28
 669 636 669 636 686.5 663.5 c 128,-1,29
 704 691 704 691 721 691 c 128,-1,30
 738 691 738 691 749 678 c 128,-1,31
 760 665 760 665 760 644.5 c 128,-1,32
 760 624 760 624 737.5 584.5 c 128,-1,33
 715 545 715 545 691 462.5 c 128,-1,34
 667 380 667 380 658 307 c 1,35,36
 710 307 710 307 746 298 c 1,0,-1
236 89 m 1,37,38
 319 168 319 168 361 239 c 1,39,40
 193 229 193 229 101.5 176 c 128,-1,41
 10 123 10 123 10 63 c 0,42,43
 10 37 10 37 27.5 22 c 128,-1,44
 45 7 45 7 74 7 c 0,45,46
 152 7 152 7 236 89 c 1,37,38
578 307 m 1,47,48
 584.888888889 341.444444444 584.888888889 341.444444444 596.444444444 392.722222222 c 128,-1,49
 608 444 608 444 610 453 c 1,50,51
 562 407 562 407 543 385.5 c 128,-1,52
 524 364 524 364 476 303 c 1,53,54
 493 304 493 304 517.5 304.5 c 128,-1,55
 542 305 542 305 558 306 c 128,-1,56
 574 307 574 307 578 307 c 1,47,48
EndSplineSet
EndChar

StartChar: Abreve
Encoding: 258 258 6
Width: 810
Flags: HMW
HStem: -76 83<64.5 97> 0 21G<569 639 569 569> 239 64 671 20G<719.5 743> 715 47<647.5 685.5 647.5 688.5> 793 20G<579 579>
VStem: -85 105<46 90> 563 76<0 114.5>
LayerCount: 2
Fore
SplineSet
756 298 m 1,0,-1
 751 238 l 1,1,2
 728 240 728 240 701.5 240 c 128,-1,3
 675 240 675 240 657 239 c 1,4,5
 643 129 643 129 639 0 c 1,6,-1
 569 0 l 1,7,8
 563 26 563 26 563 69 c 128,-1,9
 563 112 563 112 565.5 143.5 c 128,-1,10
 568 175 568 175 572 206 c 128,-1,11
 576 237 576 237 576 242 c 1,12,13
 562 243 562 243 510 243 c 128,-1,14
 458 243 458 243 438 241 c 1,15,16
 322 85 322 85 224 4.5 c 128,-1,17
 126 -76 126 -76 28 -76 c 0,18,19
 -20 -76 -20 -76 -52.5 -47 c 128,-1,20
 -85 -18 -85 -18 -85 30 c 0,21,22
 -85 121 -85 121 53.5 196 c 128,-1,23
 192 271 192 271 412 297 c 1,24,25
 438 337 438 337 509 420.5 c 128,-1,26
 580 504 580 504 649 566 c 1,27,28
 679 636 679 636 696.5 663.5 c 128,-1,29
 714 691 714 691 731 691 c 128,-1,30
 748 691 748 691 759 678 c 128,-1,31
 770 665 770 665 770 644.5 c 128,-1,32
 770 624 770 624 747.5 584.5 c 128,-1,33
 725 545 725 545 701 462.5 c 128,-1,34
 677 380 677 380 668 307 c 1,35,36
 720 307 720 307 756 298 c 1,0,-1
246 89 m 1,37,38
 329 168 329 168 371 239 c 1,39,40
 203 229 203 229 111.5 176 c 128,-1,41
 20 123 20 123 20 63 c 0,42,43
 20 37 20 37 37.5 22 c 128,-1,44
 55 7 55 7 84 7 c 0,45,46
 162 7 162 7 246 89 c 1,37,38
588 307 m 1,47,48
 594.888888889 341.444444444 594.888888889 341.444444444 606.444444444 392.722222222 c 128,-1,49
 618 444 618 444 620 453 c 1,50,51
 572 407 572 407 553 385.5 c 128,-1,52
 534 364 534 364 486 303 c 1,53,54
 503 304 503 304 527.5 304.5 c 128,-1,55
 552 305 552 305 568 306 c 128,-1,56
 584 307 584 307 588 307 c 1,47,48
751 810 m 1,57,-1
 781 794 l 1,58,59
 761 763 761 763 729.5 739 c 128,-1,60
 698 715 698 715 667 715 c 128,-1,61
 636 715 636 715 602 738.5 c 128,-1,62
 568 762 568 762 547 786 c 1,63,-1
 579 813 l 1,64,65
 631 762 631 762 664 762 c 0,66,67
 715 762 715 762 751 810 c 1,57,-1
EndSplineSet
EndChar

StartChar: Adieresis
Encoding: 196 196 7
Width: 810
Flags: HMW
HStem: -76 83<64.5 97> 0 21G<569 639 569 569> 239 64 671 20G<719.5 743> 751 79<611 633 738 760>
VStem: -85 105<46 90> 563 76<0 114.5> 583 79<779 801> 710 79<779 801>
LayerCount: 2
Fore
SplineSet
756 298 m 1,0,-1
 751 238 l 1,1,2
 728 240 728 240 701.5 240 c 128,-1,3
 675 240 675 240 657 239 c 1,4,5
 643 129 643 129 639 0 c 1,6,-1
 569 0 l 1,7,8
 563 26 563 26 563 69 c 128,-1,9
 563 112 563 112 565.5 143.5 c 128,-1,10
 568 175 568 175 572 206 c 128,-1,11
 576 237 576 237 576 242 c 1,12,13
 562 243 562 243 510 243 c 128,-1,14
 458 243 458 243 438 241 c 1,15,16
 322 85 322 85 224 4.5 c 128,-1,17
 126 -76 126 -76 28 -76 c 0,18,19
 -20 -76 -20 -76 -52.5 -47 c 128,-1,20
 -85 -18 -85 -18 -85 30 c 0,21,22
 -85 121 -85 121 53.5 196 c 128,-1,23
 192 271 192 271 412 297 c 1,24,25
 438 337 438 337 509 420.5 c 128,-1,26
 580 504 580 504 649 566 c 1,27,28
 679 636 679 636 696.5 663.5 c 128,-1,29
 714 691 714 691 731 691 c 128,-1,30
 748 691 748 691 759 678 c 128,-1,31
 770 665 770 665 770 644.5 c 128,-1,32
 770 624 770 624 747.5 584.5 c 128,-1,33
 725 545 725 545 701 462.5 c 128,-1,34
 677 380 677 380 668 307 c 1,35,36
 720 307 720 307 756 298 c 1,0,-1
246 89 m 1,37,38
 329 168 329 168 371 239 c 1,39,40
 203 229 203 229 111.5 176 c 128,-1,41
 20 123 20 123 20 63 c 0,42,43
 20 37 20 37 37.5 22 c 128,-1,44
 55 7 55 7 84 7 c 0,45,46
 162 7 162 7 246 89 c 1,37,38
588 307 m 1,47,48
 594.888888889 341.444444444 594.888888889 341.444444444 606.444444444 392.722222222 c 128,-1,49
 618 444 618 444 620 453 c 1,50,51
 572 407 572 407 553 385.5 c 128,-1,52
 534 364 534 364 486 303 c 1,53,54
 503 304 503 304 527.5 304.5 c 128,-1,55
 552 305 552 305 568 306 c 128,-1,56
 584 307 584 307 588 307 c 1,47,48
594.5 762.5 m 128,-1,58
 583 774 583 774 583 790.5 c 128,-1,59
 583 807 583 807 594.5 818.5 c 128,-1,60
 606 830 606 830 622 830 c 128,-1,61
 638 830 638 830 650 818 c 128,-1,62
 662 806 662 806 662 790 c 128,-1,63
 662 774 662 774 650.5 762.5 c 128,-1,64
 639 751 639 751 622.5 751 c 128,-1,57
 606 751 606 751 594.5 762.5 c 128,-1,58
721 762.5 m 128,-1,66
 710 774 710 774 710 790.5 c 128,-1,67
 710 807 710 807 721.5 818.5 c 128,-1,68
 733 830 733 830 749.5 830 c 128,-1,69
 766 830 766 830 777.5 818 c 128,-1,70
 789 806 789 806 789 790 c 128,-1,71
 789 774 789 774 777.5 762.5 c 128,-1,72
 766 751 766 751 749 751 c 128,-1,65
 732 751 732 751 721 762.5 c 128,-1,66
EndSplineSet
EndChar

StartChar: Amacron
Encoding: 256 256 8
Width: 780
Flags: HMW
HStem: -76 83<49.5 82> 0 21G<554 624 554 554> 239 64 671 20G<704.5 728> 740 39
VStem: -100 105<46 90> 548 76<0 114.5>
LayerCount: 2
Fore
SplineSet
741 298 m 1,0,-1
 736 238 l 1,1,2
 713 240 713 240 686.5 240 c 128,-1,3
 660 240 660 240 642 239 c 1,4,5
 628 129 628 129 624 0 c 1,6,-1
 554 0 l 1,7,8
 548 26 548 26 548 69 c 128,-1,9
 548 112 548 112 550.5 143.5 c 128,-1,10
 553 175 553 175 557 206 c 128,-1,11
 561 237 561 237 561 242 c 1,12,13
 547 243 547 243 495 243 c 128,-1,14
 443 243 443 243 423 241 c 1,15,16
 307 85 307 85 209 4.5 c 128,-1,17
 111 -76 111 -76 13 -76 c 0,18,19
 -35 -76 -35 -76 -67.5 -47 c 128,-1,20
 -100 -18 -100 -18 -100 30 c 0,21,22
 -100 121 -100 121 38.5 196 c 128,-1,23
 177 271 177 271 397 297 c 1,24,25
 423 337 423 337 494 420.5 c 128,-1,26
 565 504 565 504 634 566 c 1,27,28
 664 636 664 636 681.5 663.5 c 128,-1,29
 699 691 699 691 716 691 c 128,-1,30
 733 691 733 691 744 678 c 128,-1,31
 755 665 755 665 755 644.5 c 128,-1,32
 755 624 755 624 732.5 584.5 c 128,-1,33
 710 545 710 545 686 462.5 c 128,-1,34
 662 380 662 380 653 307 c 1,35,36
 705 307 705 307 741 298 c 1,0,-1
231 89 m 1,37,38
 314 168 314 168 356 239 c 1,39,40
 188 229 188 229 96.5 176 c 128,-1,41
 5 123 5 123 5 63 c 0,42,43
 5 37 5 37 22.5 22 c 128,-1,44
 40 7 40 7 69 7 c 0,45,46
 147 7 147 7 231 89 c 1,37,38
573 307 m 1,47,48
 579.888888889 341.444444444 579.888888889 341.444444444 591.444444444 392.722222222 c 128,-1,49
 603 444 603 444 605 453 c 1,50,51
 557 407 557 407 538 385.5 c 128,-1,52
 519 364 519 364 471 303 c 1,53,54
 488 304 488 304 512.5 304.5 c 128,-1,55
 537 305 537 305 553 306 c 128,-1,56
 569 307 569 307 573 307 c 1,47,48
732 779 m 1,57,-1
 732 743 l 1,58,-1
 555 737 l 1,59,-1
 546 768 l 1,60,61
 579 775 579 775 732 779 c 1,57,-1
EndSplineSet
EndChar

StartChar: Aogonek
Encoding: 260 260 9
Width: 810
Flags: HMW
HStem: -188 77<513 596.5> -76 83<64.5 97> 0 21G<600 639 600 600> 239 64 671 20G<719.5 743>
VStem: -85 105<46 90>
LayerCount: 2
Fore
SplineSet
683 -70 m 1,0,-1
 703 -86 l 1,1,2
 673 -126 673 -126 620.5 -157 c 128,-1,3
 568 -188 568 -188 536.5 -188 c 128,-1,4
 505 -188 505 -188 488.5 -174.5 c 128,-1,5
 472 -161 472 -161 472 -142 c 0,6,7
 472 -103 472 -103 501 -56.5 c 128,-1,8
 530 -10 530 -10 565 22 c 1,9,10
 563 44 563 44 563 78 c 128,-1,11
 563 112 563 112 565.5 143.5 c 128,-1,12
 568 175 568 175 572 206 c 128,-1,13
 576 237 576 237 576 242 c 1,14,15
 562 243 562 243 510 243 c 128,-1,16
 458 243 458 243 438 241 c 1,17,18
 322 85 322 85 224 4.5 c 128,-1,19
 126 -76 126 -76 28 -76 c 0,20,21
 -20 -76 -20 -76 -52.5 -47 c 128,-1,22
 -85 -18 -85 -18 -85 30 c 0,23,24
 -85 121 -85 121 53.5 196 c 128,-1,25
 192 271 192 271 412 297 c 1,26,27
 438 337 438 337 509 420.5 c 128,-1,28
 580 504 580 504 649 566 c 1,29,30
 679 636 679 636 696.5 663.5 c 128,-1,31
 714 691 714 691 731 691 c 128,-1,32
 748 691 748 691 759 678 c 128,-1,33
 770 665 770 665 770 644.5 c 128,-1,34
 770 624 770 624 747.5 584.5 c 128,-1,35
 725 545 725 545 701 462.5 c 128,-1,36
 677 380 677 380 668 307 c 1,37,38
 720 307 720 307 756 298 c 1,39,-1
 751 238 l 1,40,41
 728 240 728 240 701.5 240 c 128,-1,42
 675 240 675 240 657 239 c 1,43,44
 643 129 643 129 639 0 c 1,45,-1
 600 0 l 1,46,47
 558 -58 558 -58 558 -87 c 0,48,49
 558 -95 558 -95 565 -103 c 128,-1,50
 572 -111 572 -111 588 -111 c 0,51,52
 624 -111 624 -111 683 -70 c 1,0,-1
246 89 m 1,53,54
 329 168 329 168 371 239 c 1,55,56
 203 229 203 229 111.5 176 c 128,-1,57
 20 123 20 123 20 63 c 0,58,59
 20 37 20 37 37.5 22 c 128,-1,60
 55 7 55 7 84 7 c 0,61,62
 162 7 162 7 246 89 c 1,53,54
588 307 m 1,63,64
 594.888888889 341.444444444 594.888888889 341.444444444 606.444444444 392.722222222 c 128,-1,65
 618 444 618 444 620 453 c 1,66,67
 572 407 572 407 553 385.5 c 128,-1,68
 534 364 534 364 486 303 c 1,69,70
 503 304 503 304 527.5 304.5 c 128,-1,71
 552 305 552 305 568 306 c 128,-1,72
 584 307 584 307 588 307 c 1,63,64
EndSplineSet
EndChar

StartChar: Aring
Encoding: 197 197 10
Width: 810
Flags: HMW
HStem: -76 83<64.5 97> 0 21G<569 639 569 569> 239 64 671 20G<719.5 743> 720 125<694 711> 740 86<702.5 703.5>
VStem: -85 105<46 90> 563 68 669 66<756 808.5> 735 39<785.5 808.5>
LayerCount: 2
Fore
SplineSet
756 298 m 1,0,-1
 751 238 l 1,1,2
 728 240 728 240 701.5 240 c 128,-1,3
 675 240 675 240 657 239 c 1,4,5
 643 129 643 129 639 0 c 1,6,-1
 569 0 l 1,7,8
 563 26 563 26 563 69 c 128,-1,9
 563 112 563 112 565.5 143.5 c 128,-1,10
 568 175 568 175 572 206 c 128,-1,11
 576 237 576 237 576 242 c 1,12,13
 562 243 562 243 510 243 c 128,-1,14
 458 243 458 243 438 241 c 1,15,16
 322 85 322 85 224 4.5 c 128,-1,17
 126 -76 126 -76 28 -76 c 0,18,19
 -20 -76 -20 -76 -52.5 -47 c 128,-1,20
 -85 -18 -85 -18 -85 30 c 0,21,22
 -85 121 -85 121 53.5 196 c 128,-1,23
 192 271 192 271 412 297 c 1,24,25
 438 337 438 337 509 420.5 c 128,-1,26
 580 504 580 504 649 566 c 1,27,28
 679 636 679 636 696.5 663.5 c 128,-1,29
 714 691 714 691 731 691 c 128,-1,30
 748 691 748 691 759 678 c 128,-1,31
 770 665 770 665 770 644.5 c 128,-1,32
 770 624 770 624 747.5 584.5 c 128,-1,33
 725 545 725 545 701 462.5 c 128,-1,34
 677 380 677 380 668 307 c 1,35,36
 720 307 720 307 756 298 c 1,0,-1
246 89 m 1,37,38
 329 168 329 168 371 239 c 1,39,40
 203 229 203 229 111.5 176 c 128,-1,41
 20 123 20 123 20 63 c 0,42,43
 20 37 20 37 37.5 22 c 128,-1,44
 55 7 55 7 84 7 c 0,45,46
 162 7 162 7 246 89 c 1,37,38
588 307 m 1,47,48
 594.888888889 341.444444444 594.888888889 341.444444444 606.444444444 392.722222222 c 128,-1,49
 618 444 618 444 620 453 c 1,50,51
 572 407 572 407 553 385.5 c 128,-1,52
 534 364 534 364 486 303 c 1,53,54
 503 304 503 304 527.5 304.5 c 128,-1,55
 552 305 552 305 568 306 c 128,-1,56
 584 307 584 307 588 307 c 1,47,48
758.5 832 m 128,-1,58
 774 819 774 819 774 792.5 c 128,-1,59
 774 766 774 766 748 743 c 128,-1,60
 722 720 722 720 692 720 c 128,-1,61
 662 720 662 720 646.5 733.5 c 128,-1,62
 631 747 631 747 631 774 c 128,-1,63
 631 801 631 801 656.5 823 c 128,-1,64
 682 845 682 845 712.5 845 c 128,-1,57
 743 845 743 845 758.5 832 c 128,-1,58
722 759 m 128,-1,66
 735 778 735 778 735 802 c 128,-1,67
 735 826 735 826 714 826 c 0,68,69
 697 826 697 826 683 806.5 c 128,-1,70
 669 787 669 787 669 763.5 c 128,-1,71
 669 740 669 740 693 740 c 0,72,65
 709 740 709 740 722 759 c 128,-1,66
EndSplineSet
EndChar

StartChar: AE
Encoding: 198 198 11
Width: 1177
Flags: HMW
HStem: -127 21G<607 607> -76 49 -76 83<64.5 97> 170 60<966 987.5> 579 60<1013.5 1036> 671 20G<719.5 743>
VStem: -85 105<46 90> 561 110<90 138.5> 721 49 721 94<403.5 448.5> 721 187<325 448.5> 1031 98<96 137.5> 1072 106<523 555>
LayerCount: 2
Fore
SplineSet
1178 575 m 0,0,1
 1178 525 1178 525 1130.5 486 c 128,-1,2
 1083 447 1083 447 1021.5 429 c 128,-1,3
 960 411 960 411 903 411 c 0,4,5
 888 411 888 411 881 412 c 1,6,-1
 881 446 l 1,7,8
 883 446 883 446 939 455.5 c 128,-1,9
 995 465 995 465 1033.5 489 c 128,-1,10
 1072 513 1072 513 1072 543 c 0,11,12
 1072 579 1072 579 1018 579 c 0,13,14
 945 579 945 579 880 529 c 128,-1,15
 815 479 815 479 815 424 c 128,-1,16
 815 369 815 369 883 353 c 0,17,18
 898 349 898 349 903 345 c 128,-1,19
 908 341 908 341 908 331 c 128,-1,20
 908 321 908 321 898.5 314.5 c 128,-1,21
 889 308 889 308 855 296 c 0,22,23
 671 233 671 233 671 100 c 0,24,25
 671 73 671 73 681 54 c 1,26,27
 742 132 742 132 839 181 c 128,-1,28
 936 230 936 230 1026 230 c 0,29,30
 1073 230 1073 230 1101 209.5 c 128,-1,31
 1129 189 1129 189 1129 153 c 0,32,33
 1129 97 1129 97 1077 41 c 128,-1,34
 1025 -15 1025 -15 942.5 -50.5 c 128,-1,35
 860 -86 860 -86 778 -86 c 128,-1,36
 696 -86 696 -86 650 -56 c 1,37,38
 649 -57 649 -57 641.5 -71.5 c 0,39,40
 620.855670103 -111.412371134 620.855670103 -111.412371134 607 -127 c 1,41,-1
 574 -113 l 1,42,43
 581 -85 581 -85 615 -28 c 1,44,45
 561 12 561 12 561 116 c 0,46,47
 561 167 561 167 576 242 c 1,48,49
 562 243 562 243 510 243 c 128,-1,50
 458 243 458 243 438 241 c 1,51,52
 322 85 322 85 224 4.5 c 128,-1,53
 126 -76 126 -76 28 -76 c 0,54,55
 -20 -76 -20 -76 -52.5 -47 c 128,-1,56
 -85 -18 -85 -18 -85 30 c 0,57,58
 -85 121 -85 121 53.5 196 c 128,-1,59
 192 271 192 271 412 297 c 1,60,61
 438 337 438 337 509 420.5 c 128,-1,62
 580 504 580 504 649 566 c 1,63,64
 679 636 679 636 696.5 663.5 c 128,-1,65
 714 691 714 691 731 691 c 128,-1,66
 748 691 748 691 759 678 c 128,-1,67
 770 665 770 665 770 644.5 c 128,-1,68
 770 624 770 624 751 591 c 0,69,70
 692 487 692 487 658 246 c 1,71,72
 704 283 704 283 768 308 c 1,73,74
 721 347 721 347 721 389 c 0,75,76
 721 446 721 446 781 505.5 c 128,-1,77
 841 565 841 565 927.5 602 c 128,-1,78
 1014 639 1014 639 1090 639 c 0,79,80
 1130 639 1130 639 1154 621.5 c 128,-1,81
 1178 604 1178 604 1178 575 c 0,0,1
246 89 m 1,82,83
 329 168 329 168 371 239 c 1,84,85
 203 229 203 229 111.5 176 c 128,-1,86
 20 123 20 123 20 63 c 0,87,88
 20 37 20 37 37.5 22 c 128,-1,89
 55 7 55 7 84 7 c 0,90,91
 162 7 162 7 246 89 c 1,82,83
968 170 m 0,92,93
 909 170 909 170 830.5 125 c 128,-1,94
 752 80 752 80 703 18 c 1,95,96
 743 -27 743 -27 816.5 -27 c 128,-1,97
 890 -27 890 -27 960.5 20.5 c 128,-1,98
 1031 68 1031 68 1031 123 c 0,99,100
 1031 145 1031 145 1014 157.5 c 128,-1,101
 997 170 997 170 968 170 c 0,92,93
588 307 m 1,102,103
 594.888888889 341.444444444 594.888888889 341.444444444 606.444444444 392.722222222 c 128,-1,104
 618 444 618 444 620 453 c 1,105,106
 572 407 572 407 553 385.5 c 128,-1,107
 534 364 534 364 486 303 c 1,108,109
 503 304 503 304 527.5 304.5 c 128,-1,110
 552 305 552 305 568 306 c 128,-1,111
 584 307 584 307 588 307 c 1,102,103
EndSplineSet
EndChar

StartChar: AEacute
Encoding: 508 508 12
Width: 1177
Flags: HMW
HStem: -127 21G<607 607> -86 59<789 862.5> -86 93 170 60<966 987.5> 579 60<1013.5 1036> 671 20G<719.5 743> 772 20G<951 951>
VStem: -85 105<46 90> 561 110<90 138.5> 721 49 721 94<403.5 448.5> 721 187<325 448.5> 1031 98<96 137.5> 1072 106<523 555>
LayerCount: 2
Fore
SplineSet
1178 575 m 0,0,1
 1178 525 1178 525 1130.5 486 c 128,-1,2
 1083 447 1083 447 1021.5 429 c 128,-1,3
 960 411 960 411 903 411 c 0,4,5
 888 411 888 411 881 412 c 1,6,-1
 881 446 l 1,7,8
 883 446 883 446 939 455.5 c 128,-1,9
 995 465 995 465 1033.5 489 c 128,-1,10
 1072 513 1072 513 1072 543 c 0,11,12
 1072 579 1072 579 1018 579 c 0,13,14
 945 579 945 579 880 529 c 128,-1,15
 815 479 815 479 815 424 c 128,-1,16
 815 369 815 369 883 353 c 0,17,18
 898 349 898 349 903 345 c 128,-1,19
 908 341 908 341 908 331 c 128,-1,20
 908 321 908 321 898.5 314.5 c 128,-1,21
 889 308 889 308 855 296 c 0,22,23
 671 233 671 233 671 100 c 0,24,25
 671 73 671 73 681 54 c 1,26,27
 742 132 742 132 839 181 c 128,-1,28
 936 230 936 230 1026 230 c 0,29,30
 1073 230 1073 230 1101 209.5 c 128,-1,31
 1129 189 1129 189 1129 153 c 0,32,33
 1129 97 1129 97 1077 41 c 128,-1,34
 1025 -15 1025 -15 942.5 -50.5 c 128,-1,35
 860 -86 860 -86 778 -86 c 128,-1,36
 696 -86 696 -86 650 -56 c 1,37,38
 649 -57 649 -57 641.5 -71.5 c 0,39,40
 620.855670103 -111.412371134 620.855670103 -111.412371134 607 -127 c 1,41,-1
 574 -113 l 1,42,43
 581 -85 581 -85 615 -28 c 1,44,45
 561 12 561 12 561 116 c 0,46,47
 561 167 561 167 576 242 c 1,48,49
 562 243 562 243 510 243 c 128,-1,50
 458 243 458 243 438 241 c 1,51,52
 322 85 322 85 224 4.5 c 128,-1,53
 126 -76 126 -76 28 -76 c 0,54,55
 -20 -76 -20 -76 -52.5 -47 c 128,-1,56
 -85 -18 -85 -18 -85 30 c 0,57,58
 -85 121 -85 121 53.5 196 c 128,-1,59
 192 271 192 271 412 297 c 1,60,61
 438 337 438 337 509 420.5 c 128,-1,62
 580 504 580 504 649 566 c 1,63,64
 679 636 679 636 696.5 663.5 c 128,-1,65
 714 691 714 691 731 691 c 128,-1,66
 748 691 748 691 759 678 c 128,-1,67
 770 665 770 665 770 644.5 c 128,-1,68
 770 624 770 624 751 591 c 0,69,70
 692 487 692 487 658 246 c 1,71,72
 704 283 704 283 768 308 c 1,73,74
 721 347 721 347 721 389 c 0,75,76
 721 446 721 446 781 505.5 c 128,-1,77
 841 565 841 565 927.5 602 c 128,-1,78
 1014 639 1014 639 1090 639 c 0,79,80
 1130 639 1130 639 1154 621.5 c 128,-1,81
 1178 604 1178 604 1178 575 c 0,0,1
246 89 m 1,82,83
 329 168 329 168 371 239 c 1,84,85
 203 229 203 229 111.5 176 c 128,-1,86
 20 123 20 123 20 63 c 0,87,88
 20 37 20 37 37.5 22 c 128,-1,89
 55 7 55 7 84 7 c 0,90,91
 162 7 162 7 246 89 c 1,82,83
968 170 m 0,92,93
 909 170 909 170 830.5 125 c 128,-1,94
 752 80 752 80 703 18 c 1,95,96
 743 -27 743 -27 816.5 -27 c 128,-1,97
 890 -27 890 -27 960.5 20.5 c 128,-1,98
 1031 68 1031 68 1031 123 c 0,99,100
 1031 145 1031 145 1014 157.5 c 128,-1,101
 997 170 997 170 968 170 c 0,92,93
588 307 m 1,102,103
 594.888888889 341.444444444 594.888888889 341.444444444 606.444444444 392.722222222 c 128,-1,104
 618 444 618 444 620 453 c 1,105,106
 572 407 572 407 553 385.5 c 128,-1,107
 534 364 534 364 486 303 c 1,108,109
 503 304 503 304 527.5 304.5 c 128,-1,110
 552 305 552 305 568 306 c 128,-1,111
 584 307 584 307 588 307 c 1,102,103
1019 752 m 1,112,-1
 848 696 l 1,113,-1
 819 714 l 1,114,-1
 951 792 l 1,115,-1
 1019 752 l 1,112,-1
EndSplineSet
EndChar

StartChar: B
Encoding: 66 66 13
Width: 667
Flags: HMW
HStem: -183 65<190 196.5> 559 79<475 577.5>
VStem: 30 72<74 167.5> 43 59 43 98<-81 -37> 528 95<511.5 535>
LayerCount: 2
Fore
SplineSet
637 181 m 1,0,-1
 636 142 l 1,1,-1
 581 140 l 1,2,3
 569 70 569 70 542.5 27 c 128,-1,4
 516 -16 516 -16 454 -66 c 128,-1,5
 392 -116 392 -116 305.5 -149.5 c 128,-1,6
 219 -183 219 -183 161 -183 c 128,-1,7
 103 -183 103 -183 73 -159.5 c 128,-1,8
 43 -136 43 -136 43 -98 c 0,9,10
 43 -40 43 -40 111.5 18.5 c 128,-1,11
 180 77 180 77 277.5 116.5 c 128,-1,12
 375 156 375 156 471 170 c 1,13,14
 456 195 456 195 425.5 211 c 128,-1,15
 395 227 395 227 322 247 c 0,16,17
 282 258 282 258 282 283 c 0,18,19
 282 298 282 298 294.5 310.5 c 128,-1,20
 307 323 307 323 336.5 340.5 c 128,-1,21
 366 358 366 358 392.5 376.5 c 128,-1,22
 419 395 419 395 451.5 421 c 128,-1,23
 484 447 484 447 506 475 c 128,-1,24
 528 503 528 503 528 524 c 0,25,26
 528 559 528 559 493 559 c 0,27,28
 466 559 466 559 419.5 533.5 c 128,-1,29
 373 508 373 508 328 468 c 1,30,-1
 285 332 l 2,31,32
 240 189 240 189 185.5 110 c 128,-1,33
 131 31 131 31 82 31 c 0,34,35
 30 31 30 31 30 95 c 128,-1,36
 30 159 30 159 92 258.5 c 128,-1,37
 154 358 154 358 264 463 c 0,38,39
 264 464 264 464 269.5 481.5 c 128,-1,40
 275 499 275 499 280.5 517 c 0,41,42
 297 571 297 571 306 586 c 1,43,-1
 355 578 l 1,44,45
 355 559 355 559 347 533 c 1,46,47
 403 575 403 575 465.5 606.5 c 128,-1,48
 528 638 528 638 557.5 638 c 128,-1,49
 587 638 587 638 605 619.5 c 128,-1,50
 623 601 623 601 623 565.5 c 128,-1,51
 623 530 623 530 589.5 484 c 128,-1,52
 556 438 556 438 506.5 401 c 0,53,54
 415.382165605 332.891719745 415.382165605 332.891719745 351 303 c 1,55,56
 455 287 455 287 503 260.5 c 128,-1,57
 551 234 551 234 573 181 c 1,58,-1
 637 181 l 1,0,-1
151 158 m 0,59,60
 221 271 221 271 244 390 c 1,61,62
 190 331 190 331 146 255 c 128,-1,63
 102 179 102 179 102 145 c 0,64,65
 102 124 102 124 116.5 124 c 128,-1,66
 131 124 131 124 151 158 c 0,59,60
383 -56 m 0,67,68
 432 -23 432 -23 461 18 c 128,-1,69
 490 59 490 59 490 95 c 0,70,71
 490 112 490 112 485 129 c 1,72,73
 335 111 335 111 238 50.5 c 128,-1,74
 141 -10 141 -10 141 -65 c 0,75,76
 141 -89 141 -89 160 -103.5 c 128,-1,77
 179 -118 179 -118 212 -118 c 0,78,79
 293 -118 293 -118 383 -56 c 0,67,68
EndSplineSet
EndChar

StartChar: C
Encoding: 67 67 14
Width: 608
Flags: HMW
HStem: -10 74<229 310.5> 345 40<255.5 328 254 354.5> 564 68<448 455>
VStem: 41 84<180 208> 489 89<505.5 534.5>
LayerCount: 2
Fore
SplineSet
500 632 m 0,0,1
 537 632 537 632 557.5 611.5 c 128,-1,2
 578 591 578 591 578 556 c 0,3,4
 578 478 578 478 485 411.5 c 128,-1,5
 392 345 392 345 273 345 c 0,6,7
 221 345 221 345 163 360 c 1,8,9
 125 298 125 298 125 225.5 c 128,-1,10
 125 153 125 153 165 108.5 c 128,-1,11
 205 64 205 64 282 64 c 0,12,13
 420 64 420 64 463 225 c 1,14,-1
 510 225 l 1,15,16
 499 132 499 132 422.5 61 c 128,-1,17
 346 -10 346 -10 221 -10 c 0,18,19
 155 -10 155 -10 98 38.5 c 128,-1,20
 41 87 41 87 41 179 c 128,-1,21
 41 271 41 271 111 380 c 1,22,23
 60 410 60 410 30 454 c 1,24,-1
 57 484 l 1,25,26
 64 477 64 477 76 463 c 0,27,28
 98.7191011236 436.494382022 98.7191011236 436.494382022 138 416 c 1,29,30
 197 498 197 498 309.5 565 c 128,-1,31
 422 632 422 632 500 632 c 0,0,1
270 385 m 0,32,33
 357 385 357 385 423 426 c 128,-1,34
 489 467 489 467 489 522 c 0,35,36
 489 541 489 541 475.5 552.5 c 128,-1,37
 462 564 462 564 441 564 c 0,38,39
 380 564 380 564 305 515.5 c 128,-1,40
 230 467 230 467 186 399 c 1,41,42
 222 385 222 385 270 385 c 0,32,33
EndSplineSet
EndChar

StartChar: Cacute
Encoding: 262 262 15
Width: 628
Flags: HMW
HStem: -10 74<239 320.5> 345 40<265.5 338 264 364.5> 564 68<458 465> 744 20G<456 456>
VStem: 51 84<180 208> 499 89<505.5 534.5>
LayerCount: 2
Fore
SplineSet
510 632 m 0,0,1
 547 632 547 632 567.5 611.5 c 128,-1,2
 588 591 588 591 588 556 c 0,3,4
 588 478 588 478 495 411.5 c 128,-1,5
 402 345 402 345 283 345 c 0,6,7
 231 345 231 345 173 360 c 1,8,9
 135 298 135 298 135 225.5 c 128,-1,10
 135 153 135 153 175 108.5 c 128,-1,11
 215 64 215 64 292 64 c 0,12,13
 430 64 430 64 473 225 c 1,14,-1
 520 225 l 1,15,16
 509 132 509 132 432.5 61 c 128,-1,17
 356 -10 356 -10 231 -10 c 0,18,19
 165 -10 165 -10 108 38.5 c 128,-1,20
 51 87 51 87 51 179 c 128,-1,21
 51 271 51 271 121 380 c 1,22,23
 70 410 70 410 40 454 c 1,24,-1
 67 484 l 1,25,26
 74 477 74 477 86 463 c 0,27,28
 108.719101124 436.494382022 108.719101124 436.494382022 148 416 c 1,29,30
 207 498 207 498 319.5 565 c 128,-1,31
 432 632 432 632 510 632 c 0,0,1
280 385 m 0,32,33
 367 385 367 385 433 426 c 128,-1,34
 499 467 499 467 499 522 c 0,35,36
 499 541 499 541 485.5 552.5 c 128,-1,37
 472 564 472 564 451 564 c 0,38,39
 390 564 390 564 315 515.5 c 128,-1,40
 240 467 240 467 196 399 c 1,41,42
 232 385 232 385 280 385 c 0,32,33
524 724 m 1,43,-1
 353 668 l 1,44,-1
 324 686 l 1,45,-1
 456 764 l 1,46,-1
 524 724 l 1,43,-1
EndSplineSet
EndChar

StartChar: Ccaron
Encoding: 268 268 16
Width: 628
Flags: HMW
HStem: -10 74<239 320.5> 345 40<265.5 338 264 364.5> 564 68<458 465> 783 20G<332 332>
VStem: 51 84<180 208> 499 89<505.5 534.5>
LayerCount: 2
Fore
SplineSet
510 632 m 0,0,1
 547 632 547 632 567.5 611.5 c 128,-1,2
 588 591 588 591 588 556 c 0,3,4
 588 478 588 478 495 411.5 c 128,-1,5
 402 345 402 345 283 345 c 0,6,7
 231 345 231 345 173 360 c 1,8,9
 135 298 135 298 135 225.5 c 128,-1,10
 135 153 135 153 175 108.5 c 128,-1,11
 215 64 215 64 292 64 c 0,12,13
 430 64 430 64 473 225 c 1,14,-1
 520 225 l 1,15,16
 509 132 509 132 432.5 61 c 128,-1,17
 356 -10 356 -10 231 -10 c 0,18,19
 165 -10 165 -10 108 38.5 c 128,-1,20
 51 87 51 87 51 179 c 128,-1,21
 51 271 51 271 121 380 c 1,22,23
 70 410 70 410 40 454 c 1,24,-1
 67 484 l 1,25,26
 74 477 74 477 86 463 c 0,27,28
 108.719101124 436.494382022 108.719101124 436.494382022 148 416 c 1,29,30
 207 498 207 498 319.5 565 c 128,-1,31
 432 632 432 632 510 632 c 0,0,1
280 385 m 0,32,33
 367 385 367 385 433 426 c 128,-1,34
 499 467 499 467 499 522 c 0,35,36
 499 541 499 541 485.5 552.5 c 128,-1,37
 472 564 472 564 451 564 c 0,38,39
 390 564 390 564 315 515.5 c 128,-1,40
 240 467 240 467 196 399 c 1,41,42
 232 385 232 385 280 385 c 0,32,33
435 665 m 1,43,-1
 288 779 l 1,44,-1
 332 803 l 1,45,46
 387 761 387 761 431 733 c 1,47,48
 449 746 449 746 534 797 c 1,49,-1
 564 773 l 1,50,51
 548.571428571 755.857142857 548.571428571 755.857142857 462.5 687 c 2,52,-1
 435 665 l 1,43,-1
EndSplineSet
EndChar

StartChar: Ccedilla
Encoding: 199 199 17
Width: 628
Flags: HMW
HStem: -197 27<161.5 177.5 141 206.5> -82 40<230 290> -10 74<239 320.5> 345 40<265.5 338 264 364.5> 564 68<458 465>
VStem: 51 84<180 208> 262 70<-112 -96.5> 499 89<505.5 534.5>
LayerCount: 2
Fore
SplineSet
210 -55 m 1,0,1
 234 -42 234 -42 266.5 -42 c 128,-1,2
 299 -42 299 -42 315.5 -55 c 128,-1,3
 332 -68 332 -68 332 -88 c 0,4,5
 332 -125 332 -125 279 -161 c 128,-1,6
 226 -197 226 -197 164 -197 c 0,7,8
 154 -197 154 -197 140 -194 c 1,9,-1
 141 -170 l 1,10,11
 192 -170 192 -170 227 -148 c 128,-1,12
 262 -126 262 -126 262 -102 c 0,13,14
 262 -94 262 -94 254.5 -88 c 128,-1,15
 247 -82 247 -82 236.5 -82 c 128,-1,16
 226 -82 226 -82 205 -96 c 1,17,18
 181 -109 181 -109 174 -109 c 128,-1,19
 167 -109 167 -109 162 -105 c 128,-1,20
 157 -101 157 -101 157 -96 c 0,21,22
 157 -79 157 -79 195 -6 c 1,23,24
 136 7 136 7 93.5 53 c 128,-1,25
 51 99 51 99 51 174 c 0,26,27
 51 271 51 271 121 380 c 1,28,29
 70 410 70 410 40 454 c 1,30,-1
 67 484 l 1,31,32
 74 477 74 477 86 463 c 0,33,34
 108.719101124 436.494382022 108.719101124 436.494382022 148 416 c 1,35,36
 207 498 207 498 319.5 565 c 128,-1,37
 432 632 432 632 510 632 c 0,38,39
 547 632 547 632 567.5 611.5 c 128,-1,40
 588 591 588 591 588 556 c 0,41,42
 588 478 588 478 495 411.5 c 128,-1,43
 402 345 402 345 283 345 c 0,44,45
 231 345 231 345 173 360 c 1,46,47
 135 298 135 298 135 225.5 c 128,-1,48
 135 153 135 153 175 108.5 c 128,-1,49
 215 64 215 64 292 64 c 0,50,51
 430 64 430 64 473 225 c 1,52,-1
 520 225 l 1,53,54
 509 132 509 132 432.5 61 c 128,-1,55
 356 -10 356 -10 231 -10 c 1,56,-1
 210 -55 l 1,0,1
280 385 m 0,57,58
 367 385 367 385 433 426 c 128,-1,59
 499 467 499 467 499 522 c 0,60,61
 499 541 499 541 485.5 552.5 c 128,-1,62
 472 564 472 564 451 564 c 0,63,64
 390 564 390 564 315 515.5 c 128,-1,65
 240 467 240 467 196 399 c 1,66,67
 232 385 232 385 280 385 c 0,57,58
EndSplineSet
EndChar

StartChar: Ccircumflex
Encoding: 264 264 18
Width: 598
Flags: HMW
HStem: -10 74<224 305.5> 345 40<250.5 323 249 349.5> 564 68<443 450> 769 20G<422 422>
VStem: 36 84<180 208> 484 89<505.5 534.5>
LayerCount: 2
Fore
SplineSet
495 632 m 0,0,1
 532 632 532 632 552.5 611.5 c 128,-1,2
 573 591 573 591 573 556 c 0,3,4
 573 478 573 478 480 411.5 c 128,-1,5
 387 345 387 345 268 345 c 0,6,7
 216 345 216 345 158 360 c 1,8,9
 120 298 120 298 120 225.5 c 128,-1,10
 120 153 120 153 160 108.5 c 128,-1,11
 200 64 200 64 277 64 c 0,12,13
 415 64 415 64 458 225 c 1,14,-1
 505 225 l 1,15,16
 494 132 494 132 417.5 61 c 128,-1,17
 341 -10 341 -10 216 -10 c 0,18,19
 150 -10 150 -10 93 38.5 c 128,-1,20
 36 87 36 87 36 179 c 128,-1,21
 36 271 36 271 106 380 c 1,22,23
 55 410 55 410 25 454 c 1,24,-1
 52 484 l 1,25,26
 59 477 59 477 71 463 c 0,27,28
 93.7191011236 436.494382022 93.7191011236 436.494382022 133 416 c 1,29,30
 192 498 192 498 304.5 565 c 128,-1,31
 417 632 417 632 495 632 c 0,0,1
265 385 m 0,32,33
 352 385 352 385 418 426 c 128,-1,34
 484 467 484 467 484 522 c 0,35,36
 484 541 484 541 470.5 552.5 c 128,-1,37
 457 564 457 564 436 564 c 0,38,39
 375 564 375 564 300 515.5 c 128,-1,40
 225 467 225 467 181 399 c 1,41,42
 217 385 217 385 265 385 c 0,32,33
275 675 m 1,43,-1
 422 789 l 1,44,45
 530 703 530 703 551 681 c 1,46,-1
 521 657 l 1,47,48
 436 708 436 708 418 721 c 1,49,-1
 319 651 l 1,50,-1
 275 675 l 1,43,-1
EndSplineSet
EndChar

StartChar: Cdotaccent
Encoding: 266 266 19
Width: 598
Flags: HMW
HStem: -10 74<224 305.5> 345 40<250.5 323 249 349.5> 564 68<443 450> 696 79<409 431>
VStem: 36 84<180 208> 381 79<724 746> 484 89<505.5 534.5>
LayerCount: 2
Fore
SplineSet
495 632 m 0,0,1
 532 632 532 632 552.5 611.5 c 128,-1,2
 573 591 573 591 573 556 c 0,3,4
 573 478 573 478 480 411.5 c 128,-1,5
 387 345 387 345 268 345 c 0,6,7
 216 345 216 345 158 360 c 1,8,9
 120 298 120 298 120 225.5 c 128,-1,10
 120 153 120 153 160 108.5 c 128,-1,11
 200 64 200 64 277 64 c 0,12,13
 415 64 415 64 458 225 c 1,14,-1
 505 225 l 1,15,16
 494 132 494 132 417.5 61 c 128,-1,17
 341 -10 341 -10 216 -10 c 0,18,19
 150 -10 150 -10 93 38.5 c 128,-1,20
 36 87 36 87 36 179 c 128,-1,21
 36 271 36 271 106 380 c 1,22,23
 55 410 55 410 25 454 c 1,24,-1
 52 484 l 1,25,26
 59 477 59 477 71 463 c 0,27,28
 93.7191011236 436.494382022 93.7191011236 436.494382022 133 416 c 1,29,30
 192 498 192 498 304.5 565 c 128,-1,31
 417 632 417 632 495 632 c 0,0,1
265 385 m 0,32,33
 352 385 352 385 418 426 c 128,-1,34
 484 467 484 467 484 522 c 0,35,36
 484 541 484 541 470.5 552.5 c 128,-1,37
 457 564 457 564 436 564 c 0,38,39
 375 564 375 564 300 515.5 c 128,-1,40
 225 467 225 467 181 399 c 1,41,42
 217 385 217 385 265 385 c 0,32,33
381 735 m 128,-1,44
 381 752 381 752 392.5 763.5 c 128,-1,45
 404 775 404 775 420 775 c 128,-1,46
 436 775 436 775 448 763.5 c 128,-1,47
 460 752 460 752 460 735.5 c 128,-1,48
 460 719 460 719 448.5 707.5 c 128,-1,49
 437 696 437 696 420.5 696 c 128,-1,50
 404 696 404 696 392.5 707 c 128,-1,43
 381 718 381 718 381 735 c 128,-1,44
EndSplineSet
EndChar

StartChar: D
Encoding: 68 68 20
Width: 684
Flags: HMW
HStem: -2 67<357 467.5> -1 21G<191 200 200 247> 597 41<185.5 322.5>
VStem: -10 97<452 525 452 526.5> 567 87<198 344.5>
LayerCount: 2
Fore
SplineSet
233 638 m 0,0,1
 407 638 407 638 530.5 535 c 128,-1,2
 654 432 654 432 654 294 c 0,3,4
 654 156 654 156 570 76 c 128,-1,5
 486 -4 486 -4 357 -2 c 0,6,7
 288 -1 288 -1 247 -1 c 2,8,-1
 200 -1 l 2,9,10
 171 -1 171 -1 171 21 c 0,11,12
 171 29 171 29 188 62 c 0,13,14
 244 174 244 174 273 291 c 1,15,16
 170 291 170 291 80 348 c 128,-1,17
 -10 405 -10 405 -10 477.5 c 0,18,19
 -10 550 -10 550 58 594 c 128,-1,20
 126 638 126 638 233 638 c 0,0,1
229 597 m 0,21,22
 163 597 163 597 125 569 c 128,-1,23
 87 541 87 541 87 486.5 c 0,24,25
 87 432 87 432 139.5 389.5 c 128,-1,26
 192 347 192 347 280 336 c 1,27,28
 311 467 311 467 316 505 c 1,29,-1
 376 499 l 1,30,31
 376 437 376 437 350 335 c 1,32,33
 358 335 358 335 443 345 c 1,34,-1
 448 312 l 1,35,36
 428 305 428 305 337 291 c 1,37,38
 298 165 298 165 256 73 c 1,39,40
 356 65 356 65 422.5 65 c 0,41,42
 489 65 489 65 528 114.5 c 128,-1,43
 567 164 567 164 567 248 c 0,44,45
 567 393 567 393 468 495 c 128,-1,46
 369 597 369 597 229 597 c 0,21,22
EndSplineSet
EndChar

StartChar: Dcaron
Encoding: 270 270 21
Width: 704
Flags: HMW
HStem: -2 67<367 477.5> -1 21G<201 210 210 257> 597 41<195.5 332.5> 775 20G<258 258>
VStem: 0 97<452 525 452 526.5> 577 87<198 344.5>
LayerCount: 2
Fore
SplineSet
243 638 m 0,0,1
 417 638 417 638 540.5 535 c 128,-1,2
 664 432 664 432 664 294 c 128,-1,3
 664 156 664 156 580 76 c 128,-1,4
 496 -4 496 -4 367 -2 c 0,5,6
 298 -1 298 -1 257 -1 c 2,7,-1
 210 -1 l 2,8,9
 181 -1 181 -1 181 21 c 0,10,11
 181 29 181 29 198 62 c 0,12,13
 254 174 254 174 283 291 c 1,14,15
 180 291 180 291 90 348 c 128,-1,16
 0 405 0 405 0 477.5 c 128,-1,17
 0 550 0 550 68 594 c 128,-1,18
 136 638 136 638 243 638 c 0,0,1
239 597 m 0,19,20
 173 597 173 597 135 569 c 128,-1,21
 97 541 97 541 97 486.5 c 128,-1,22
 97 432 97 432 149.5 389.5 c 128,-1,23
 202 347 202 347 290 336 c 1,24,25
 321 467 321 467 326 505 c 1,26,-1
 386 499 l 1,27,28
 386 437 386 437 360 335 c 1,29,30
 368 335 368 335 453 345 c 1,31,-1
 458 312 l 1,32,33
 438 305 438 305 347 291 c 1,34,35
 308 165 308 165 266 73 c 1,36,37
 366 65 366 65 432.5 65 c 128,-1,38
 499 65 499 65 538 114.5 c 128,-1,39
 577 164 577 164 577 248 c 0,40,41
 577 393 577 393 478 495 c 128,-1,42
 379 597 379 597 239 597 c 0,19,20
361 657 m 1,43,-1
 214 771 l 1,44,-1
 258 795 l 1,45,46
 313 753 313 753 357 725 c 1,47,48
 375 738 375 738 460 789 c 1,49,-1
 490 765 l 1,50,51
 474.571428571 747.857142857 474.571428571 747.857142857 388.5 679 c 2,52,-1
 361 657 l 1,43,-1
EndSplineSet
EndChar

StartChar: Dcroat
Encoding: 272 272 22
Width: 744
Flags: HMW
HStem: -2 67<407 517.5> -1 21G<241 250 250 297> 597 41<235.5 372.5>
VStem: 40 97<452 525 452 526.5> 617 87<198 344.5>
LayerCount: 2
Fore
SplineSet
283 638 m 0,0,1
 457 638 457 638 580.5 535 c 128,-1,2
 704 432 704 432 704 294 c 128,-1,3
 704 156 704 156 620 76 c 128,-1,4
 536 -4 536 -4 407 -2 c 0,5,6
 338 -1 338 -1 297 -1 c 2,7,-1
 250 -1 l 2,8,9
 221 -1 221 -1 221 21 c 0,10,11
 221 25.5483870968 221 25.5483870968 246 78.7741935484 c 128,-1,12
 271 132 271 132 280 155 c 1,13,-1
 171 139 l 1,14,-1
 181 200 l 1,15,16
 245 211 245 211 302 217 c 1,17,18
 314 252 314 252 323 291 c 1,19,20
 220 291 220 291 130 348 c 128,-1,21
 40 405 40 405 40 477.5 c 128,-1,22
 40 550 40 550 108 594 c 128,-1,23
 176 638 176 638 283 638 c 0,0,1
496 235 m 1,24,-1
 496 188 l 1,25,-1
 345 165 l 1,26,27
 326 118 326 118 306 73 c 1,28,29
 406 65 406 65 472.5 65 c 128,-1,30
 539 65 539 65 578 114.5 c 128,-1,31
 617 164 617 164 617 248 c 0,32,33
 617 393 617 393 518 495 c 128,-1,34
 419 597 419 597 279 597 c 0,35,36
 213 597 213 597 175 569 c 128,-1,37
 137 541 137 541 137 486.5 c 128,-1,38
 137 432 137 432 189.5 389.5 c 128,-1,39
 242 347 242 347 330 336 c 1,40,41
 361 467 361 467 366 505 c 1,42,-1
 426 499 l 1,43,44
 426 437 426 437 400 335 c 1,45,46
 408 335 408 335 493 345 c 1,47,-1
 498 312 l 1,48,49
 478 305 478 305 387 291 c 1,50,51
 371 240 371 240 366 225 c 1,52,53
 416 230 416 230 496 235 c 1,24,-1
EndSplineSet
EndChar

StartChar: E
Encoding: 69 69 23
Width: 669
Flags: HMW
HStem: -128 21G<68 68> -87 59<250 323.5> 169 60<427 448.5> 410 228<360 577.5> 578 60<474.5 497>
VStem: 30 102<89 130> 182 94<402.5 447.5> 182 187<324 447.5> 492 98<95 136.5> 533 106<522 554>
LayerCount: 2
Fore
SplineSet
639 574 m 0,0,1
 639 524 639 524 591.5 485 c 128,-1,2
 544 446 544 446 482.5 428 c 128,-1,3
 421 410 421 410 364 410 c 0,4,5
 349 410 349 410 342 411 c 1,6,-1
 342 445 l 1,7,8
 344 445 344 445 400 454.5 c 128,-1,9
 456 464 456 464 494.5 488 c 128,-1,10
 533 512 533 512 533 542 c 0,11,12
 533 578 533 578 479 578 c 0,13,14
 406 578 406 578 341 528 c 128,-1,15
 276 478 276 478 276 423 c 128,-1,16
 276 368 276 368 344 352 c 0,17,18
 359 348 359 348 364 344 c 128,-1,19
 369 340 369 340 369 330 c 128,-1,20
 369 320 369 320 359.5 313.5 c 128,-1,21
 350 307 350 307 316 295 c 0,22,23
 132 232 132 232 132 99 c 0,24,25
 132 72 132 72 142 53 c 1,26,27
 203 131 203 131 300 180 c 128,-1,28
 397 229 397 229 487 229 c 0,29,30
 534 229 534 229 562 208.5 c 128,-1,31
 590 188 590 188 590 152 c 0,32,33
 590 96 590 96 538 40 c 128,-1,34
 486 -16 486 -16 403.5 -51.5 c 128,-1,35
 321 -87 321 -87 239.5 -87 c 128,-1,36
 158 -87 158 -87 111 -57 c 1,37,38
 110 -58 110 -58 102.5 -72.5 c 0,39,40
 81.8556701031 -112.412371134 81.8556701031 -112.412371134 68 -128 c 1,41,-1
 35 -114 l 1,42,43
 42 -86 42 -86 76 -29 c 1,44,45
 30 23 30 23 30 87.5 c 128,-1,46
 30 152 30 152 82.5 210.5 c 128,-1,47
 135 269 135 269 229 307 c 1,48,49
 182 346 182 346 182 388 c 0,50,51
 182 445 182 445 242 504.5 c 128,-1,52
 302 564 302 564 388.5 601 c 128,-1,53
 475 638 475 638 551 638 c 0,54,55
 591 638 591 638 615 620.5 c 128,-1,56
 639 603 639 603 639 574 c 0,0,1
429 169 m 0,57,58
 370 169 370 169 291.5 124 c 128,-1,59
 213 79 213 79 164 17 c 1,60,61
 204 -28 204 -28 277.5 -28 c 128,-1,62
 351 -28 351 -28 421.5 19.5 c 128,-1,63
 492 67 492 67 492 122 c 0,64,65
 492 144 492 144 475 156.5 c 128,-1,66
 458 169 458 169 429 169 c 0,57,58
EndSplineSet
EndChar

StartChar: Eacute
Encoding: 201 201 24
Width: 689
Flags: HMW
HStem: -128 21G<78 78> -87 59<260 333.5> 169 60<437 458.5> 410 228<370 587.5> 578 60<484.5 507> 742 20G<527 527>
VStem: 40 102<89 130> 192 94<402.5 447.5> 192 187<324 447.5> 502 98<95 136.5> 543 106<522 554>
LayerCount: 2
Fore
SplineSet
649 574 m 0,0,1
 649 524 649 524 601.5 485 c 128,-1,2
 554 446 554 446 492.5 428 c 128,-1,3
 431 410 431 410 374 410 c 0,4,5
 359 410 359 410 352 411 c 1,6,-1
 352 445 l 1,7,8
 354 445 354 445 410 454.5 c 128,-1,9
 466 464 466 464 504.5 488 c 128,-1,10
 543 512 543 512 543 542 c 0,11,12
 543 578 543 578 489 578 c 0,13,14
 416 578 416 578 351 528 c 128,-1,15
 286 478 286 478 286 423 c 128,-1,16
 286 368 286 368 354 352 c 0,17,18
 369 348 369 348 374 344 c 128,-1,19
 379 340 379 340 379 330 c 128,-1,20
 379 320 379 320 369.5 313.5 c 128,-1,21
 360 307 360 307 326 295 c 0,22,23
 142 232 142 232 142 99 c 0,24,25
 142 72 142 72 152 53 c 1,26,27
 213 131 213 131 310 180 c 128,-1,28
 407 229 407 229 497 229 c 0,29,30
 544 229 544 229 572 208.5 c 128,-1,31
 600 188 600 188 600 152 c 0,32,33
 600 96 600 96 548 40 c 128,-1,34
 496 -16 496 -16 413.5 -51.5 c 128,-1,35
 331 -87 331 -87 249.5 -87 c 128,-1,36
 168 -87 168 -87 121 -57 c 1,37,38
 120 -58 120 -58 112.5 -72.5 c 0,39,40
 91.8556701031 -112.412371134 91.8556701031 -112.412371134 78 -128 c 1,41,-1
 45 -114 l 1,42,43
 52 -86 52 -86 86 -29 c 1,44,45
 40 23 40 23 40 87.5 c 128,-1,46
 40 152 40 152 92.5 210.5 c 128,-1,47
 145 269 145 269 239 307 c 1,48,49
 192 346 192 346 192 388 c 0,50,51
 192 445 192 445 252 504.5 c 128,-1,52
 312 564 312 564 398.5 601 c 128,-1,53
 485 638 485 638 561 638 c 0,54,55
 601 638 601 638 625 620.5 c 128,-1,56
 649 603 649 603 649 574 c 0,0,1
439 169 m 0,57,58
 380 169 380 169 301.5 124 c 128,-1,59
 223 79 223 79 174 17 c 1,60,61
 214 -28 214 -28 287.5 -28 c 128,-1,62
 361 -28 361 -28 431.5 19.5 c 128,-1,63
 502 67 502 67 502 122 c 0,64,65
 502 144 502 144 485 156.5 c 128,-1,66
 468 169 468 169 439 169 c 0,57,58
595 722 m 1,67,-1
 424 666 l 1,68,-1
 395 684 l 1,69,-1
 527 762 l 1,70,-1
 595 722 l 1,67,-1
EndSplineSet
EndChar

StartChar: Ebreve
Encoding: 276 276 25
Width: 659
Flags: HMW
HStem: -128 21G<63 63> -87 59<245 318.5> 169 60<422 443.5> 410 228<355 572.5> 578 60<469.5 492> 685 47<474.5 512.5 474.5 515.5> 763 20G<406 406>
VStem: 25 102<89 130> 177 94<402.5 447.5> 177 187<324 447.5> 487 98<95 136.5> 528 106<522 554>
LayerCount: 2
Fore
SplineSet
634 574 m 0,0,1
 634 524 634 524 586.5 485 c 128,-1,2
 539 446 539 446 477.5 428 c 128,-1,3
 416 410 416 410 359 410 c 0,4,5
 344 410 344 410 337 411 c 1,6,-1
 337 445 l 1,7,8
 339 445 339 445 395 454.5 c 128,-1,9
 451 464 451 464 489.5 488 c 128,-1,10
 528 512 528 512 528 542 c 0,11,12
 528 578 528 578 474 578 c 0,13,14
 401 578 401 578 336 528 c 128,-1,15
 271 478 271 478 271 423 c 128,-1,16
 271 368 271 368 339 352 c 0,17,18
 354 348 354 348 359 344 c 128,-1,19
 364 340 364 340 364 330 c 128,-1,20
 364 320 364 320 354.5 313.5 c 128,-1,21
 345 307 345 307 311 295 c 0,22,23
 127 232 127 232 127 99 c 0,24,25
 127 72 127 72 137 53 c 1,26,27
 198 131 198 131 295 180 c 128,-1,28
 392 229 392 229 482 229 c 0,29,30
 529 229 529 229 557 208.5 c 128,-1,31
 585 188 585 188 585 152 c 0,32,33
 585 96 585 96 533 40 c 128,-1,34
 481 -16 481 -16 398.5 -51.5 c 128,-1,35
 316 -87 316 -87 234 -87 c 128,-1,36
 152 -87 152 -87 106 -57 c 1,37,38
 105 -58 105 -58 97.5 -72.5 c 0,39,40
 76.8556701031 -112.412371134 76.8556701031 -112.412371134 63 -128 c 1,41,-1
 30 -114 l 1,42,43
 37 -86 37 -86 71 -29 c 1,44,45
 25 23 25 23 25 87.5 c 128,-1,46
 25 152 25 152 77.5 210.5 c 128,-1,47
 130 269 130 269 224 307 c 1,48,49
 177 346 177 346 177 388 c 0,50,51
 177 445 177 445 237 504.5 c 128,-1,52
 297 564 297 564 383.5 601 c 128,-1,53
 470 638 470 638 546 638 c 0,54,55
 586 638 586 638 610 620.5 c 128,-1,56
 634 603 634 603 634 574 c 0,0,1
424 169 m 0,57,58
 365 169 365 169 286.5 124 c 128,-1,59
 208 79 208 79 159 17 c 1,60,61
 199 -28 199 -28 272.5 -28 c 128,-1,62
 346 -28 346 -28 416.5 19.5 c 128,-1,63
 487 67 487 67 487 122 c 0,64,65
 487 144 487 144 470 156.5 c 128,-1,66
 453 169 453 169 424 169 c 0,57,58
578 780 m 1,67,-1
 608 764 l 1,68,69
 588 733 588 733 556.5 709 c 128,-1,70
 525 685 525 685 494 685 c 128,-1,71
 463 685 463 685 429 708.5 c 128,-1,72
 395 732 395 732 374 756 c 1,73,-1
 406 783 l 1,74,75
 458 732 458 732 491 732 c 0,76,77
 542 732 542 732 578 780 c 1,67,-1
EndSplineSet
EndChar

StartChar: Ecaron
Encoding: 282 282 26
Width: 689
Flags: HMW
HStem: -128 21G<78 78> -87 59<260 333.5> 169 60<437 458.5> 410 228<370 587.5> 578 60<484.5 507> 798 20G<391 391>
VStem: 40 102<89 130> 192 94<402.5 447.5> 192 187<324 447.5> 502 98<95 136.5> 543 106<522 554>
LayerCount: 2
Fore
SplineSet
649 574 m 0,0,1
 649 524 649 524 601.5 485 c 128,-1,2
 554 446 554 446 492.5 428 c 128,-1,3
 431 410 431 410 374 410 c 0,4,5
 359 410 359 410 352 411 c 1,6,-1
 352 445 l 1,7,8
 354 445 354 445 410 454.5 c 128,-1,9
 466 464 466 464 504.5 488 c 128,-1,10
 543 512 543 512 543 542 c 0,11,12
 543 578 543 578 489 578 c 0,13,14
 416 578 416 578 351 528 c 128,-1,15
 286 478 286 478 286 423 c 128,-1,16
 286 368 286 368 354 352 c 0,17,18
 369 348 369 348 374 344 c 128,-1,19
 379 340 379 340 379 330 c 128,-1,20
 379 320 379 320 369.5 313.5 c 128,-1,21
 360 307 360 307 326 295 c 0,22,23
 142 232 142 232 142 99 c 0,24,25
 142 72 142 72 152 53 c 1,26,27
 213 131 213 131 310 180 c 128,-1,28
 407 229 407 229 497 229 c 0,29,30
 544 229 544 229 572 208.5 c 128,-1,31
 600 188 600 188 600 152 c 0,32,33
 600 96 600 96 548 40 c 128,-1,34
 496 -16 496 -16 413.5 -51.5 c 128,-1,35
 331 -87 331 -87 249.5 -87 c 128,-1,36
 168 -87 168 -87 121 -57 c 1,37,38
 120 -58 120 -58 112.5 -72.5 c 0,39,40
 91.8556701031 -112.412371134 91.8556701031 -112.412371134 78 -128 c 1,41,-1
 45 -114 l 1,42,43
 52 -86 52 -86 86 -29 c 1,44,45
 40 23 40 23 40 87.5 c 128,-1,46
 40 152 40 152 92.5 210.5 c 128,-1,47
 145 269 145 269 239 307 c 1,48,49
 192 346 192 346 192 388 c 0,50,51
 192 445 192 445 252 504.5 c 128,-1,52
 312 564 312 564 398.5 601 c 128,-1,53
 485 638 485 638 561 638 c 0,54,55
 601 638 601 638 625 620.5 c 128,-1,56
 649 603 649 603 649 574 c 0,0,1
439 169 m 0,57,58
 380 169 380 169 301.5 124 c 128,-1,59
 223 79 223 79 174 17 c 1,60,61
 214 -28 214 -28 287.5 -28 c 128,-1,62
 361 -28 361 -28 431.5 19.5 c 128,-1,63
 502 67 502 67 502 122 c 0,64,65
 502 144 502 144 485 156.5 c 128,-1,66
 468 169 468 169 439 169 c 0,57,58
494 680 m 1,67,-1
 347 794 l 1,68,-1
 391 818 l 1,69,70
 446 776 446 776 490 748 c 1,71,72
 508 761 508 761 593 812 c 1,73,-1
 623 788 l 1,74,75
 607.571428571 770.857142857 607.571428571 770.857142857 521.5 702 c 2,76,-1
 494 680 l 1,67,-1
EndSplineSet
EndChar

StartChar: Edotaccent
Encoding: 278 278 27
Width: 659
Flags: HMW
HStem: -128 21G<63 63> -87 59<245 318.5> 169 60<422 443.5> 410 228<355 572.5> 578 60<469.5 492> 698 79<467 489>
VStem: 25 102<89 130> 177 94<402.5 447.5> 177 187<324 447.5> 439 79<726 748> 487 98<95 136.5> 528 106<522 554>
LayerCount: 2
Fore
SplineSet
634 574 m 0,0,1
 634 524 634 524 586.5 485 c 128,-1,2
 539 446 539 446 477.5 428 c 128,-1,3
 416 410 416 410 359 410 c 0,4,5
 344 410 344 410 337 411 c 1,6,-1
 337 445 l 1,7,8
 339 445 339 445 395 454.5 c 128,-1,9
 451 464 451 464 489.5 488 c 128,-1,10
 528 512 528 512 528 542 c 0,11,12
 528 578 528 578 474 578 c 0,13,14
 401 578 401 578 336 528 c 128,-1,15
 271 478 271 478 271 423 c 128,-1,16
 271 368 271 368 339 352 c 0,17,18
 354 348 354 348 359 344 c 128,-1,19
 364 340 364 340 364 330 c 128,-1,20
 364 320 364 320 354.5 313.5 c 128,-1,21
 345 307 345 307 311 295 c 0,22,23
 127 232 127 232 127 99 c 0,24,25
 127 72 127 72 137 53 c 1,26,27
 198 131 198 131 295 180 c 128,-1,28
 392 229 392 229 482 229 c 0,29,30
 529 229 529 229 557 208.5 c 128,-1,31
 585 188 585 188 585 152 c 0,32,33
 585 96 585 96 533 40 c 128,-1,34
 481 -16 481 -16 398.5 -51.5 c 128,-1,35
 316 -87 316 -87 234 -87 c 128,-1,36
 152 -87 152 -87 106 -57 c 1,37,38
 105 -58 105 -58 97.5 -72.5 c 0,39,40
 76.8556701031 -112.412371134 76.8556701031 -112.412371134 63 -128 c 1,41,-1
 30 -114 l 1,42,43
 37 -86 37 -86 71 -29 c 1,44,45
 25 23 25 23 25 87.5 c 128,-1,46
 25 152 25 152 77.5 210.5 c 128,-1,47
 130 269 130 269 224 307 c 1,48,49
 177 346 177 346 177 388 c 0,50,51
 177 445 177 445 237 504.5 c 128,-1,52
 297 564 297 564 383.5 601 c 128,-1,53
 470 638 470 638 546 638 c 0,54,55
 586 638 586 638 610 620.5 c 128,-1,56
 634 603 634 603 634 574 c 0,0,1
424 169 m 0,57,58
 365 169 365 169 286.5 124 c 128,-1,59
 208 79 208 79 159 17 c 1,60,61
 199 -28 199 -28 272.5 -28 c 128,-1,62
 346 -28 346 -28 416.5 19.5 c 128,-1,63
 487 67 487 67 487 122 c 0,64,65
 487 144 487 144 470 156.5 c 128,-1,66
 453 169 453 169 424 169 c 0,57,58
439 737 m 128,-1,68
 439 754 439 754 450.5 765.5 c 128,-1,69
 462 777 462 777 478 777 c 128,-1,70
 494 777 494 777 506 765.5 c 128,-1,71
 518 754 518 754 518 737.5 c 128,-1,72
 518 721 518 721 506.5 709.5 c 128,-1,73
 495 698 495 698 478.5 698 c 128,-1,74
 462 698 462 698 450.5 709 c 128,-1,67
 439 720 439 720 439 737 c 128,-1,68
EndSplineSet
EndChar

StartChar: Emacron
Encoding: 274 274 28
Width: 659
Flags: HMW
HStem: -128 21G<63 63> -87 59<245 318.5> 169 60<422 443.5> 410 228<355 572.5> 578 60<469.5 492> 716 39
VStem: 25 102<89 130> 177 94<402.5 447.5> 177 187<324 447.5> 487 98<95 136.5> 528 106<522 554>
LayerCount: 2
Fore
SplineSet
634 574 m 0,0,1
 634 524 634 524 586.5 485 c 128,-1,2
 539 446 539 446 477.5 428 c 128,-1,3
 416 410 416 410 359 410 c 0,4,5
 344 410 344 410 337 411 c 1,6,-1
 337 445 l 1,7,8
 339 445 339 445 395 454.5 c 128,-1,9
 451 464 451 464 489.5 488 c 128,-1,10
 528 512 528 512 528 542 c 0,11,12
 528 578 528 578 474 578 c 0,13,14
 401 578 401 578 336 528 c 128,-1,15
 271 478 271 478 271 423 c 128,-1,16
 271 368 271 368 339 352 c 0,17,18
 354 348 354 348 359 344 c 128,-1,19
 364 340 364 340 364 330 c 128,-1,20
 364 320 364 320 354.5 313.5 c 128,-1,21
 345 307 345 307 311 295 c 0,22,23
 127 232 127 232 127 99 c 0,24,25
 127 72 127 72 137 53 c 1,26,27
 198 131 198 131 295 180 c 128,-1,28
 392 229 392 229 482 229 c 0,29,30
 529 229 529 229 557 208.5 c 128,-1,31
 585 188 585 188 585 152 c 0,32,33
 585 96 585 96 533 40 c 128,-1,34
 481 -16 481 -16 398.5 -51.5 c 128,-1,35
 316 -87 316 -87 234 -87 c 128,-1,36
 152 -87 152 -87 106 -57 c 1,37,38
 105 -58 105 -58 97.5 -72.5 c 0,39,40
 76.8556701031 -112.412371134 76.8556701031 -112.412371134 63 -128 c 1,41,-1
 30 -114 l 1,42,43
 37 -86 37 -86 71 -29 c 1,44,45
 25 23 25 23 25 87.5 c 128,-1,46
 25 152 25 152 77.5 210.5 c 128,-1,47
 130 269 130 269 224 307 c 1,48,49
 177 346 177 346 177 388 c 0,50,51
 177 445 177 445 237 504.5 c 128,-1,52
 297 564 297 564 383.5 601 c 128,-1,53
 470 638 470 638 546 638 c 0,54,55
 586 638 586 638 610 620.5 c 128,-1,56
 634 603 634 603 634 574 c 0,0,1
424 169 m 0,57,58
 365 169 365 169 286.5 124 c 128,-1,59
 208 79 208 79 159 17 c 1,60,61
 199 -28 199 -28 272.5 -28 c 128,-1,62
 346 -28 346 -28 416.5 19.5 c 128,-1,63
 487 67 487 67 487 122 c 0,64,65
 487 144 487 144 470 156.5 c 128,-1,66
 453 169 453 169 424 169 c 0,57,58
563 755 m 1,67,-1
 563 719 l 1,68,-1
 386 713 l 1,69,-1
 377 744 l 1,70,71
 410 751 410 751 563 755 c 1,67,-1
EndSplineSet
EndChar

StartChar: Eogonek
Encoding: 280 280 29
Width: 689
Flags: HMW
HStem: -220 77<50 133.5> -87 59<260 333.5> 169 60<437 458.5> 410 228<370 587.5> 578 60<484.5 507>
VStem: 40 102<89 130> 192 94<402.5 447.5> 192 187<324 447.5> 502 98<95 136.5> 543 106<522 554>
LayerCount: 2
Fore
SplineSet
220 -102 m 1,0,-1
 240 -118 l 1,1,2
 210 -158 210 -158 157.5 -189 c 128,-1,3
 105 -220 105 -220 73.5 -220 c 0,4,5
 42 -220 42 -220 25.5 -206.5 c 128,-1,6
 9 -193 9 -193 9 -174 c 0,7,8
 9 -108 9 -108 84 -27 c 1,9,10
 40 23 40 23 40 87.5 c 0,11,12
 40 152 40 152 92.5 210.5 c 128,-1,13
 145 269 145 269 239 307 c 1,14,15
 192 346 192 346 192 388 c 0,16,17
 192 445 192 445 252 504.5 c 128,-1,18
 312 564 312 564 398.5 601 c 128,-1,19
 485 638 485 638 561 638 c 0,20,21
 601 638 601 638 625 620.5 c 128,-1,22
 649 603 649 603 649 574 c 0,23,24
 649 524 649 524 601.5 485 c 128,-1,25
 554 446 554 446 492.5 428 c 128,-1,26
 431 410 431 410 374 410 c 0,27,28
 359 410 359 410 352 411 c 1,29,-1
 352 445 l 1,30,31
 354 445 354 445 410 454.5 c 0,32,33
 466 464 466 464 504.5 488 c 128,-1,34
 543 512 543 512 543 542 c 0,35,36
 543 578 543 578 489 578 c 0,37,38
 416 578 416 578 351 528 c 128,-1,39
 286 478 286 478 286 423 c 0,40,41
 286 368 286 368 354 352 c 0,42,43
 369 348 369 348 374 344 c 128,-1,44
 379 340 379 340 379 330 c 0,45,46
 379 320 379 320 369.5 313.5 c 128,-1,47
 360 307 360 307 326 295 c 0,48,49
 142 232 142 232 142 99 c 0,50,51
 142 72 142 72 152 53 c 1,52,53
 213 131 213 131 310 180 c 128,-1,54
 407 229 407 229 497 229 c 0,55,56
 544 229 544 229 572 208.5 c 128,-1,57
 600 188 600 188 600 152 c 0,58,59
 600 96 600 96 548 40 c 128,-1,60
 496 -16 496 -16 413.5 -51.5 c 128,-1,61
 331 -87 331 -87 249.5 -87 c 0,62,63
 168 -87 168 -87 121 -57 c 1,64,-1
 104 -88 l 2,65,66
 95 -105 95 -105 95 -116 c 0,67,68
 95 -127 95 -127 102 -135 c 128,-1,69
 109 -143 109 -143 125 -143 c 0,70,71
 161 -143 161 -143 220 -102 c 1,0,-1
439 169 m 0,72,73
 380 169 380 169 301.5 124 c 128,-1,74
 223 79 223 79 174 17 c 1,75,76
 214 -28 214 -28 287.5 -28 c 0,77,78
 361 -28 361 -28 431.5 19.5 c 128,-1,79
 502 67 502 67 502 122 c 0,80,81
 502 144 502 144 485 156.5 c 128,-1,82
 468 169 468 169 439 169 c 0,72,73
EndSplineSet
EndChar

StartChar: F
Encoding: 70 70 30
Width: 763
Flags: HMW
HStem: -120 72<180.5 227.5 180.5 245.5> 250 49 336 64<285.5 305.5> 549 65 549 72<396.5 450> 611 20G<803 820>
VStem: 30 97<2.5 75.5 2.5 88> 182 56<439 477.5>
LayerCount: 2
Fore
SplineSet
494 621 m 1,0,-1
 731 614 l 2,1,2
 749 614 749 614 776.5 622.5 c 128,-1,3
 804 631 804 631 813 631 c 128,-1,4
 822 631 822 631 827.5 625.5 c 128,-1,5
 833 620 833 620 833 612 c 0,6,7
 833 591 833 591 814 576.5 c 128,-1,8
 795 562 795 562 764.5 555.5 c 0,9,10
 705.846153846 543 705.846153846 543 661 543 c 1,11,12
 600 501 600 501 542 301 c 1,13,14
 641 301 641 301 665 298 c 1,15,-1
 663 251 l 1,16,17
 648 250 648 250 618 250 c 2,18,-1
 527 253 l 1,19,20
 471 82 471 82 376 -19 c 128,-1,21
 281 -120 281 -120 175 -120 c 0,22,23
 110 -120 110 -120 70 -81 c 128,-1,24
 30 -42 30 -42 30 22 c 0,25,26
 30 125 30 125 153 209.5 c 128,-1,27
 276 294 276 294 456 299 c 1,28,29
 517 491 517 491 599 543 c 1,30,-1
 438 549 l 1,31,32
 337 549 337 549 287.5 523 c 128,-1,33
 238 497 238 497 238 454 c 0,34,35
 238 431 238 431 257 415.5 c 128,-1,36
 276 400 276 400 295 400 c 128,-1,37
 314 400 314 400 323.5 401.5 c 128,-1,38
 333 403 333 403 347.5 408.5 c 128,-1,39
 362 414 362 414 368 416 c 0,40,41
 389 423 389 423 419 438 c 1,42,-1
 440 412 l 1,43,44
 364 336 364 336 274 336 c 0,45,46
 234 336 234 336 208 361 c 128,-1,47
 182 386 182 386 182 424 c 0,48,49
 182 507 182 507 267 564 c 128,-1,50
 352 621 352 621 494 621 c 1,0,-1
354 62 m 0,51,52
 408 146 408 146 440 250 c 1,53,54
 316 240 316 240 221.5 171 c 128,-1,55
 127 102 127 102 127 23 c 0,56,57
 127 -8 127 -8 148.5 -28 c 128,-1,58
 170 -48 170 -48 205 -48 c 128,-1,59
 240 -48 240 -48 281 -18.5 c 128,-1,60
 322 11 322 11 354 62 c 0,51,52
EndSplineSet
EndChar

StartChar: G
Encoding: 71 71 31
Width: 679
Flags: HMW
HStem: -311 68<75.5 129> -22 42<247 321.5 201.5 337> 57 69<257 267.5> 580 58<374.5 472.5>
VStem: -90 105<-198 -140> 74 90<221.5 330>
LayerCount: 2
Fore
SplineSet
525 -8 m 1,0,-1
 510 -42 l 1,1,2
 412 -25 412 -25 397 -24 c 1,3,4
 348 -157 348 -157 257 -234 c 128,-1,5
 166 -311 166 -311 53 -311 c 0,6,7
 -8 -311 -8 -311 -49 -278 c 128,-1,8
 -90 -245 -90 -245 -90 -196 c 0,9,10
 -90 -110 -90 -110 28.5 -45 c 128,-1,11
 147 20 147 20 316 20 c 0,12,13
 339 20 339 20 351 19 c 1,14,15
 369 57 369 57 380 100 c 1,16,17
 316 57 316 57 243.5 57 c 128,-1,18
 171 57 171 57 122.5 108.5 c 128,-1,19
 74 160 74 160 74 244.5 c 128,-1,20
 74 329 74 329 130.5 422.5 c 128,-1,21
 187 516 187 516 279.5 577 c 128,-1,22
 372 638 372 638 468 638 c 0,23,24
 524 638 524 638 574 618.5 c 128,-1,25
 624 599 624 599 649 572 c 1,26,-1
 595 507 l 1,27,28
 554 539 554 539 537 550.5 c 0,29,30
 493.391304348 580 493.391304348 580 443 580 c 0,31,32
 340 580 340 580 252 480.5 c 128,-1,33
 164 381 164 381 164 264 c 0,34,35
 164 200 164 200 200 163 c 128,-1,36
 236 126 236 126 294.5 126 c 128,-1,37
 353 126 353 126 400 154 c 1,38,39
 458 307 458 307 508 307 c 0,40,41
 537 307 537 307 537 279 c 128,-1,42
 537 251 537 251 515.5 214.5 c 128,-1,43
 494 178 494 178 460 149 c 1,44,45
 419 39 419 39 412 17 c 1,46,47
 482 9 482 9 525 -8 c 1,0,-1
102 -243 m 0,48,49
 170 -243 170 -243 236.5 -180 c 128,-1,50
 303 -117 303 -117 337 -22 c 1,51,52
 202 -22 202 -22 108.5 -67.5 c 128,-1,53
 15 -113 15 -113 15 -178 c 0,54,55
 15 -208 15 -208 38.5 -225.5 c 128,-1,56
 62 -243 62 -243 102 -243 c 0,48,49
EndSplineSet
EndChar

StartChar: Gbreve
Encoding: 286 286 32
Width: 699
Flags: HMW
HStem: -311 68<85.5 139> -22 42<257 331.5 211.5 347> 57 69<267 277.5> 580 58<384.5 482.5> 692 47<442.5 480.5 442.5 483.5> 770 20G<374 374>
VStem: -80 105<-198 -140> 84 90<221.5 330>
LayerCount: 2
Fore
SplineSet
535 -8 m 1,0,-1
 520 -42 l 1,1,2
 422 -25 422 -25 407 -24 c 1,3,4
 358 -157 358 -157 267 -234 c 128,-1,5
 176 -311 176 -311 63 -311 c 0,6,7
 2 -311 2 -311 -39 -278 c 128,-1,8
 -80 -245 -80 -245 -80 -196 c 0,9,10
 -80 -110 -80 -110 38.5 -45 c 128,-1,11
 157 20 157 20 326 20 c 0,12,13
 349 20 349 20 361 19 c 1,14,15
 379 57 379 57 390 100 c 1,16,17
 326 57 326 57 253.5 57 c 128,-1,18
 181 57 181 57 132.5 108.5 c 128,-1,19
 84 160 84 160 84 244.5 c 128,-1,20
 84 329 84 329 140.5 422.5 c 128,-1,21
 197 516 197 516 289.5 577 c 128,-1,22
 382 638 382 638 478 638 c 0,23,24
 534 638 534 638 584 618.5 c 128,-1,25
 634 599 634 599 659 572 c 1,26,-1
 605 507 l 1,27,28
 564 539 564 539 547 550.5 c 0,29,30
 503.391304348 580 503.391304348 580 453 580 c 0,31,32
 350 580 350 580 262 480.5 c 128,-1,33
 174 381 174 381 174 264 c 0,34,35
 174 200 174 200 210 163 c 128,-1,36
 246 126 246 126 304.5 126 c 128,-1,37
 363 126 363 126 410 154 c 1,38,39
 468 307 468 307 518 307 c 0,40,41
 547 307 547 307 547 279 c 128,-1,42
 547 251 547 251 525.5 214.5 c 128,-1,43
 504 178 504 178 470 149 c 1,44,45
 429 39 429 39 422 17 c 1,46,47
 492 9 492 9 535 -8 c 1,0,-1
112 -243 m 0,48,49
 180 -243 180 -243 246.5 -180 c 128,-1,50
 313 -117 313 -117 347 -22 c 1,51,52
 212 -22 212 -22 118.5 -67.5 c 128,-1,53
 25 -113 25 -113 25 -178 c 0,54,55
 25 -208 25 -208 48.5 -225.5 c 128,-1,56
 72 -243 72 -243 112 -243 c 0,48,49
546 787 m 1,57,-1
 576 771 l 1,58,59
 556 740 556 740 524.5 716 c 128,-1,60
 493 692 493 692 462 692 c 128,-1,61
 431 692 431 692 397 715.5 c 128,-1,62
 363 739 363 739 342 763 c 1,63,-1
 374 790 l 1,64,65
 426 739 426 739 459 739 c 0,66,67
 510 739 510 739 546 787 c 1,57,-1
EndSplineSet
EndChar

StartChar: Gcircumflex
Encoding: 284 284 33
Width: 669
Flags: HMW
HStem: -311 68<70.5 124> -22 42<242 316.5 196.5 332> 57 69<252 262.5> 580 58<369.5 467.5> 804 20G<422 422>
VStem: -95 105<-198 -140> 69 90<221.5 330>
LayerCount: 2
Fore
SplineSet
520 -8 m 1,0,-1
 505 -42 l 1,1,2
 407 -25 407 -25 392 -24 c 1,3,4
 343 -157 343 -157 252 -234 c 128,-1,5
 161 -311 161 -311 48 -311 c 0,6,7
 -13 -311 -13 -311 -54 -278 c 128,-1,8
 -95 -245 -95 -245 -95 -196 c 0,9,10
 -95 -110 -95 -110 23.5 -45 c 128,-1,11
 142 20 142 20 311 20 c 0,12,13
 334 20 334 20 346 19 c 1,14,15
 364 57 364 57 375 100 c 1,16,17
 310 57 310 57 238 57 c 128,-1,18
 166 57 166 57 117.5 108.5 c 128,-1,19
 69 160 69 160 69 244.5 c 128,-1,20
 69 329 69 329 125.5 422.5 c 128,-1,21
 182 516 182 516 274.5 577 c 128,-1,22
 367 638 367 638 463 638 c 0,23,24
 519 638 519 638 569 618.5 c 128,-1,25
 619 599 619 599 644 572 c 1,26,-1
 590 507 l 1,27,28
 549 539 549 539 532 550.5 c 0,29,30
 488.391304348 580 488.391304348 580 438 580 c 0,31,32
 335 580 335 580 247 480.5 c 128,-1,33
 159 381 159 381 159 264 c 0,34,35
 159 200 159 200 195 163 c 128,-1,36
 231 126 231 126 289.5 126 c 128,-1,37
 348 126 348 126 395 154 c 1,38,39
 453 307 453 307 503 307 c 0,40,41
 532 307 532 307 532 279 c 128,-1,42
 532 251 532 251 510.5 214.5 c 128,-1,43
 489 178 489 178 455 149 c 1,44,45
 414 39 414 39 407 17 c 1,46,47
 477 9 477 9 520 -8 c 1,0,-1
97 -243 m 0,48,49
 165 -243 165 -243 231.5 -180 c 128,-1,50
 298 -117 298 -117 332 -22 c 1,51,52
 197 -22 197 -22 103.5 -67.5 c 128,-1,53
 10 -113 10 -113 10 -178 c 0,54,55
 10 -208 10 -208 33.5 -225.5 c 128,-1,56
 57 -243 57 -243 97 -243 c 0,48,49
275 710 m 1,57,-1
 422 824 l 1,58,59
 530 738 530 738 551 716 c 1,60,-1
 521 692 l 1,61,62
 436 743 436 743 418 756 c 1,63,-1
 319 686 l 1,64,-1
 275 710 l 1,57,-1
EndSplineSet
EndChar

StartChar: Gdotaccent
Encoding: 288 288 34
Width: 669
Flags: HMW
HStem: -311 68<70.5 124> -22 42<242 316.5 196.5 332> 57 69<252 262.5> 580 58<369.5 467.5> 697 79<412 434>
VStem: -95 105<-198 -140> 69 90<221.5 330> 384 79<725 747>
LayerCount: 2
Fore
SplineSet
520 -8 m 1,0,-1
 505 -42 l 1,1,2
 407 -25 407 -25 392 -24 c 1,3,4
 343 -157 343 -157 252 -234 c 128,-1,5
 161 -311 161 -311 48 -311 c 0,6,7
 -13 -311 -13 -311 -54 -278 c 128,-1,8
 -95 -245 -95 -245 -95 -196 c 0,9,10
 -95 -110 -95 -110 23.5 -45 c 128,-1,11
 142 20 142 20 311 20 c 0,12,13
 334 20 334 20 346 19 c 1,14,15
 364 57 364 57 375 100 c 1,16,17
 310 57 310 57 238 57 c 128,-1,18
 166 57 166 57 117.5 108.5 c 128,-1,19
 69 160 69 160 69 244.5 c 128,-1,20
 69 329 69 329 125.5 422.5 c 128,-1,21
 182 516 182 516 274.5 577 c 128,-1,22
 367 638 367 638 463 638 c 0,23,24
 519 638 519 638 569 618.5 c 128,-1,25
 619 599 619 599 644 572 c 1,26,-1
 590 507 l 1,27,28
 549 539 549 539 532 550.5 c 0,29,30
 488.391304348 580 488.391304348 580 438 580 c 0,31,32
 335 580 335 580 247 480.5 c 128,-1,33
 159 381 159 381 159 264 c 0,34,35
 159 200 159 200 195 163 c 128,-1,36
 231 126 231 126 289.5 126 c 128,-1,37
 348 126 348 126 395 154 c 1,38,39
 453 307 453 307 503 307 c 0,40,41
 532 307 532 307 532 279 c 128,-1,42
 532 251 532 251 510.5 214.5 c 128,-1,43
 489 178 489 178 455 149 c 1,44,45
 414 39 414 39 407 17 c 1,46,47
 477 9 477 9 520 -8 c 1,0,-1
97 -243 m 0,48,49
 165 -243 165 -243 231.5 -180 c 128,-1,50
 298 -117 298 -117 332 -22 c 1,51,52
 197 -22 197 -22 103.5 -67.5 c 128,-1,53
 10 -113 10 -113 10 -178 c 0,54,55
 10 -208 10 -208 33.5 -225.5 c 128,-1,56
 57 -243 57 -243 97 -243 c 0,48,49
395 708.5 m 128,-1,58
 384 720 384 720 384 736.5 c 128,-1,59
 384 753 384 753 395.5 764.5 c 128,-1,60
 407 776 407 776 423.5 776 c 128,-1,61
 440 776 440 776 451.5 764 c 128,-1,62
 463 752 463 752 463 736 c 128,-1,63
 463 720 463 720 451.5 708.5 c 128,-1,64
 440 697 440 697 423 697 c 128,-1,57
 406 697 406 697 395 708.5 c 128,-1,58
EndSplineSet
EndChar

StartChar: H
Encoding: 72 72 35
Width: 825
Flags: HMW
HStem: -147 69<-24.5 104> 0 21G<542 598 542 542> 549 77 617 20G<750 750>
VStem: -90 103<-37.5 5.5> 118 84<379 429 365.5 466.5>
LayerCount: 2
Fore
SplineSet
750 637 m 1,0,-1
 795 615 l 1,1,2
 728 484 728 484 656 278 c 1,3,4
 702 278 702 278 719 274 c 1,5,-1
 715 217 l 1,6,7
 694 210 694 210 633 210 c 1,8,9
 611.804878049 152.195121951 611.804878049 152.195121951 607.902439024 116.097560976 c 128,-1,10
 604 80 604 80 601.5 46 c 128,-1,11
 599 12 599 12 598 0 c 1,12,-1
 542 0 l 1,13,14
 537 17 537 17 537 35 c 0,15,16
 537 97 537 97 570 210 c 1,17,18
 510 210 510 210 388 196 c 1,19,20
 383.415730337 179.95505618 383.415730337 179.95505618 363.207865169 136.47752809 c 128,-1,21
 343 93 343 93 323.5 61 c 128,-1,22
 304 29 304 29 271 -9 c 128,-1,23
 238 -47 238 -47 202 -73 c 0,24,25
 99 -147 99 -147 2 -147 c 0,26,27
 -38 -147 -38 -147 -64 -122 c 128,-1,28
 -90 -97 -90 -97 -90 -59 c 0,29,30
 -90 37 -90 37 20.5 115.5 c 128,-1,31
 131 194 131 194 327 241 c 1,32,33
 401 457 401 457 535 549 c 1,34,35
 390 547 390 547 296 500 c 128,-1,36
 202 453 202 453 202 380 c 0,37,38
 202 357 202 357 209 340.5 c 128,-1,39
 216 324 216 324 242 289 c 1,40,-1
 208 257 l 1,41,42
 164 285 164 285 141 325 c 128,-1,43
 118 365 118 365 118 402 c 0,44,45
 118 464 118 464 184 516.5 c 128,-1,46
 250 569 250 569 348 597.5 c 128,-1,47
 446 626 446 626 547 626 c 0,48,49
 598 626 598 626 617.5 618.5 c 128,-1,50
 637 611 637 611 637 590.5 c 128,-1,51
 637 570 637 570 608 552 c 0,52,53
 483 474 483 474 407 256 c 1,54,55
 466 266 466 266 590 278 c 1,56,57
 638 418 638 418 667.5 485.5 c 128,-1,58
 697 553 697 553 750 637 c 1,0,-1
168.5 -45.5 m 128,-1,60
 218 -13 218 -13 251.5 39.5 c 128,-1,61
 285 92 285 92 309 184 c 1,62,63
 176 162 176 162 94.5 106.5 c 128,-1,64
 13 51 13 51 13 -19 c 0,65,66
 13 -47 13 -47 29.5 -62.5 c 128,-1,67
 46 -78 46 -78 82.5 -78 c 128,-1,59
 119 -78 119 -78 168.5 -45.5 c 128,-1,60
EndSplineSet
EndChar

StartChar: Hbar
Encoding: 294 294 36
Width: 815
Flags: HMW
HStem: -147 69<-29.5 99> 0 21G<537 593 537 537> 210 226 549 77 617 20G<745 745>
VStem: -95 103<-37.5 5.5> 113 84<379 429 365.5 466.5>
LayerCount: 2
Fore
SplineSet
785 441 m 1,0,-1
 785 394 l 1,1,-1
 691 387 l 1,2,3
 673 342 673 342 651 278 c 1,4,5
 697 278 697 278 714 274 c 1,6,-1
 710 217 l 1,7,8
 689 210 689 210 628 210 c 1,9,10
 606.804878049 152.195121951 606.804878049 152.195121951 602.902439024 116.097560976 c 128,-1,11
 599 80 599 80 596.5 46 c 128,-1,12
 594 12 594 12 593 0 c 1,13,-1
 537 0 l 1,14,15
 532 17 532 17 532 35 c 0,16,17
 532 97 532 97 565 210 c 1,18,19
 505 210 505 210 383 196 c 1,20,21
 378.415730337 179.95505618 378.415730337 179.95505618 358.207865169 136.47752809 c 128,-1,22
 338 93 338 93 318.5 61 c 128,-1,23
 299 29 299 29 266 -9 c 128,-1,24
 233 -47 233 -47 197 -73 c 0,25,26
 94 -147 94 -147 -3 -147 c 0,27,28
 -43 -147 -43 -147 -69 -122 c 128,-1,29
 -95 -97 -95 -97 -95 -59 c 0,30,31
 -95 37 -95 37 15.5 115.5 c 128,-1,32
 126 194 126 194 322 241 c 1,33,34
 347 313 347 313 372 360 c 1,35,-1
 294 348 l 1,36,-1
 276 383 l 1,37,38
 294 387 294 387 337 397.5 c 128,-1,39
 380 408 380 408 400 411 c 1,40,41
 456 499 456 499 530 549 c 1,42,43
 385 547 385 547 291 500 c 128,-1,44
 197 453 197 453 197 380 c 0,45,46
 197 357 197 357 204 340.5 c 128,-1,47
 211 324 211 324 237 289 c 1,48,-1
 203 257 l 1,49,50
 159 285 159 285 136 325 c 128,-1,51
 113 365 113 365 113 402 c 0,52,53
 113 464 113 464 179 516.5 c 128,-1,54
 245 569 245 569 343 597.5 c 128,-1,55
 441 626 441 626 542 626 c 0,56,57
 593 626 593 626 612.5 618.5 c 128,-1,58
 632 611 632 611 632 590.5 c 128,-1,59
 632 570 632 570 603 552 c 0,60,61
 533 508 533 508 479 422 c 1,62,63
 561 433 561 433 642 436 c 1,64,65
 682 537 682 537 745 637 c 1,66,-1
 790 615 l 1,67,68
 752 540 752 540 711 439 c 1,69,70
 741 441 741 441 785 441 c 1,0,-1
163.5 -45.5 m 128,-1,72
 213 -13 213 -13 246.5 39.5 c 128,-1,73
 280 92 280 92 304 184 c 1,74,75
 171 162 171 162 89.5 106.5 c 128,-1,76
 8 51 8 51 8 -19 c 0,77,78
 8 -47 8 -47 24.5 -62.5 c 128,-1,79
 41 -78 41 -78 77.5 -78 c 128,-1,71
 114 -78 114 -78 163.5 -45.5 c 128,-1,72
585 278 m 1,80,81
 603 331 603 331 621 381 c 1,82,-1
 448 366 l 1,83,84
 423 316 423 316 402 256 c 1,85,86
 461 266 461 266 585 278 c 1,80,81
EndSplineSet
EndChar

StartChar: Hcircumflex
Encoding: 292 292 37
Width: 815
Flags: HMW
HStem: -147 69<-19.5 109> 0 21G<547 603 547 547> 549 77 797 20G<605 605>
VStem: -85 103<-37.5 5.5> 123 84<379 429 365.5 466.5>
LayerCount: 2
Fore
SplineSet
755 637 m 1,0,-1
 800 615 l 1,1,2
 733 484 733 484 661 278 c 1,3,4
 707 278 707 278 724 274 c 1,5,-1
 720 217 l 1,6,7
 699 210 699 210 638 210 c 1,8,9
 616.804878049 152.195121951 616.804878049 152.195121951 612.902439024 116.097560976 c 128,-1,10
 609 80 609 80 606.5 46 c 128,-1,11
 604 12 604 12 603 0 c 1,12,-1
 547 0 l 1,13,14
 542 17 542 17 542 35 c 0,15,16
 542 97 542 97 575 210 c 1,17,18
 515 210 515 210 393 196 c 1,19,20
 388.415730337 179.95505618 388.415730337 179.95505618 368.207865169 136.47752809 c 128,-1,21
 348 93 348 93 328.5 61 c 128,-1,22
 309 29 309 29 276 -9 c 128,-1,23
 243 -47 243 -47 207 -73 c 0,24,25
 104 -147 104 -147 7 -147 c 0,26,27
 -33 -147 -33 -147 -59 -122 c 128,-1,28
 -85 -97 -85 -97 -85 -59 c 0,29,30
 -85 37 -85 37 25.5 115.5 c 128,-1,31
 136 194 136 194 332 241 c 1,32,33
 406 457 406 457 540 549 c 1,34,35
 395 547 395 547 301 500 c 128,-1,36
 207 453 207 453 207 380 c 0,37,38
 207 357 207 357 214 340.5 c 128,-1,39
 221 324 221 324 247 289 c 1,40,-1
 213 257 l 1,41,42
 169 285 169 285 146 325 c 128,-1,43
 123 365 123 365 123 402 c 0,44,45
 123 464 123 464 189 516.5 c 128,-1,46
 255 569 255 569 353 597.5 c 128,-1,47
 451 626 451 626 552 626 c 0,48,49
 603 626 603 626 622.5 618.5 c 128,-1,50
 642 611 642 611 642 590.5 c 128,-1,51
 642 570 642 570 613 552 c 0,52,53
 488 474 488 474 412 256 c 1,54,55
 471 266 471 266 595 278 c 1,56,57
 643 418 643 418 672.5 485.5 c 128,-1,58
 702 553 702 553 755 637 c 1,0,-1
173.5 -45.5 m 128,-1,60
 223 -13 223 -13 256.5 39.5 c 128,-1,61
 290 92 290 92 314 184 c 1,62,63
 181 162 181 162 99.5 106.5 c 128,-1,64
 18 51 18 51 18 -19 c 0,65,66
 18 -47 18 -47 34.5 -62.5 c 128,-1,67
 51 -78 51 -78 87.5 -78 c 128,-1,59
 124 -78 124 -78 173.5 -45.5 c 128,-1,60
458 703 m 1,68,-1
 605 817 l 1,69,70
 713 731 713 731 734 709 c 1,71,-1
 704 685 l 1,72,73
 619 736 619 736 601 749 c 1,74,-1
 502 679 l 1,75,-1
 458 703 l 1,68,-1
EndSplineSet
EndChar

StartChar: I
Encoding: 73 73 38
Width: 586
Flags: HMW
HStem: 3 50<176 207> 541 78<465.5 479>
VStem: 30 102<101 153.5 101 154> 163 64<453.5 475 433 528>
LayerCount: 2
Fore
SplineSet
589 616 m 1,0,1
 606 611 606 611 606 598 c 0,2,3
 606 594 606 594 594.5 579.5 c 0,4,5
 548.04 520.92 548.04 520.92 529.52 491.96 c 128,-1,6
 511 463 511 463 485.5 395 c 128,-1,7
 460 327 460 327 439.5 264.5 c 128,-1,8
 419 202 419 202 419 201 c 0,9,10
 378 109 378 109 306 56 c 128,-1,11
 234 3 234 3 155 3 c 0,12,13
 99 3 99 3 64.5 30.5 c 128,-1,14
 30 58 30 58 30 104 c 0,15,16
 30 176 30 176 123 236 c 128,-1,17
 216 296 216 296 309 296 c 1,18,-1
 313 263 l 1,19,20
 239 248 239 248 185.5 208 c 128,-1,21
 132 168 132 168 132 121 c 0,22,23
 132 91 132 91 149.5 72 c 128,-1,24
 167 53 167 53 194 53 c 0,25,26
 245 53 245 53 282 100.5 c 128,-1,27
 319 148 319 148 357.5 269 c 128,-1,28
 396 390 396 390 427.5 446 c 128,-1,29
 459 502 459 502 507 540 c 1,30,31
 493 541 493 541 476 541 c 0,32,33
 390 541 390 541 308.5 514 c 128,-1,34
 227 487 227 487 227 442 c 0,35,36
 227 414 227 414 252 389 c 1,37,-1
 230 362 l 1,38,39
 163 409 163 409 163 471 c 0,40,41
 163 512 163 512 198.5 542 c 128,-1,42
 234 572 234 572 293.5 588 c 0,43,44
 408.78125 619 408.78125 619 552 619 c 0,45,46
 583 619 583 619 589 616 c 1,0,1
EndSplineSet
EndChar

StartChar: Ibreve
Encoding: 300 300 39
Width: 576
Flags: HMW
HStem: 3 50<171 202> 541 78<460.5 474> 691 47<425.5 463.5 425.5 466.5> 769 20G<357 357>
VStem: 25 102<101 153.5 101 154> 158 64<453.5 475 433 528>
LayerCount: 2
Fore
SplineSet
584 616 m 1,0,1
 601 611 601 611 601 598 c 0,2,3
 601 594 601 594 589.5 579.5 c 0,4,5
 543.04 520.92 543.04 520.92 524.52 491.96 c 128,-1,6
 506 463 506 463 480.5 395 c 128,-1,7
 455 327 455 327 434.5 264.5 c 128,-1,8
 414 202 414 202 414 201 c 0,9,10
 373 109 373 109 301 56 c 128,-1,11
 229 3 229 3 150 3 c 0,12,13
 94 3 94 3 59.5 30.5 c 128,-1,14
 25 58 25 58 25 104 c 0,15,16
 25 176 25 176 118 236 c 128,-1,17
 211 296 211 296 304 296 c 1,18,-1
 308 263 l 1,19,20
 234 248 234 248 180.5 208 c 128,-1,21
 127 168 127 168 127 121 c 0,22,23
 127 91 127 91 144.5 72 c 128,-1,24
 162 53 162 53 189 53 c 0,25,26
 240 53 240 53 277 100.5 c 128,-1,27
 314 148 314 148 352.5 269 c 128,-1,28
 391 390 391 390 422.5 446 c 128,-1,29
 454 502 454 502 502 540 c 1,30,31
 488 541 488 541 471 541 c 0,32,33
 385 541 385 541 303.5 514 c 128,-1,34
 222 487 222 487 222 442 c 0,35,36
 222 414 222 414 247 389 c 1,37,-1
 225 362 l 1,38,39
 158 409 158 409 158 471 c 0,40,41
 158 512 158 512 193.5 542 c 128,-1,42
 229 572 229 572 288.5 588 c 0,43,44
 403.78125 619 403.78125 619 547 619 c 0,45,46
 578 619 578 619 584 616 c 1,0,1
529 786 m 1,47,-1
 559 770 l 1,48,49
 539 739 539 739 507.5 715 c 128,-1,50
 476 691 476 691 445 691 c 128,-1,51
 414 691 414 691 380 714.5 c 128,-1,52
 346 738 346 738 325 762 c 1,53,-1
 357 789 l 1,54,55
 409 738 409 738 442 738 c 0,56,57
 493 738 493 738 529 786 c 1,47,-1
EndSplineSet
EndChar

StartChar: Idotaccent
Encoding: 304 304 40
Width: 606
Flags: HMW
HStem: 3 50<186 217> 541 78<475.5 489> 694 79<445 467>
VStem: 40 102<101 153.5 101 154> 173 64<453.5 475 433 528> 417 79<722 744>
LayerCount: 2
Fore
SplineSet
599 616 m 1,0,1
 616 611 616 611 616 598 c 0,2,3
 616 594 616 594 604.5 579.5 c 0,4,5
 558.04 520.92 558.04 520.92 539.52 491.96 c 128,-1,6
 521 463 521 463 495.5 395 c 128,-1,7
 470 327 470 327 449.5 264.5 c 128,-1,8
 429 202 429 202 429 201 c 0,9,10
 388 109 388 109 316 56 c 128,-1,11
 244 3 244 3 165 3 c 0,12,13
 109 3 109 3 74.5 30.5 c 128,-1,14
 40 58 40 58 40 104 c 0,15,16
 40 176 40 176 133 236 c 128,-1,17
 226 296 226 296 319 296 c 1,18,-1
 323 263 l 1,19,20
 249 248 249 248 195.5 208 c 128,-1,21
 142 168 142 168 142 121 c 0,22,23
 142 91 142 91 159.5 72 c 128,-1,24
 177 53 177 53 204 53 c 0,25,26
 255 53 255 53 292 100.5 c 128,-1,27
 329 148 329 148 367.5 269 c 128,-1,28
 406 390 406 390 437.5 446 c 128,-1,29
 469 502 469 502 517 540 c 1,30,31
 503 541 503 541 486 541 c 0,32,33
 400 541 400 541 318.5 514 c 128,-1,34
 237 487 237 487 237 442 c 0,35,36
 237 414 237 414 262 389 c 1,37,-1
 240 362 l 1,38,39
 173 409 173 409 173 471 c 0,40,41
 173 512 173 512 208.5 542 c 128,-1,42
 244 572 244 572 303.5 588 c 0,43,44
 418.78125 619 418.78125 619 562 619 c 0,45,46
 593 619 593 619 599 616 c 1,0,1
417 733 m 128,-1,48
 417 750 417 750 428.5 761.5 c 128,-1,49
 440 773 440 773 456 773 c 128,-1,50
 472 773 472 773 484 761.5 c 128,-1,51
 496 750 496 750 496 733.5 c 128,-1,52
 496 717 496 717 484.5 705.5 c 128,-1,53
 473 694 473 694 456.5 694 c 128,-1,54
 440 694 440 694 428.5 705 c 128,-1,47
 417 716 417 716 417 733 c 128,-1,48
EndSplineSet
EndChar

StartChar: Imacron
Encoding: 298 298 41
Width: 576
Flags: HMW
HStem: 3 50<171 202> 541 78<460.5 474> 675 39
VStem: 25 102<101 153.5 101 154> 158 64<453.5 475 433 528>
LayerCount: 2
Fore
SplineSet
584 616 m 1,0,1
 601 611 601 611 601 598 c 0,2,3
 601 594 601 594 589.5 579.5 c 0,4,5
 543.04 520.92 543.04 520.92 524.52 491.96 c 128,-1,6
 506 463 506 463 480.5 395 c 128,-1,7
 455 327 455 327 434.5 264.5 c 128,-1,8
 414 202 414 202 414 201 c 0,9,10
 373 109 373 109 301 56 c 128,-1,11
 229 3 229 3 150 3 c 0,12,13
 94 3 94 3 59.5 30.5 c 128,-1,14
 25 58 25 58 25 104 c 0,15,16
 25 176 25 176 118 236 c 128,-1,17
 211 296 211 296 304 296 c 1,18,-1
 308 263 l 1,19,20
 234 248 234 248 180.5 208 c 128,-1,21
 127 168 127 168 127 121 c 0,22,23
 127 91 127 91 144.5 72 c 128,-1,24
 162 53 162 53 189 53 c 0,25,26
 240 53 240 53 277 100.5 c 128,-1,27
 314 148 314 148 352.5 269 c 128,-1,28
 391 390 391 390 422.5 446 c 128,-1,29
 454 502 454 502 502 540 c 1,30,31
 488 541 488 541 471 541 c 0,32,33
 385 541 385 541 303.5 514 c 128,-1,34
 222 487 222 487 222 442 c 0,35,36
 222 414 222 414 247 389 c 1,37,-1
 225 362 l 1,38,39
 158 409 158 409 158 471 c 0,40,41
 158 512 158 512 193.5 542 c 128,-1,42
 229 572 229 572 288.5 588 c 0,43,44
 403.78125 619 403.78125 619 547 619 c 0,45,46
 578 619 578 619 584 616 c 1,0,1
553 714 m 1,47,-1
 553 678 l 1,48,-1
 376 672 l 1,49,-1
 367 703 l 1,50,51
 400 710 400 710 553 714 c 1,47,-1
EndSplineSet
EndChar

StartChar: Iogonek
Encoding: 302 302 42
Width: 576
Flags: HMW
HStem: -191 77<82 165.5> -191 244<82 222> 541 78<460.5 474>
VStem: 25 102<101 153.5> 41 86<-157 -82.5> 158 64<453.5 475 433 528>
LayerCount: 2
Fore
SplineSet
252 -73 m 1,0,-1
 272 -89 l 1,1,2
 242 -129 242 -129 189.5 -160 c 128,-1,3
 137 -191 137 -191 105.5 -191 c 128,-1,4
 74 -191 74 -191 57.5 -177.5 c 128,-1,5
 41 -164 41 -164 41 -145 c 0,6,7
 41 -76 41 -76 120 5 c 1,8,9
 76 12 76 12 50.5 38.5 c 128,-1,10
 25 65 25 65 25 104 c 0,11,12
 25 176 25 176 118 236 c 128,-1,13
 211 296 211 296 304 296 c 1,14,-1
 308 263 l 1,15,16
 234 248 234 248 180.5 208 c 128,-1,17
 127 168 127 168 127 121 c 0,18,19
 127 91 127 91 144.5 72 c 128,-1,20
 162 53 162 53 189 53 c 0,21,22
 240 53 240 53 277 100.5 c 128,-1,23
 314 148 314 148 352.5 269 c 128,-1,24
 391 390 391 390 422.5 446 c 128,-1,25
 454 502 454 502 502 540 c 1,26,27
 488 541 488 541 471 541 c 0,28,29
 385 541 385 541 303.5 514 c 128,-1,30
 222 487 222 487 222 442 c 0,31,32
 222 414 222 414 247 389 c 1,33,-1
 225 362 l 1,34,35
 158 409 158 409 158 471 c 0,36,37
 158 512 158 512 193.5 542 c 128,-1,38
 229 572 229 572 288.5 588 c 0,39,40
 403.78125 619 403.78125 619 547 619 c 0,41,42
 578 619 578 619 584 616 c 1,43,44
 601 611 601 611 601 598 c 0,45,46
 601 594 601 594 589.5 579.5 c 0,47,48
 543.04 520.92 543.04 520.92 524.52 491.96 c 128,-1,49
 506 463 506 463 480.5 395 c 128,-1,50
 455 327 455 327 434.5 264.5 c 128,-1,51
 414 202 414 202 414 201 c 0,52,53
 376 115 376 115 311.5 63.5 c 128,-1,54
 247 12 247 12 174 4 c 1,55,56
 155 -20 155 -20 141 -49 c 128,-1,57
 127 -78 127 -78 127 -88 c 128,-1,58
 127 -98 127 -98 134 -106 c 128,-1,59
 141 -114 141 -114 157 -114 c 0,60,61
 193 -114 193 -114 252 -73 c 1,0,-1
EndSplineSet
EndChar

StartChar: Itilde
Encoding: 296 296 43
Width: 576
Flags: HMW
HStem: 3 50<171 202> 541 78<460.5 474> 667 48<465.5 482.5> 736 49<373 399>
VStem: 25 102<101 153.5 101 154> 158 64<453.5 475 433 528>
LayerCount: 2
Fore
SplineSet
584 616 m 1,0,1
 601 611 601 611 601 598 c 0,2,3
 601 594 601 594 589.5 579.5 c 0,4,5
 543.04 520.92 543.04 520.92 524.52 491.96 c 128,-1,6
 506 463 506 463 480.5 395 c 128,-1,7
 455 327 455 327 434.5 264.5 c 128,-1,8
 414 202 414 202 414 201 c 0,9,10
 373 109 373 109 301 56 c 128,-1,11
 229 3 229 3 150 3 c 0,12,13
 94 3 94 3 59.5 30.5 c 128,-1,14
 25 58 25 58 25 104 c 0,15,16
 25 176 25 176 118 236 c 128,-1,17
 211 296 211 296 304 296 c 1,18,-1
 308 263 l 1,19,20
 234 248 234 248 180.5 208 c 128,-1,21
 127 168 127 168 127 121 c 0,22,23
 127 91 127 91 144.5 72 c 128,-1,24
 162 53 162 53 189 53 c 0,25,26
 240 53 240 53 277 100.5 c 128,-1,27
 314 148 314 148 352.5 269 c 128,-1,28
 391 390 391 390 422.5 446 c 128,-1,29
 454 502 454 502 502 540 c 1,30,31
 488 541 488 541 471 541 c 0,32,33
 385 541 385 541 303.5 514 c 128,-1,34
 222 487 222 487 222 442 c 0,35,36
 222 414 222 414 247 389 c 1,37,-1
 225 362 l 1,38,39
 158 409 158 409 158 471 c 0,40,41
 158 512 158 512 193.5 542 c 128,-1,42
 229 572 229 572 288.5 588 c 0,43,44
 403.78125 619 403.78125 619 547 619 c 0,45,46
 578 619 578 619 584 616 c 1,0,1
533 758 m 1,47,-1
 556 739 l 1,48,49
 537 709 537 709 512.5 688 c 128,-1,50
 488 667 488 667 467.5 667 c 128,-1,51
 447 667 447 667 423 701.5 c 128,-1,52
 399 736 399 736 379 736 c 0,53,54
 368.6 736 368.6 736 358.8 729 c 128,-1,55
 349 722 349 722 343.5 718 c 128,-1,56
 338 714 338 714 328 706 c 128,-1,57
 318 698 318 698 312 694 c 1,58,-1
 284 720 l 1,59,60
 358 785 358 785 383.5 785 c 128,-1,61
 409 785 409 785 438 750 c 128,-1,62
 467 715 467 715 482 715 c 0,63,64
 491.769230769 715 491.769230769 715 508.384615385 733 c 128,-1,65
 525 751 525 751 533 758 c 1,47,-1
EndSplineSet
EndChar

StartChar: J
Encoding: 74 74 44
Width: 702
Flags: HMW
HStem: -316 68<-21 99.5> 546 76<448.5 572.5>
VStem: -90 102<-209.5 -157.5> 99 70<304 390 304 426.5>
LayerCount: 2
Fore
SplineSet
574 622 m 0,0,1
 635 622 635 622 673.5 614.5 c 128,-1,2
 712 607 712 607 712 584 c 0,3,4
 712 564 712 564 680 545 c 0,5,6
 601 497 601 497 539.5 389.5 c 128,-1,7
 478 282 478 282 413 72 c 1,8,9
 472 72 472 72 502 67 c 1,10,-1
 496 27 l 1,11,12
 468 32 468 32 446 32 c 128,-1,13
 424 32 424 32 397 27 c 1,14,15
 366 -58 366 -58 331.5 -111 c 128,-1,16
 297 -164 297 -164 243 -210 c 128,-1,17
 189 -256 189 -256 123 -286 c 128,-1,18
 57 -316 57 -316 10.5 -316 c 128,-1,19
 -36 -316 -36 -316 -63 -290.5 c 128,-1,20
 -90 -265 -90 -265 -90 -223 c 0,21,22
 -90 -159 -90 -159 -30 -96 c 128,-1,23
 30 -33 30 -33 128.5 10 c 128,-1,24
 227 53 227 53 336 64 c 1,25,26
 338 68 338 68 367 159 c 1,27,28
 413 309 413 309 470.5 397.5 c 128,-1,29
 528 486 528 486 609 544 c 1,30,31
 592 546 592 546 564 546 c 0,32,33
 391 546 391 546 280 483 c 128,-1,34
 169 420 169 420 169 341 c 0,35,36
 169 290 169 290 199.5 246.5 c 128,-1,37
 230 203 230 203 286 157 c 1,38,-1
 262 124 l 1,39,40
 99 212 99 212 99 346 c 0,41,42
 99 424 99 424 165.5 488 c 128,-1,43
 232 552 232 552 340.5 587 c 128,-1,44
 449 622 449 622 574 622 c 0,0,1
165.5 -216 m 128,-1,46
 216 -184 216 -184 260.5 -122 c 128,-1,47
 305 -60 305 -60 323 20 c 1,48,49
 193 7 193 7 102.5 -54.5 c 128,-1,50
 12 -116 12 -116 12 -192 c 0,51,52
 12 -218 12 -218 27 -233 c 128,-1,53
 42 -248 42 -248 69 -248 c 0,54,45
 115 -248 115 -248 165.5 -216 c 128,-1,46
EndSplineSet
EndChar

StartChar: Jcircumflex
Encoding: 308 308 45
Width: 692
Flags: HMW
HStem: -316 68<-26 94.5> 546 76<443.5 567.5> 789 20G<484 484>
VStem: -95 102<-209.5 -157.5> 94 70<304 390 304 426.5>
LayerCount: 2
Fore
SplineSet
569 622 m 0,0,1
 630 622 630 622 668.5 614.5 c 128,-1,2
 707 607 707 607 707 584 c 0,3,4
 707 564 707 564 675 545 c 0,5,6
 596 497 596 497 534.5 389.5 c 128,-1,7
 473 282 473 282 408 72 c 1,8,9
 467 72 467 72 497 67 c 1,10,-1
 491 27 l 1,11,12
 463 32 463 32 441 32 c 128,-1,13
 419 32 419 32 392 27 c 1,14,15
 361 -58 361 -58 326.5 -111 c 128,-1,16
 292 -164 292 -164 238 -210 c 128,-1,17
 184 -256 184 -256 118 -286 c 128,-1,18
 52 -316 52 -316 5.5 -316 c 128,-1,19
 -41 -316 -41 -316 -68 -290.5 c 128,-1,20
 -95 -265 -95 -265 -95 -223 c 0,21,22
 -95 -159 -95 -159 -35 -96 c 128,-1,23
 25 -33 25 -33 123.5 10 c 128,-1,24
 222 53 222 53 331 64 c 1,25,26
 333 68 333 68 362 159 c 1,27,28
 408 309 408 309 465.5 397.5 c 128,-1,29
 523 486 523 486 604 544 c 1,30,31
 587 546 587 546 559 546 c 0,32,33
 386 546 386 546 275 483 c 128,-1,34
 164 420 164 420 164 341 c 0,35,36
 164 290 164 290 194.5 246.5 c 128,-1,37
 225 203 225 203 281 157 c 1,38,-1
 257 124 l 1,39,40
 94 212 94 212 94 346 c 0,41,42
 94 424 94 424 160.5 488 c 128,-1,43
 227 552 227 552 335.5 587 c 128,-1,44
 444 622 444 622 569 622 c 0,0,1
160.5 -216 m 128,-1,46
 211 -184 211 -184 255.5 -122 c 128,-1,47
 300 -60 300 -60 318 20 c 1,48,49
 188 7 188 7 97.5 -54.5 c 128,-1,50
 7 -116 7 -116 7 -192 c 0,51,52
 7 -218 7 -218 22 -233 c 128,-1,53
 37 -248 37 -248 64 -248 c 0,54,45
 110 -248 110 -248 160.5 -216 c 128,-1,46
337 695 m 1,55,-1
 484 809 l 1,56,57
 592 723 592 723 613 701 c 1,58,-1
 583 677 l 1,59,60
 498 728 498 728 480 741 c 1,61,-1
 381 671 l 1,62,-1
 337 695 l 1,55,-1
EndSplineSet
EndChar

StartChar: K
Encoding: 75 75 46
Width: 797
Flags: HMW
HStem: -154 21G<614 661> -78 64<126 163> 539 76
VStem: -10 90<28 50.5> 118 79<348 412 345 443.5>
LayerCount: 2
Fore
SplineSet
824 600 m 1,0,-1
 887 569 l 1,1,2
 823 465 823 465 735.5 384 c 128,-1,3
 648 303 648 303 503 223 c 1,4,5
 531 78 531 78 572 -9.5 c 128,-1,6
 613 -97 613 -97 679 -107 c 1,7,-1
 679 -153 l 1,8,9
 671 -154 671 -154 658 -154 c 0,10,11
 591 -154 591 -154 528.5 -61 c 128,-1,12
 466 32 466 32 416 214 c 1,13,14
 373 79 373 79 285 0.5 c 128,-1,15
 197 -78 197 -78 102 -78 c 0,16,17
 53 -78 53 -78 21.5 -51.5 c 128,-1,18
 -10 -25 -10 -25 -10 21.5 c 128,-1,19
 -10 68 -10 68 32 118 c 128,-1,20
 74 168 74 168 147 202 c 1,21,-1
 170 166 l 1,22,23
 80 102 80 102 80 46 c 0,24,25
 80 19 80 19 98 2.5 c 128,-1,26
 116 -14 116 -14 145 -14 c 0,27,28
 213 -14 213 -14 262.5 43.5 c 128,-1,29
 312 101 312 101 351 245 c 0,30,31
 399.797704002 425.732237046 399.797704002 425.732237046 451 482.5 c 0,32,33
 474 508 474 508 518 539 c 1,34,35
 449 537 449 537 377 515.5 c 128,-1,36
 305 494 305 494 251 451.5 c 128,-1,37
 197 409 197 409 197 357 c 0,38,39
 197 290 197 290 258 250 c 1,40,-1
 238 219 l 1,41,42
 182 246 182 246 150 289 c 128,-1,43
 118 332 118 332 118 378 c 0,44,45
 118 441 118 441 187 497 c 128,-1,46
 256 553 256 553 356.5 584 c 128,-1,47
 457 615 457 615 554 615 c 0,48,49
 614 615 614 615 614 589 c 0,50,51
 614 572 614 572 579 546 c 0,52,53
 515 498 515 498 480.5 421 c 128,-1,54
 446 344 446 344 424 241 c 1,55,56
 538 283 538 283 642.5 380.5 c 128,-1,57
 747 478 747 478 824 600 c 1,0,-1
EndSplineSet
EndChar

StartChar: L
Encoding: 76 76 47
Width: 581
Flags: HMW
HStem: 12 21G<368 405.5> 20 67 289 46 561 54<408 431>
VStem: 473 98<473 521.5>
LayerCount: 2
Fore
SplineSet
175 93 m 1,0,-1
 383 87 l 1,1,2
 427 87 427 87 468 116 c 1,3,-1
 495 80 l 1,4,5
 475 57 475 57 463 45.5 c 128,-1,6
 451 34 451 34 427.5 23 c 128,-1,7
 404 12 404 12 375 12 c 1,8,-1
 188 20 l 1,9,10
 63 20 63 20 66 17 c 1,11,12
 29 18 29 18 29 50 c 1,13,14
 32 70 32 70 56 116.5 c 128,-1,15
 80 163 80 163 121 285 c 1,16,17
 59 285 59 285 10 322 c 1,18,-1
 31 359 l 1,19,20
 74 331 74 331 136 331 c 1,21,22
 194 473 194 473 283 544 c 128,-1,23
 372 615 372 615 469 615 c 0,24,25
 515 615 515 615 543 591.5 c 128,-1,26
 571 568 571 568 571 529 c 0,27,28
 571 445 571 445 460.5 371.5 c 128,-1,29
 350 298 350 298 209 289 c 1,30,31
 163 143 163 143 106 90 c 1,32,33
 131 93 131 93 175 93 c 1,0,-1
414 561 m 0,34,35
 352 561 352 561 299 498 c 128,-1,36
 246 435 246 435 223 335 c 1,37,38
 323 342 323 342 398 395 c 128,-1,39
 473 448 473 448 473 506 c 0,40,41
 473 529 473 529 456 545 c 128,-1,42
 439 561 439 561 414 561 c 0,34,35
EndSplineSet
EndChar

StartChar: Lacute
Encoding: 313 313 48
Width: 601
Flags: HMW
HStem: 12 75<387.5 411 387.5 415.5> 289 46 561 54<418 441> 740 20G<451 451>
VStem: 483 98<473 521.5>
LayerCount: 2
Fore
SplineSet
185 93 m 1,0,-1
 393 87 l 1,1,2
 437 87 437 87 478 116 c 1,3,-1
 505 80 l 1,4,5
 485 57 485 57 473 45.5 c 128,-1,6
 461 34 461 34 437.5 23 c 128,-1,7
 414 12 414 12 385 12 c 1,8,-1
 198 20 l 1,9,10
 73 20 73 20 76 17 c 1,11,12
 39 18 39 18 39 50 c 1,13,14
 42 70 42 70 66 116.5 c 128,-1,15
 90 163 90 163 131 285 c 1,16,17
 69 285 69 285 20 322 c 1,18,-1
 41 359 l 1,19,20
 84 331 84 331 146 331 c 1,21,22
 204 473 204 473 293 544 c 128,-1,23
 382 615 382 615 479 615 c 0,24,25
 525 615 525 615 553 591.5 c 128,-1,26
 581 568 581 568 581 529 c 0,27,28
 581 445 581 445 470.5 371.5 c 128,-1,29
 360 298 360 298 219 289 c 1,30,31
 173 143 173 143 116 90 c 1,32,33
 141 93 141 93 185 93 c 1,0,-1
424 561 m 0,34,35
 362 561 362 561 309 498 c 128,-1,36
 256 435 256 435 233 335 c 1,37,38
 333 342 333 342 408 395 c 128,-1,39
 483 448 483 448 483 506 c 0,40,41
 483 529 483 529 466 545 c 128,-1,42
 449 561 449 561 424 561 c 0,34,35
519 720 m 1,43,-1
 348 664 l 1,44,-1
 319 682 l 1,45,-1
 451 760 l 1,46,-1
 519 720 l 1,43,-1
EndSplineSet
EndChar

StartChar: Lcaron
Encoding: 317 317 49
Width: 601
Flags: HMW
HStem: 12 75<387.5 411 387.5 415.5> 289 46 561 54<418 441> 768 20G<335 335>
VStem: 483 98<473 521.5>
LayerCount: 2
Fore
SplineSet
185 93 m 1,0,-1
 393 87 l 1,1,2
 437 87 437 87 478 116 c 1,3,-1
 505 80 l 1,4,5
 485 57 485 57 473 45.5 c 128,-1,6
 461 34 461 34 437.5 23 c 128,-1,7
 414 12 414 12 385 12 c 1,8,-1
 198 20 l 1,9,10
 73 20 73 20 76 17 c 1,11,12
 39 18 39 18 39 50 c 1,13,14
 42 70 42 70 66 116.5 c 128,-1,15
 90 163 90 163 131 285 c 1,16,17
 69 285 69 285 20 322 c 1,18,-1
 41 359 l 1,19,20
 84 331 84 331 146 331 c 1,21,22
 204 473 204 473 293 544 c 128,-1,23
 382 615 382 615 479 615 c 0,24,25
 525 615 525 615 553 591.5 c 128,-1,26
 581 568 581 568 581 529 c 0,27,28
 581 445 581 445 470.5 371.5 c 128,-1,29
 360 298 360 298 219 289 c 1,30,31
 173 143 173 143 116 90 c 1,32,33
 141 93 141 93 185 93 c 1,0,-1
424 561 m 0,34,35
 362 561 362 561 309 498 c 128,-1,36
 256 435 256 435 233 335 c 1,37,38
 333 342 333 342 408 395 c 128,-1,39
 483 448 483 448 483 506 c 0,40,41
 483 529 483 529 466 545 c 128,-1,42
 449 561 449 561 424 561 c 0,34,35
438 650 m 1,43,-1
 291 764 l 1,44,-1
 335 788 l 1,45,46
 390 746 390 746 434 718 c 1,47,48
 452 731 452 731 537 782 c 1,49,-1
 567 758 l 1,50,51
 551.571428571 740.857142857 551.571428571 740.857142857 465.5 672 c 2,52,-1
 438 650 l 1,43,-1
EndSplineSet
EndChar

StartChar: Ldot
Encoding: 319 319 50
Width: 571
Flags: HMW
HStem: 12 21G<363 400.5> 20 67 194 92<436.5 461.5> 289 46 561 54<403 426>
VStem: 403 92<227.5 252.5> 468 98<473 521.5>
LayerCount: 2
Fore
SplineSet
170 93 m 1,0,-1
 378 87 l 1,1,2
 422 87 422 87 463 116 c 1,3,-1
 490 80 l 1,4,5
 470 57 470 57 458 45.5 c 128,-1,6
 446 34 446 34 422.5 23 c 128,-1,7
 399 12 399 12 370 12 c 1,8,-1
 183 20 l 1,9,10
 58 20 58 20 61 17 c 1,11,12
 24 18 24 18 24 50 c 1,13,14
 27 70 27 70 51 116.5 c 128,-1,15
 75 163 75 163 116 285 c 1,16,17
 54 285 54 285 5 322 c 1,18,-1
 26 359 l 1,19,20
 69 331 69 331 131 331 c 1,21,22
 189 473 189 473 278 544 c 128,-1,23
 367 615 367 615 464 615 c 0,24,25
 510 615 510 615 538 591.5 c 128,-1,26
 566 568 566 568 566 529 c 0,27,28
 566 445 566 445 455.5 371.5 c 128,-1,29
 345 298 345 298 204 289 c 1,30,31
 158 143 158 143 101 90 c 1,32,33
 126 93 126 93 170 93 c 1,0,-1
409 561 m 0,34,35
 347 561 347 561 294 498 c 128,-1,36
 241 435 241 435 218 335 c 1,37,38
 318 342 318 342 393 395 c 128,-1,39
 468 448 468 448 468 506 c 0,40,41
 468 529 468 529 451 545 c 128,-1,42
 434 561 434 561 409 561 c 0,34,35
403 240 m 128,-1,44
 403 259 403 259 416.5 272.5 c 128,-1,45
 430 286 430 286 449 286 c 128,-1,46
 468 286 468 286 481.5 272.5 c 128,-1,47
 495 259 495 259 495 240 c 128,-1,48
 495 221 495 221 481.5 207.5 c 128,-1,49
 468 194 468 194 449 194 c 128,-1,50
 430 194 430 194 416.5 207.5 c 128,-1,43
 403 221 403 221 403 240 c 128,-1,44
EndSplineSet
EndChar

StartChar: Lslash
Encoding: 321 321 51
Width: 601
Flags: HMW
HStem: 12 21G<378 415.5> 20 67 20 219<202 202 202 212.5> 289 46 561 54<418 441>
VStem: 483 98<473 521.5>
LayerCount: 2
Fore
SplineSet
185 93 m 1,0,-1
 393 87 l 1,1,2
 437 87 437 87 478 116 c 1,3,-1
 505 80 l 1,4,5
 485 57 485 57 473 45.5 c 128,-1,6
 461 34 461 34 437.5 23 c 128,-1,7
 414 12 414 12 385 12 c 1,8,-1
 198 20 l 1,9,10
 73 20 73 20 76 17 c 1,11,12
 39 18 39 18 39 50 c 1,13,14
 41 70 41 70 92 172 c 1,15,-1
 17 165 l 1,16,-1
 5 219 l 1,17,18
 35 225 35 225 113 232 c 1,19,-1
 131 285 l 1,20,21
 69 285 69 285 20 322 c 1,22,-1
 41 359 l 1,23,24
 84 331 84 331 146 331 c 1,25,26
 204 473 204 473 293 544 c 128,-1,27
 382 615 382 615 479 615 c 0,28,29
 525 615 525 615 553 591.5 c 128,-1,30
 581 568 581 568 581 529 c 0,31,32
 581 445 581 445 470.5 371.5 c 128,-1,33
 360 298 360 298 219 289 c 1,34,-1
 202 239 l 1,35,36
 241 241 241 241 341 244 c 1,37,-1
 341 197 l 1,38,-1
 178 181 l 1,39,40
 148 119 148 119 116 90 c 1,41,42
 141 93 141 93 185 93 c 1,0,-1
424 561 m 0,43,44
 362 561 362 561 309 498 c 128,-1,45
 256 435 256 435 233 335 c 1,46,47
 333 342 333 342 408 395 c 128,-1,48
 483 448 483 448 483 506 c 0,49,50
 483 529 483 529 466 545 c 128,-1,51
 449 561 449 561 424 561 c 0,43,44
EndSplineSet
EndChar

StartChar: M
Encoding: 77 77 52
Width: 807
Flags: HMW
HStem: -142 21G<726 772> 618 20G<384.5 424>
VStem: 344 78<103.5 154 103.5 168.5> 631 78<-14 50 -17 69.5>
LayerCount: 2
Fore
SplineSet
817 -103 m 1,0,-1
 805 -140 l 1,1,2
 779 -142 779 -142 766 -142 c 0,3,4
 706 -142 706 -142 668.5 -91.5 c 128,-1,5
 631 -41 631 -41 631 40 c 0,6,7
 631 89 631 89 653.5 225.5 c 128,-1,8
 676 362 676 362 706 475 c 0,9,10
 712 500 712 500 712 508 c 128,-1,11
 712 516 712 516 705 516 c 128,-1,12
 698 516 698 516 660.5 441.5 c 128,-1,13
 623 367 623 367 571 258.5 c 128,-1,14
 519 150 519 150 511.5 134.5 c 128,-1,15
 504 119 504 119 499.5 109.5 c 128,-1,16
 495 100 495 100 481.5 75.5 c 128,-1,17
 468 51 468 51 455.5 32 c 0,18,19
 422.605263158 -18 422.605263158 -18 404 -18 c 0,20,21
 391 -18 391 -18 375.5 -11 c 128,-1,22
 360 -4 360 -4 355 4 c 0,23,24
 344 21 344 21 344 110 c 0,25,26
 344 296 344 296 374 465 c 0,27,28
 384 521 384 521 384 524 c 0,29,30
 384 534 384 534 376 534 c 0,31,32
 360 534 360 534 325 434 c 2,33,-1
 296 351 l 2,34,35
 232 170 232 170 166.5 69 c 128,-1,36
 101 -32 101 -32 16 -73 c 1,37,-1
 -10 -18 l 1,38,39
 87 54 87 54 139.5 129 c 128,-1,40
 192 204 192 204 254 371 c 2,41,-1
 288 462 l 2,42,43
 323 557 323 557 349 597.5 c 128,-1,44
 375 638 375 638 407 638 c 0,45,46
 460 638 460 638 460 574 c 0,47,48
 460 569 460 569 441 371.5 c 128,-1,49
 422 174 422 174 422 111 c 0,50,51
 422 93 422 93 428 92 c 0,52,53
 433 92 433 92 439 102 c 0,54,55
 520.214285714 237.357142857 520.214285714 237.357142857 593.5 395.5 c 0,56,57
 603 416 603 416 625 465 c 128,-1,58
 647 514 647 514 668 552 c 128,-1,59
 689 590 689 590 700 598.5 c 128,-1,60
 711 607 711 607 735 607 c 128,-1,61
 759 607 759 607 776.5 589.5 c 128,-1,62
 794 572 794 572 794 548 c 128,-1,63
 794 524 794 524 787 493 c 0,64,65
 709 112 709 112 709 37.5 c 128,-1,66
 709 -37 709 -37 733 -64.5 c 128,-1,67
 757 -92 757 -92 817 -103 c 1,0,-1
EndSplineSet
EndChar

StartChar: N
Encoding: 78 78 53
Width: 724
Flags: HMW
HStem: -31 21G<12 12> -12 81<478.5 495 478.5 514.5> 637 20G<439 467>
VStem: 389 77<113 142.5>
LayerCount: 2
Fore
SplineSet
676 611 m 1,0,-1
 734 604 l 1,1,2
 715.909547739 526.211055276 715.909547739 526.211055276 685.454773869 421.605527638 c 128,-1,3
 655 317 655 317 630 252.5 c 128,-1,4
 605 188 605 188 575.5 124.5 c 128,-1,5
 546 61 546 61 513 24.5 c 128,-1,6
 480 -12 480 -12 449 -12 c 128,-1,7
 418 -12 418 -12 403.5 11 c 128,-1,8
 389 34 389 34 389 92.5 c 128,-1,9
 389 151 389 151 406 338.5 c 128,-1,10
 423 526 423 526 423.5 542.5 c 128,-1,11
 424 559 424 559 415 559 c 0,12,13
 403.717948718 559 403.717948718 559 388.858974359 528.5 c 128,-1,14
 374 498 374 498 366.5 481.5 c 0,15,16
 345.25 434.75 345.25 434.75 339 416 c 1,17,18
 283 290 283 290 239 208 c 128,-1,19
 195 126 195 126 138 56 c 0,20,21
 118 32 118 32 81 7 c 128,-1,22
 44 -18 44 -18 12 -31 c 1,23,-1
 -10 28 l 1,24,25
 73 63 73 63 140 149.5 c 128,-1,26
 207 236 207 236 278.5 391 c 128,-1,27
 350 546 350 546 381 600 c 1,28,29
 416 657 416 657 452 657 c 0,30,31
 475 657 475 657 488 641 c 128,-1,32
 501 625 501 625 501 599.5 c 128,-1,33
 501 574 501 574 483.5 389 c 128,-1,34
 466 204 466 204 466 152 c 128,-1,35
 466 100 466 100 470.5 84.5 c 128,-1,36
 475 69 475 69 486 69 c 0,37,38
 500 69 500 69 515.5 99 c 0,39,40
 570.674478556 205.789313335 570.674478556 205.789313335 676 611 c 1,0,-1
EndSplineSet
EndChar

StartChar: Nacute
Encoding: 323 323 54
Width: 744
Flags: HMW
HStem: -31 21G<22 22> -12 81<488.5 505 488.5 524.5> 637 20G<449 477> 753 20G<628 628>
VStem: 399 77<113 142.5>
LayerCount: 2
Fore
SplineSet
686 611 m 1,0,-1
 744 604 l 1,1,2
 725.909547739 526.211055276 725.909547739 526.211055276 695.454773869 421.605527638 c 128,-1,3
 665 317 665 317 640 252.5 c 128,-1,4
 615 188 615 188 585.5 124.5 c 128,-1,5
 556 61 556 61 523 24.5 c 128,-1,6
 490 -12 490 -12 459 -12 c 128,-1,7
 428 -12 428 -12 413.5 11 c 128,-1,8
 399 34 399 34 399 92.5 c 128,-1,9
 399 151 399 151 416 338.5 c 128,-1,10
 433 526 433 526 433.5 542.5 c 128,-1,11
 434 559 434 559 425 559 c 0,12,13
 413.717948718 559 413.717948718 559 398.858974359 528.5 c 128,-1,14
 384 498 384 498 376.5 481.5 c 0,15,16
 355.25 434.75 355.25 434.75 349 416 c 1,17,18
 293 290 293 290 249 208 c 128,-1,19
 205 126 205 126 148 56 c 0,20,21
 128 32 128 32 91 7 c 128,-1,22
 54 -18 54 -18 22 -31 c 1,23,-1
 0 28 l 1,24,25
 83 63 83 63 150 149.5 c 128,-1,26
 217 236 217 236 288.5 391 c 128,-1,27
 360 546 360 546 391 600 c 1,28,29
 426 657 426 657 462 657 c 0,30,31
 485 657 485 657 498 641 c 128,-1,32
 511 625 511 625 511 599.5 c 128,-1,33
 511 574 511 574 493.5 389 c 128,-1,34
 476 204 476 204 476 152 c 128,-1,35
 476 100 476 100 480.5 84.5 c 128,-1,36
 485 69 485 69 496 69 c 0,37,38
 510 69 510 69 525.5 99 c 0,39,40
 580.674478556 205.789313335 580.674478556 205.789313335 686 611 c 1,0,-1
696 733 m 1,41,-1
 525 677 l 1,42,-1
 496 695 l 1,43,-1
 628 773 l 1,44,-1
 696 733 l 1,41,-1
EndSplineSet
EndChar

StartChar: Ncaron
Encoding: 327 327 55
Width: 744
Flags: HMW
HStem: -31 21G<22 22> -12 81<488.5 505 488.5 524.5> 637 20G<449 477> 794 20G<507 507>
VStem: 399 77<113 142.5>
LayerCount: 2
Fore
SplineSet
686 611 m 1,0,-1
 744 604 l 1,1,2
 725.909547739 526.211055276 725.909547739 526.211055276 695.454773869 421.605527638 c 128,-1,3
 665 317 665 317 640 252.5 c 128,-1,4
 615 188 615 188 585.5 124.5 c 128,-1,5
 556 61 556 61 523 24.5 c 128,-1,6
 490 -12 490 -12 459 -12 c 128,-1,7
 428 -12 428 -12 413.5 11 c 128,-1,8
 399 34 399 34 399 92.5 c 128,-1,9
 399 151 399 151 416 338.5 c 128,-1,10
 433 526 433 526 433.5 542.5 c 128,-1,11
 434 559 434 559 425 559 c 0,12,13
 413.717948718 559 413.717948718 559 398.858974359 528.5 c 128,-1,14
 384 498 384 498 376.5 481.5 c 0,15,16
 355.25 434.75 355.25 434.75 349 416 c 1,17,18
 293 290 293 290 249 208 c 128,-1,19
 205 126 205 126 148 56 c 0,20,21
 128 32 128 32 91 7 c 128,-1,22
 54 -18 54 -18 22 -31 c 1,23,-1
 0 28 l 1,24,25
 83 63 83 63 150 149.5 c 128,-1,26
 217 236 217 236 288.5 391 c 128,-1,27
 360 546 360 546 391 600 c 1,28,29
 426 657 426 657 462 657 c 0,30,31
 485 657 485 657 498 641 c 128,-1,32
 511 625 511 625 511 599.5 c 128,-1,33
 511 574 511 574 493.5 389 c 128,-1,34
 476 204 476 204 476 152 c 128,-1,35
 476 100 476 100 480.5 84.5 c 128,-1,36
 485 69 485 69 496 69 c 0,37,38
 510 69 510 69 525.5 99 c 0,39,40
 580.674478556 205.789313335 580.674478556 205.789313335 686 611 c 1,0,-1
610 676 m 1,41,-1
 463 790 l 1,42,-1
 507 814 l 1,43,44
 562 772 562 772 606 744 c 1,45,46
 624 757 624 757 709 808 c 1,47,-1
 739 784 l 1,48,49
 723.571428571 766.857142857 723.571428571 766.857142857 637.5 698 c 2,50,-1
 610 676 l 1,41,-1
EndSplineSet
EndChar

StartChar: Ntilde
Encoding: 209 209 56
Width: 744
Flags: HMW
HStem: -31 21G<22 22> -12 81<488.5 505 488.5 524.5> 637 20G<449 477> 690 48<611.5 628.5> 759 49<519 545>
VStem: 399 77<113 142.5>
LayerCount: 2
Fore
SplineSet
686 611 m 1,0,-1
 744 604 l 1,1,2
 725.909547739 526.211055276 725.909547739 526.211055276 695.454773869 421.605527638 c 128,-1,3
 665 317 665 317 640 252.5 c 128,-1,4
 615 188 615 188 585.5 124.5 c 128,-1,5
 556 61 556 61 523 24.5 c 128,-1,6
 490 -12 490 -12 459 -12 c 128,-1,7
 428 -12 428 -12 413.5 11 c 128,-1,8
 399 34 399 34 399 92.5 c 128,-1,9
 399 151 399 151 416 338.5 c 128,-1,10
 433 526 433 526 433.5 542.5 c 128,-1,11
 434 559 434 559 425 559 c 0,12,13
 413.717948718 559 413.717948718 559 398.858974359 528.5 c 128,-1,14
 384 498 384 498 376.5 481.5 c 0,15,16
 355.25 434.75 355.25 434.75 349 416 c 1,17,18
 293 290 293 290 249 208 c 128,-1,19
 205 126 205 126 148 56 c 0,20,21
 128 32 128 32 91 7 c 128,-1,22
 54 -18 54 -18 22 -31 c 1,23,-1
 0 28 l 1,24,25
 83 63 83 63 150 149.5 c 128,-1,26
 217 236 217 236 288.5 391 c 128,-1,27
 360 546 360 546 391 600 c 1,28,29
 426 657 426 657 462 657 c 0,30,31
 485 657 485 657 498 641 c 128,-1,32
 511 625 511 625 511 599.5 c 128,-1,33
 511 574 511 574 493.5 389 c 128,-1,34
 476 204 476 204 476 152 c 128,-1,35
 476 100 476 100 480.5 84.5 c 128,-1,36
 485 69 485 69 496 69 c 0,37,38
 510 69 510 69 525.5 99 c 0,39,40
 580.674478556 205.789313335 580.674478556 205.789313335 686 611 c 1,0,-1
679 781 m 1,41,-1
 702 762 l 1,42,43
 683 732 683 732 658.5 711 c 128,-1,44
 634 690 634 690 613.5 690 c 128,-1,45
 593 690 593 690 569 724.5 c 128,-1,46
 545 759 545 759 525 759 c 0,47,48
 514.6 759 514.6 759 504.8 752 c 128,-1,49
 495 745 495 745 489.5 741 c 128,-1,50
 484 737 484 737 474 729 c 128,-1,51
 464 721 464 721 458 717 c 1,52,-1
 430 743 l 1,53,54
 504 808 504 808 529.5 808 c 128,-1,55
 555 808 555 808 584 773 c 128,-1,56
 613 738 613 738 628 738 c 0,57,58
 637.769230769 738 637.769230769 738 654.384615385 756 c 128,-1,59
 671 774 671 774 679 781 c 1,41,-1
EndSplineSet
EndChar

StartChar: O
Encoding: 79 79 57
Width: 694
Flags: HMW
HStem: 6 86<174.5 220.5> 346 47<355.5 402.5> 559 85<379 484.5>
VStem: 30 89<162.5 222.5> 30 244<105 470> 477 89<450.5 544>
LayerCount: 2
Fore
SplineSet
704 492 m 1,0,-1
 704 444 l 1,1,2
 659 418 659 418 538 373 c 1,3,4
 484 238 484 238 367 122 c 128,-1,5
 250 6 250 6 153 6 c 0,6,7
 98 6 98 6 64 45 c 128,-1,8
 30 84 30 84 30 152.5 c 0,9,10
 30 221 30 221 76 317.5 c 128,-1,11
 122 414 122 414 197 498.5 c 128,-1,12
 272 583 272 583 350 623 c 1,13,14
 382 644 382 644 450 644 c 0,15,16
 501 644 501 644 533.5 604.5 c 128,-1,17
 566 565 566 565 566 511.5 c 0,18,19
 566 458 566 458 558 431 c 1,20,21
 634 456 634 456 704 492 c 1,0,-1
307 527 m 1,22,23
 274 493 274 493 274 461.5 c 0,24,25
 274 430 274 430 306 411.5 c 128,-1,26
 338 393 338 393 386.5 393 c 0,27,28
 435 393 435 393 471 402 c 1,29,30
 477 432 477 432 477 460 c 0,31,32
 477 559 477 559 392 559 c 0,33,34
 353 559 353 559 307 527 c 1,22,23
320 149 m 0,35,36
 418 246 418 246 457 351 c 1,37,38
 432 346 432 346 393 346 c 0,39,40
 225 346 225 346 203 421 c 1,41,42
 119 304 119 304 119 191 c 0,43,44
 119 146 119 146 140.5 119 c 128,-1,45
 162 92 162 92 204 92 c 0,46,47
 263 92 263 92 320 149 c 0,35,36
EndSplineSet
EndChar

StartChar: Obreve
Encoding: 334 334 58
Width: 684
Flags: HMW
HStem: 6 86<169.5 215.5> 346 47<350.5 397.5> 559 85<374 479.5> 707 47<422.5 460.5 422.5 463.5> 785 20G<354 354>
VStem: 25 89<162.5 222.5> 25 244<105 470> 472 89<450.5 544>
LayerCount: 2
Fore
SplineSet
699 492 m 1,0,-1
 699 444 l 1,1,2
 654 418 654 418 533 373 c 1,3,4
 479 238 479 238 362 122 c 128,-1,5
 245 6 245 6 148 6 c 0,6,7
 93 6 93 6 59 45 c 128,-1,8
 25 84 25 84 25 152.5 c 0,9,10
 25 221 25 221 71 317.5 c 128,-1,11
 117 414 117 414 192 498.5 c 128,-1,12
 267 583 267 583 345 623 c 1,13,14
 377 644 377 644 445 644 c 0,15,16
 496 644 496 644 528.5 604.5 c 128,-1,17
 561 565 561 565 561 511.5 c 0,18,19
 561 458 561 458 553 431 c 1,20,21
 629 456 629 456 699 492 c 1,0,-1
302 527 m 1,22,23
 269 493 269 493 269 461.5 c 0,24,25
 269 430 269 430 301 411.5 c 128,-1,26
 333 393 333 393 381.5 393 c 0,27,28
 430 393 430 393 466 402 c 1,29,30
 472 432 472 432 472 460 c 0,31,32
 472 559 472 559 387 559 c 0,33,34
 348 559 348 559 302 527 c 1,22,23
315 149 m 0,35,36
 413 246 413 246 452 351 c 1,37,38
 427 346 427 346 388 346 c 0,39,40
 220 346 220 346 198 421 c 1,41,42
 114 304 114 304 114 191 c 0,43,44
 114 146 114 146 135.5 119 c 128,-1,45
 157 92 157 92 199 92 c 0,46,47
 258 92 258 92 315 149 c 0,35,36
526 802 m 1,48,-1
 556 786 l 1,49,50
 536 755 536 755 504.5 731 c 128,-1,51
 473 707 473 707 442 707 c 0,52,53
 411 707 411 707 377 730.5 c 128,-1,54
 343 754 343 754 322 778 c 1,55,-1
 354 805 l 1,56,57
 406 754 406 754 439 754 c 0,58,59
 490 754 490 754 526 802 c 1,48,-1
EndSplineSet
EndChar

StartChar: Odieresis
Encoding: 214 214 59
Width: 714
Flags: HMW
HStem: 6 86<184.5 230.5> 346 47<365.5 412.5> 559 85<389 494.5> 679 79<356 378 483 505>
VStem: 40 89<162.5 222.5> 40 244<105 470> 328 79<707 729> 455 79<707 729> 487 89<450.5 544>
LayerCount: 2
Fore
SplineSet
714 492 m 1,0,-1
 714 444 l 1,1,2
 669 418 669 418 548 373 c 1,3,4
 494 238 494 238 377 122 c 128,-1,5
 260 6 260 6 163 6 c 0,6,7
 108 6 108 6 74 45 c 128,-1,8
 40 84 40 84 40 152.5 c 128,-1,9
 40 221 40 221 86 317.5 c 128,-1,10
 132 414 132 414 207 498.5 c 128,-1,11
 282 583 282 583 360 623 c 1,12,13
 392 644 392 644 460 644 c 0,14,15
 511 644 511 644 543.5 604.5 c 128,-1,16
 576 565 576 565 576 511.5 c 128,-1,17
 576 458 576 458 568 431 c 1,18,19
 644 456 644 456 714 492 c 1,0,-1
317 527 m 1,20,21
 284 493 284 493 284 461.5 c 128,-1,22
 284 430 284 430 316 411.5 c 128,-1,23
 348 393 348 393 396.5 393 c 128,-1,24
 445 393 445 393 481 402 c 1,25,26
 487 432 487 432 487 460 c 0,27,28
 487 559 487 559 402 559 c 0,29,30
 363 559 363 559 317 527 c 1,20,21
330 149 m 0,31,32
 428 246 428 246 467 351 c 1,33,34
 442 346 442 346 403 346 c 0,35,36
 235 346 235 346 213 421 c 1,37,38
 129 304 129 304 129 191 c 0,39,40
 129 146 129 146 150.5 119 c 128,-1,41
 172 92 172 92 214 92 c 0,42,43
 273 92 273 92 330 149 c 0,31,32
339 690.5 m 128,-1,45
 328 702 328 702 328 718.5 c 128,-1,46
 328 735 328 735 339.5 746.5 c 128,-1,47
 351 758 351 758 367.5 758 c 128,-1,48
 384 758 384 758 395.5 746 c 128,-1,49
 407 734 407 734 407 718 c 128,-1,50
 407 702 407 702 395.5 690.5 c 128,-1,51
 384 679 384 679 367 679 c 128,-1,44
 350 679 350 679 339 690.5 c 128,-1,45
466.5 690.5 m 128,-1,53
 455 702 455 702 455 718.5 c 128,-1,54
 455 735 455 735 466.5 746.5 c 128,-1,55
 478 758 478 758 494 758 c 128,-1,56
 510 758 510 758 522 746 c 128,-1,57
 534 734 534 734 534 718 c 128,-1,58
 534 702 534 702 522.5 690.5 c 128,-1,59
 511 679 511 679 494.5 679 c 128,-1,52
 478 679 478 679 466.5 690.5 c 128,-1,53
EndSplineSet
EndChar

StartChar: Ohungarumlaut
Encoding: 336 336 60
Width: 714
Flags: HMW
HStem: 6 86<184.5 230.5> 346 47<365.5 412.5> 559 85<389 494.5> 775 20G<387 387>
VStem: 40 89<162.5 222.5> 40 244<105 470> 487 89<450.5 544>
LayerCount: 2
Fore
SplineSet
714 492 m 1,0,-1
 714 444 l 1,1,2
 669 418 669 418 548 373 c 1,3,4
 494 238 494 238 377 122 c 128,-1,5
 260 6 260 6 163 6 c 0,6,7
 108 6 108 6 74 45 c 128,-1,8
 40 84 40 84 40 152.5 c 0,9,10
 40 221 40 221 86 317.5 c 128,-1,11
 132 414 132 414 207 498.5 c 128,-1,12
 282 583 282 583 360 623 c 1,13,14
 392 644 392 644 460 644 c 0,15,16
 511 644 511 644 543.5 604.5 c 128,-1,17
 576 565 576 565 576 511.5 c 0,18,19
 576 458 576 458 568 431 c 1,20,21
 644 456 644 456 714 492 c 1,0,-1
317 527 m 1,22,23
 284 493 284 493 284 461.5 c 0,24,25
 284 430 284 430 316 411.5 c 128,-1,26
 348 393 348 393 396.5 393 c 0,27,28
 445 393 445 393 481 402 c 1,29,30
 487 432 487 432 487 460 c 0,31,32
 487 559 487 559 402 559 c 0,33,34
 363 559 363 559 317 527 c 1,22,23
330 149 m 0,35,36
 428 246 428 246 467 351 c 1,37,38
 442 346 442 346 403 346 c 0,39,40
 235 346 235 346 213 421 c 1,41,42
 129 304 129 304 129 191 c 0,43,44
 129 146 129 146 150.5 119 c 128,-1,45
 172 92 172 92 214 92 c 0,46,47
 273 92 273 92 330 149 c 0,35,36
472 770 m 1,48,-1
 336 685 l 1,49,-1
 295 699 l 1,50,-1
 387 795 l 1,51,-1
 472 770 l 1,48,-1
608 760 m 1,52,-1
 468 683 l 1,53,-1
 426 699 l 1,54,-1
 539 788 l 1,55,-1
 608 760 l 1,52,-1
EndSplineSet
EndChar

StartChar: Omacron
Encoding: 332 332 61
Width: 684
Flags: HMW
HStem: 6 86<169.5 215.5> 346 47<350.5 397.5> 559 85<374 479.5> 717 39
VStem: 25 89<162.5 222.5> 25 244<105 470> 472 89<450.5 544>
LayerCount: 2
Fore
SplineSet
699 492 m 1,0,-1
 699 444 l 1,1,2
 654 418 654 418 533 373 c 1,3,4
 479 238 479 238 362 122 c 128,-1,5
 245 6 245 6 148 6 c 0,6,7
 93 6 93 6 59 45 c 128,-1,8
 25 84 25 84 25 152.5 c 0,9,10
 25 221 25 221 71 317.5 c 128,-1,11
 117 414 117 414 192 498.5 c 128,-1,12
 267 583 267 583 345 623 c 1,13,14
 377 644 377 644 445 644 c 0,15,16
 496 644 496 644 528.5 604.5 c 128,-1,17
 561 565 561 565 561 511.5 c 0,18,19
 561 458 561 458 553 431 c 1,20,21
 629 456 629 456 699 492 c 1,0,-1
302 527 m 1,22,23
 269 493 269 493 269 461.5 c 0,24,25
 269 430 269 430 301 411.5 c 128,-1,26
 333 393 333 393 381.5 393 c 0,27,28
 430 393 430 393 466 402 c 1,29,30
 472 432 472 432 472 460 c 0,31,32
 472 559 472 559 387 559 c 0,33,34
 348 559 348 559 302 527 c 1,22,23
315 149 m 0,35,36
 413 246 413 246 452 351 c 1,37,38
 427 346 427 346 388 346 c 0,39,40
 220 346 220 346 198 421 c 1,41,42
 114 304 114 304 114 191 c 0,43,44
 114 146 114 146 135.5 119 c 128,-1,45
 157 92 157 92 199 92 c 0,46,47
 258 92 258 92 315 149 c 0,35,36
501 756 m 1,48,-1
 501 720 l 1,49,-1
 324 714 l 1,50,-1
 315 745 l 1,51,52
 348 752 348 752 501 756 c 1,48,-1
EndSplineSet
EndChar

StartChar: Oslash
Encoding: 216 216 62
Width: 549
Flags: HMW
HStem: -92 21G<227 227> 9 99<114.5 189> 542 86<368 477.5 368 477.5> 681 20G<376 376>
VStem: 33 73<172 248.5> 468 72<426 497.5>
LayerCount: 2
Fore
SplineSet
227 -92 m 1,0,-1
 189 -85 l 1,1,2
 192.909090909 -45.9090909091 192.909090909 -45.9090909091 203 18 c 1,3,4
 176 9 176 9 149 9 c 0,5,6
 97 9 97 9 65 47.5 c 128,-1,7
 33 86 33 86 33 152 c 0,8,9
 33 294 33 294 128 429 c 128,-1,10
 223 564 223 564 347 610 c 1,11,-1
 376 701 l 1,12,-1
 415 692 l 1,13,-1
 394 624 l 1,14,15
 422 628 422 628 437 628 c 0,16,17
 492 628 492 628 516 591.5 c 128,-1,18
 540 555 540 555 540 505 c 0,19,20
 540 424 540 424 497 328 c 128,-1,21
 454 232 454 232 385.5 152.5 c 128,-1,22
 317 73 317 73 245 35 c 1,23,24
 234 -26 234 -26 227 -92 c 1,0,-1
183 108 m 0,25,26
 199 108 199 108 219 113 c 1,27,28
 256 315 256 315 321 528 c 1,29,30
 241 488 241 488 173.5 388 c 128,-1,31
 106 288 106 288 106 202 c 0,32,33
 106 159 106 159 128.5 133.5 c 128,-1,34
 151 108 151 108 183 108 c 0,25,26
378 542 m 2,35,-1
 368 542 l 1,36,37
 296 305 296 305 261 131 c 1,38,39
 342 177 342 177 405 287 c 128,-1,40
 468 397 468 397 468 476 c 0,41,42
 468 508 468 508 443.5 525 c 128,-1,43
 419 542 419 542 378 542 c 2,35,-1
EndSplineSet
EndChar

StartChar: Oslashacute
Encoding: 510 510 63
Width: 684
Flags: HMW
HStem: -126 21G<105 105> 559 85<374 457.5> 753 20G<420 420>
VStem: 25 89<167 222.5> 25 244<109.5 470>
LayerCount: 2
Fore
SplineSet
583 721 m 1,0,-1
 622 700 l 1,1,2
 580 645 580 645 540 588 c 1,3,4
 561 551 561 551 561 504.5 c 128,-1,5
 561 458 561 458 553 431 c 1,6,7
 629 456 629 456 699 492 c 1,8,-1
 699 444 l 1,9,10
 654 418 654 418 533 373 c 1,11,12
 483 248 483 248 377 136.5 c 128,-1,13
 271 25 271 25 176 8 c 1,14,15
 152 -34 152 -34 105 -126 c 1,16,-1
 61 -113 l 1,17,18
 89 -57 89 -57 124 8 c 1,19,20
 79 16 79 16 52 53.5 c 128,-1,21
 25 91 25 91 25 156 c 128,-1,22
 25 221 25 221 71 317.5 c 128,-1,23
 117 414 117 414 192 498.5 c 128,-1,24
 267 583 267 583 345 623 c 1,25,26
 377 644 377 644 445 644 c 0,27,28
 482 644 482 644 510 622 c 1,29,-1
 583 721 l 1,0,-1
114 191 m 0,30,31
 114 111 114 111 172 95 c 1,32,33
 241 220 241 220 324 349 c 1,34,35
 214 364 214 364 198 421 c 1,36,37
 114 304 114 304 114 191 c 0,30,31
302 527 m 1,38,39
 269 493 269 493 269 464 c 0,40,41
 269 407.6 269 407.6 353 395 c 1,42,43
 389 449 389 449 449 535 c 1,44,45
 427 559 427 559 387.5 559 c 128,-1,46
 348 559 348 559 302 527 c 1,38,39
315 149 m 0,47,48
 413 246 413 246 452 351 c 1,49,50
 427 346 427 346 388 346 c 2,51,-1
 374 346 l 1,52,53
 288 210 288 210 223 95 c 1,54,55
 270 104 270 104 315 149 c 0,47,48
488 733 m 1,56,-1
 317 677 l 1,57,-1
 288 695 l 1,58,-1
 420 773 l 1,59,-1
 488 733 l 1,56,-1
466 402 m 1,60,61
 472 432 472 432 472 451.5 c 128,-1,62
 472 471 472 471 470 489 c 1,63,64
 436 440 436 440 405 393 c 1,65,66
 439 395 439 395 466 402 c 1,60,61
EndSplineSet
EndChar

StartChar: P
Encoding: 80 80 64
Width: 658
Flags: HMW
HStem: -137 21G<16.5 61.5> 71 45<242 272.5 240 330.5> 545 86<463.5 571> 618 20G<370 370>
VStem: -20 76<-16.5 0> 539 89<446.5 501>
LayerCount: 2
Fore
SplineSet
473 618.5 m 128,-1,1
 503 631 503 631 543.5 631 c 128,-1,2
 584 631 584 631 606 603 c 128,-1,3
 628 575 628 575 628 523 c 0,4,5
 628 430 628 430 568 323 c 128,-1,6
 508 216 508 216 418 143.5 c 128,-1,7
 328 71 328 71 248 71 c 0,8,9
 228 71 228 71 202 73 c 1,10,11
 153 -31 153 -31 113 -84 c 128,-1,12
 73 -137 73 -137 33 -137 c 0,13,14
 8 -137 8 -137 -6 -119 c 128,-1,15
 -20 -101 -20 -101 -20 -69 c 0,16,17
 -20 34 -20 34 75 206.5 c 128,-1,18
 170 379 170 379 284 483 c 1,19,20
 300 549 300 549 300 579.5 c 128,-1,21
 300 610 300 610 298 626 c 1,22,-1
 370 638 l 1,23,24
 370 631 370 631 361 550 c 1,25,0
 443 606 443 606 473 618.5 c 128,-1,1
132 145 m 1,26,-1
 160 131 l 1,27,28
 223 254 223 254 266 407 c 1,29,30
 174 292 174 292 115 173 c 128,-1,31
 56 54 56 54 56 -10 c 0,32,33
 56 -29 56 -29 68 -29 c 0,34,35
 77 -29 77 -29 100 8.5 c 128,-1,36
 123 46 123 46 139 85 c 1,37,38
 126 91 126 91 114 103 c 1,39,-1
 132 145 l 1,26,-1
223 117 m 1,40,-1
 242 116 l 1,41,42
 339 116 339 116 424 218 c 0,43,44
 472 277 472 277 505.5 353 c 128,-1,45
 539 429 539 429 539 482 c 0,46,47
 539 511 539 511 523.5 528 c 128,-1,48
 508 545 508 545 481 545 c 0,49,50
 432 545 432 545 351 491 c 1,51,52
 333 356 333 356 223 117 c 1,40,-1
EndSplineSet
EndChar

StartChar: Q
Encoding: 81 81 65
Width: 665
Flags: HMW
HStem: -27 62<505 550.5 505 563> 1 246<116.5 300.5> 178 69<264 287> 567 72<371.5 414>
VStem: 30 104<178.5 232.5> 471 95<445.5 479.5>
LayerCount: 2
Fore
SplineSet
625 111 m 1,0,-1
 685 77 l 1,1,2
 614 -27 614 -27 531 -27 c 0,3,4
 474.377777778 -27 474.377777778 -27 434 12.5 c 0,5,6
 401.385245902 44.4057377049 401.385245902 44.4057377049 356 106 c 1,7,8
 244 1 244 1 153 1 c 0,9,10
 98 1 98 1 64 40 c 128,-1,11
 30 79 30 79 30 144 c 128,-1,12
 30 209 30 209 68.5 296 c 128,-1,13
 107 383 107 383 166 458.5 c 128,-1,14
 225 534 225 534 302.5 586.5 c 128,-1,15
 380 639 380 639 450 639 c 0,16,17
 501 639 501 639 533.5 599.5 c 128,-1,18
 566 560 566 560 566 490.5 c 128,-1,19
 566 421 566 421 519.5 327 c 128,-1,20
 473 233 473 233 399 150 c 1,21,22
 422 118 422 118 437 98.5 c 128,-1,23
 452 79 452 79 479.5 57 c 128,-1,24
 507 35 507 35 533.5 35 c 128,-1,25
 560 35 560 35 590 59.5 c 128,-1,26
 620 84 620 84 625 111 c 1,0,-1
314 545 m 0,27,28
 243 494 243 494 188.5 387.5 c 128,-1,29
 134 281 134 281 134 197 c 0,30,31
 134 139 134 139 160 110 c 1,32,33
 179 176 179 176 213 211.5 c 128,-1,34
 247 247 247 247 288 247 c 0,35,36
 303 247 303 247 311.5 244.5 c 0,37,38
 333.732590529 237.961002786 333.732590529 237.961002786 370 189 c 1,39,40
 414 248 414 248 442.5 319.5 c 128,-1,41
 471 391 471 391 471 444.5 c 128,-1,42
 471 498 471 498 448.5 532.5 c 128,-1,43
 426 567 426 567 386 567 c 128,-1,44
 346 567 346 567 314 545 c 0,27,28
220 81 m 1,45,-1
 228 82 l 1,46,47
 279 87 279 87 328 144 c 1,48,49
 300 178 300 178 274 178 c 0,50,51
 260 178 260 178 251.5 175 c 128,-1,52
 243 172 243 172 227 150 c 128,-1,53
 211 128 211 128 196 85 c 1,54,55
 210 81 210 81 220 81 c 1,45,-1
EndSplineSet
EndChar

StartChar: R
Encoding: 82 82 66
Width: 635
Flags: HMW
HStem: -117 21G<406 462.5> 7 94<110 113.5> 561 76<474 593.5>
VStem: 30 68<115.5 126> 268 86 551 104<490 522>
LayerCount: 2
Fore
SplineSet
500 -65 m 1,0,-1
 505 -112 l 1,1,2
 477 -117 477 -117 456 -117 c 0,3,4
 409 -117 409 -117 366 -54.5 c 128,-1,5
 323 8 323 8 298.5 92 c 128,-1,6
 274 176 274 176 268 254 c 1,7,8
 218 124 218 124 173.5 65.5 c 128,-1,9
 129 7 129 7 82 7 c 0,10,11
 58 7 58 7 44 26.5 c 128,-1,12
 30 46 30 46 30 78 c 0,13,14
 30 152 30 152 98.5 266 c 128,-1,15
 167 380 167 380 259 453 c 1,16,17
 261 459 261 459 276.5 526 c 128,-1,18
 292 593 292 593 295 600 c 1,19,-1
 353 605 l 1,20,21
 353 588 353 588 344 534 c 1,22,23
 479 637 479 637 566 637 c 0,24,25
 607 637 607 637 631 614.5 c 128,-1,26
 655 592 655 592 655 554 c 0,27,28
 655 459 655 459 559 362.5 c 128,-1,29
 463 266 463 266 354 249 c 1,30,31
 362 104 362 104 404.5 22 c 128,-1,32
 447 -60 447 -60 500 -65 c 1,0,-1
209 269 m 0,33,34
 236 341 236 341 246 384 c 1,35,36
 191 333 191 333 144.5 248 c 128,-1,37
 98 163 98 163 98 122 c 0,38,39
 98 101 98 101 115 101 c 0,40,41
 145 101 145 101 209 269 c 0,33,34
277 283 m 1,42,43
 383 283 383 283 467 357 c 128,-1,44
 551 431 551 431 551 504 c 0,45,46
 551 531 551 531 537.5 546 c 128,-1,47
 524 561 524 561 495 561 c 0,48,49
 466 561 466 561 411 528.5 c 128,-1,50
 356 496 356 496 332 475 c 1,51,52
 301 352 301 352 277 283 c 1,42,43
EndSplineSet
EndChar

StartChar: Racute
Encoding: 340 340 67
Width: 655
Flags: HMW
HStem: -117 21G<416 472.5> 7 94<120 123.5> 561 76<484 603.5> 761 20G<499 499>
VStem: 40 68<115.5 126> 278 86 561 104<490 522>
LayerCount: 2
Fore
SplineSet
510 -65 m 1,0,-1
 515 -112 l 1,1,2
 487 -117 487 -117 466 -117 c 0,3,4
 419 -117 419 -117 376 -54.5 c 128,-1,5
 333 8 333 8 308.5 92 c 128,-1,6
 284 176 284 176 278 254 c 1,7,8
 228 124 228 124 183.5 65.5 c 128,-1,9
 139 7 139 7 92 7 c 0,10,11
 68 7 68 7 54 26.5 c 128,-1,12
 40 46 40 46 40 78 c 0,13,14
 40 152 40 152 108.5 266 c 128,-1,15
 177 380 177 380 269 453 c 1,16,17
 271 459 271 459 286.5 526 c 128,-1,18
 302 593 302 593 305 600 c 1,19,-1
 363 605 l 1,20,21
 363 588 363 588 354 534 c 1,22,23
 489 637 489 637 576 637 c 0,24,25
 617 637 617 637 641 614.5 c 128,-1,26
 665 592 665 592 665 554 c 0,27,28
 665 459 665 459 569 362.5 c 128,-1,29
 473 266 473 266 364 249 c 1,30,31
 372 104 372 104 414.5 22 c 128,-1,32
 457 -60 457 -60 510 -65 c 1,0,-1
219 269 m 0,33,34
 246 341 246 341 256 384 c 1,35,36
 201 333 201 333 154.5 248 c 128,-1,37
 108 163 108 163 108 122 c 0,38,39
 108 101 108 101 125 101 c 0,40,41
 155 101 155 101 219 269 c 0,33,34
287 283 m 1,42,43
 393 283 393 283 477 357 c 128,-1,44
 561 431 561 431 561 504 c 0,45,46
 561 531 561 531 547.5 546 c 128,-1,47
 534 561 534 561 505 561 c 0,48,49
 476 561 476 561 421 528.5 c 128,-1,50
 366 496 366 496 342 475 c 1,51,52
 311 352 311 352 287 283 c 1,42,43
567 741 m 1,53,-1
 396 685 l 1,54,-1
 367 703 l 1,55,-1
 499 781 l 1,56,-1
 567 741 l 1,53,-1
EndSplineSet
EndChar

StartChar: Rcaron
Encoding: 344 344 68
Width: 655
Flags: HMW
HStem: -117 21G<416 472.5> 7 94<120 123.5> 561 76<484 603.5> 789 20G<395 395>
VStem: 40 68<115.5 126> 278 86 561 104<490 522>
LayerCount: 2
Fore
SplineSet
510 -65 m 1,0,-1
 515 -112 l 1,1,2
 487 -117 487 -117 466 -117 c 0,3,4
 419 -117 419 -117 376 -54.5 c 128,-1,5
 333 8 333 8 308.5 92 c 128,-1,6
 284 176 284 176 278 254 c 1,7,8
 228 124 228 124 183.5 65.5 c 128,-1,9
 139 7 139 7 92 7 c 0,10,11
 68 7 68 7 54 26.5 c 128,-1,12
 40 46 40 46 40 78 c 0,13,14
 40 152 40 152 108.5 266 c 128,-1,15
 177 380 177 380 269 453 c 1,16,17
 271 459 271 459 286.5 526 c 128,-1,18
 302 593 302 593 305 600 c 1,19,-1
 363 605 l 1,20,21
 363 588 363 588 354 534 c 1,22,23
 489 637 489 637 576 637 c 0,24,25
 617 637 617 637 641 614.5 c 128,-1,26
 665 592 665 592 665 554 c 0,27,28
 665 459 665 459 569 362.5 c 128,-1,29
 473 266 473 266 364 249 c 1,30,31
 372 104 372 104 414.5 22 c 128,-1,32
 457 -60 457 -60 510 -65 c 1,0,-1
219 269 m 0,33,34
 246 341 246 341 256 384 c 1,35,36
 201 333 201 333 154.5 248 c 128,-1,37
 108 163 108 163 108 122 c 0,38,39
 108 101 108 101 125 101 c 0,40,41
 155 101 155 101 219 269 c 0,33,34
287 283 m 1,42,43
 393 283 393 283 477 357 c 128,-1,44
 561 431 561 431 561 504 c 0,45,46
 561 531 561 531 547.5 546 c 128,-1,47
 534 561 534 561 505 561 c 128,-1,48
 476 561 476 561 421 528.5 c 128,-1,49
 366 496 366 496 342 475 c 1,50,51
 311 352 311 352 287 283 c 1,42,43
498 671 m 1,52,-1
 351 785 l 1,53,-1
 395 809 l 1,54,55
 450 767 450 767 494 739 c 1,56,57
 512 752 512 752 597 803 c 1,58,-1
 627 779 l 1,59,60
 611.571428571 761.857142857 611.571428571 761.857142857 525.5 693 c 2,61,-1
 498 671 l 1,52,-1
EndSplineSet
EndChar

StartChar: S
Encoding: 83 83 69
Width: 627
Flags: HMW
HStem: -193 65<126 176.5> 562 75<451 451.5>
VStem: -20 100<-94.5 -44> 187 85<372 414.5> 443 90<61 109> 473 97<511 591>
LayerCount: 2
Fore
SplineSet
526 181 m 1,0,-1
 597 182 l 1,1,-1
 597 141 l 1,2,3
 585 143 585 143 569 143 c 128,-1,4
 553 143 553 143 533 141 c 1,5,6
 533 64 533 64 459 -15 c 128,-1,7
 385 -94 385 -94 280.5 -143.5 c 128,-1,8
 176 -193 176 -193 86 -193 c 0,9,10
 39 -193 39 -193 9.5 -169 c 128,-1,11
 -20 -145 -20 -145 -20 -106 c 0,12,13
 -20 -48 -20 -48 57 15 c 128,-1,14
 134 78 134 78 237 119 c 128,-1,15
 340 160 340 160 423 167 c 1,16,17
 413 182 413 182 392 193 c 128,-1,18
 371 204 371 204 306 227.5 c 128,-1,19
 241 251 241 251 214 279.5 c 128,-1,20
 187 308 187 308 187 360 c 128,-1,21
 187 412 187 412 243 479 c 128,-1,22
 299 546 299 546 375.5 591.5 c 128,-1,23
 452 637 452 637 510 637 c 0,24,25
 536 637 536 637 553 618.5 c 128,-1,26
 570 600 570 600 570 573 c 0,27,28
 570 529 570 529 517 462.5 c 128,-1,29
 464 396 464 396 399 361 c 1,30,-1
 375 395 l 1,31,32
 414 415 414 415 443.5 457.5 c 128,-1,33
 473 500 473 500 473 531 c 128,-1,34
 473 562 473 562 440 562 c 0,35,36
 393 562 393 562 332.5 503.5 c 128,-1,37
 272 445 272 445 272 394 c 0,38,39
 272 359 272 359 290 339 c 128,-1,40
 308 319 308 319 381 289.5 c 128,-1,41
 454 260 454 260 485 237.5 c 128,-1,42
 516 215 516 215 526 181 c 1,0,-1
80 -80 m 0,43,44
 80 -128 80 -128 158.5 -128 c 0,45,46
 201 -128 201 -128 269.5 -96.5 c 128,-1,47
 338 -65 338 -65 390.5 -8.5 c 128,-1,48
 443 48 443 48 443 107 c 0,49,50
 443 114 443 114 440 128 c 1,51,52
 303 115 303 115 191.5 51 c 128,-1,53
 80 -13 80 -13 80 -80 c 0,43,44
EndSplineSet
EndChar

StartChar: Sacute
Encoding: 346 346 70
Width: 647
Flags: HMW
HStem: -193 65<136 186.5> 562 75<461 461.5> 757 20G<460 460>
VStem: -10 100<-94.5 -44> 197 85<372 414.5> 453 90<61 109> 483 97<511 591>
LayerCount: 2
Fore
SplineSet
536 181 m 1,0,-1
 607 182 l 1,1,-1
 607 141 l 1,2,3
 595 143 595 143 579 143 c 128,-1,4
 563 143 563 143 543 141 c 1,5,6
 543 64 543 64 469 -15 c 128,-1,7
 395 -94 395 -94 290.5 -143.5 c 128,-1,8
 186 -193 186 -193 96 -193 c 0,9,10
 49 -193 49 -193 19.5 -169 c 128,-1,11
 -10 -145 -10 -145 -10 -106 c 0,12,13
 -10 -48 -10 -48 67 15 c 128,-1,14
 144 78 144 78 247 119 c 128,-1,15
 350 160 350 160 433 167 c 1,16,17
 423 182 423 182 402 193 c 128,-1,18
 381 204 381 204 316 227.5 c 128,-1,19
 251 251 251 251 224 279.5 c 128,-1,20
 197 308 197 308 197 360 c 128,-1,21
 197 412 197 412 253 479 c 128,-1,22
 309 546 309 546 385.5 591.5 c 128,-1,23
 462 637 462 637 520 637 c 0,24,25
 546 637 546 637 563 618.5 c 128,-1,26
 580 600 580 600 580 573 c 0,27,28
 580 529 580 529 527 462.5 c 128,-1,29
 474 396 474 396 409 361 c 1,30,-1
 385 395 l 1,31,32
 424 415 424 415 453.5 457.5 c 128,-1,33
 483 500 483 500 483 531 c 128,-1,34
 483 562 483 562 450 562 c 0,35,36
 403 562 403 562 342.5 503.5 c 128,-1,37
 282 445 282 445 282 394 c 0,38,39
 282 359 282 359 300 339 c 128,-1,40
 318 319 318 319 391 289.5 c 128,-1,41
 464 260 464 260 495 237.5 c 128,-1,42
 526 215 526 215 536 181 c 1,0,-1
90 -80 m 0,43,44
 90 -128 90 -128 168.5 -128 c 0,45,46
 211 -128 211 -128 279.5 -96.5 c 128,-1,47
 348 -65 348 -65 400.5 -8.5 c 128,-1,48
 453 48 453 48 453 107 c 0,49,50
 453 114 453 114 450 128 c 1,51,52
 313 115 313 115 201.5 51 c 128,-1,53
 90 -13 90 -13 90 -80 c 0,43,44
528 737 m 1,54,-1
 357 681 l 1,55,-1
 328 699 l 1,56,-1
 460 777 l 1,57,-1
 528 737 l 1,54,-1
EndSplineSet
EndChar

StartChar: Scaron
Encoding: 352 352 71
Width: 647
Flags: HMW
HStem: -193 65<136 186.5> 562 75<461 461.5> 790 20G<311 311>
VStem: -10 100<-94.5 -44> 197 85<372 414.5> 453 90<61 109> 483 97<511 591>
LayerCount: 2
Fore
SplineSet
536 181 m 1,0,-1
 607 182 l 1,1,-1
 607 141 l 1,2,3
 595 143 595 143 579 143 c 128,-1,4
 563 143 563 143 543 141 c 1,5,6
 543 64 543 64 469 -15 c 128,-1,7
 395 -94 395 -94 290.5 -143.5 c 128,-1,8
 186 -193 186 -193 96 -193 c 0,9,10
 49 -193 49 -193 19.5 -169 c 128,-1,11
 -10 -145 -10 -145 -10 -106 c 0,12,13
 -10 -48 -10 -48 67 15 c 128,-1,14
 144 78 144 78 247 119 c 128,-1,15
 350 160 350 160 433 167 c 1,16,17
 423 182 423 182 402 193 c 128,-1,18
 381 204 381 204 316 227.5 c 128,-1,19
 251 251 251 251 224 279.5 c 128,-1,20
 197 308 197 308 197 360 c 128,-1,21
 197 412 197 412 253 479 c 128,-1,22
 309 546 309 546 385.5 591.5 c 128,-1,23
 462 637 462 637 520 637 c 0,24,25
 546 637 546 637 563 618.5 c 128,-1,26
 580 600 580 600 580 573 c 0,27,28
 580 529 580 529 527 462.5 c 128,-1,29
 474 396 474 396 409 361 c 1,30,-1
 385 395 l 1,31,32
 424 415 424 415 453.5 457.5 c 128,-1,33
 483 500 483 500 483 531 c 128,-1,34
 483 562 483 562 450 562 c 0,35,36
 403 562 403 562 342.5 503.5 c 128,-1,37
 282 445 282 445 282 394 c 0,38,39
 282 359 282 359 300 339 c 128,-1,40
 318 319 318 319 391 289.5 c 128,-1,41
 464 260 464 260 495 237.5 c 128,-1,42
 526 215 526 215 536 181 c 1,0,-1
90 -80 m 0,43,44
 90 -128 90 -128 168.5 -128 c 0,45,46
 211 -128 211 -128 279.5 -96.5 c 128,-1,47
 348 -65 348 -65 400.5 -8.5 c 128,-1,48
 453 48 453 48 453 107 c 0,49,50
 453 114 453 114 450 128 c 1,51,52
 313 115 313 115 201.5 51 c 128,-1,53
 90 -13 90 -13 90 -80 c 0,43,44
414 672 m 1,54,-1
 267 786 l 1,55,-1
 311 810 l 1,56,57
 366 768 366 768 410 740 c 1,58,59
 428 753 428 753 513 804 c 1,60,-1
 543 780 l 1,61,62
 527.571428571 762.857142857 527.571428571 762.857142857 441.5 694 c 2,63,-1
 414 672 l 1,54,-1
EndSplineSet
EndChar

StartChar: Scedilla
Encoding: 350 350 72
Width: 538
Flags: HMW
HStem: -275 27<88.5 104.5 68 133.5> -160 40<157 217> -96 57<154 215 140 227> 562 75<409.5 410>
VStem: 19 83<15 47.5> 139 91<369.5 421> 189 70<-190 -174.5> 360 97<133.5 165.5> 431 97<511 588.5>
LayerCount: 2
Fore
SplineSet
137 -133 m 1,0,1
 161 -120 161 -120 193.5 -120 c 128,-1,2
 226 -120 226 -120 242.5 -133 c 128,-1,3
 259 -146 259 -146 259 -166 c 0,4,5
 259 -203 259 -203 206 -239 c 128,-1,6
 153 -275 153 -275 91 -275 c 0,7,8
 80 -275 80 -275 67 -272 c 1,9,-1
 68 -248 l 1,10,11
 119 -248 119 -248 154 -226 c 128,-1,12
 189 -204 189 -204 189 -180 c 0,13,14
 189 -172 189 -172 181.5 -166 c 128,-1,15
 174 -160 174 -160 163.5 -160 c 128,-1,16
 153 -160 153 -160 132 -174 c 1,17,18
 108 -187 108 -187 101 -187 c 128,-1,19
 94 -187 94 -187 89 -183 c 128,-1,20
 84 -179 84 -179 84 -169 c 128,-1,21
 84 -159 84 -159 117 -93 c 1,22,23
 63 -84 63 -84 41 -53.5 c 128,-1,24
 19 -23 19 -23 19 10 c 0,25,26
 19 72 19 72 86.5 126 c 128,-1,27
 154 180 154 180 267 186 c 1,28,-1
 257 158 l 1,29,30
 183 148 183 148 142.5 111 c 128,-1,31
 102 74 102 74 102 31 c 0,32,33
 102 4 102 4 117 -17.5 c 128,-1,34
 132 -39 132 -39 159 -39 c 0,35,36
 237 -39 237 -39 298.5 25.5 c 128,-1,37
 360 90 360 90 360 148 c 0,38,39
 360 177 360 177 335.5 199.5 c 128,-1,40
 311 222 311 222 253 237.5 c 128,-1,41
 195 253 195 253 167 286 c 128,-1,42
 139 319 139 319 139 357 c 0,43,44
 139 417 139 417 198 484.5 c 128,-1,45
 257 552 257 552 333 594.5 c 128,-1,46
 409 637 409 637 462 637 c 0,47,48
 496 637 496 637 512 618 c 128,-1,49
 528 599 528 599 528 575 c 0,50,51
 528 529 528 529 475.5 462.5 c 128,-1,52
 423 396 423 396 357 361 c 1,53,-1
 333 395 l 1,54,55
 372 415 372 415 401.5 457.5 c 128,-1,56
 431 500 431 500 431 531 c 128,-1,57
 431 562 431 562 399 562 c 0,58,59
 350 562 350 562 290 503.5 c 128,-1,60
 230 445 230 445 230 385 c 0,61,62
 230 360 230 360 250 339.5 c 128,-1,63
 270 319 270 319 332.5 292.5 c 128,-1,64
 395 266 395 266 426 241.5 c 128,-1,65
 457 217 457 217 457 181.5 c 128,-1,66
 457 146 457 146 430 97.5 c 128,-1,67
 403 49 403 49 361 6 c 128,-1,68
 319 -37 319 -37 262.5 -66.5 c 128,-1,69
 206 -96 206 -96 154 -96 c 1,70,-1
 137 -133 l 1,0,1
EndSplineSet
EndChar

StartChar: Scircumflex
Encoding: 348 348 73
Width: 617
Flags: HMW
HStem: -193 65<121 171.5> 562 75<446 446.5> 794 20G<420 420>
VStem: -25 100<-94.5 -44> 182 85<372 414.5> 438 90<61 109> 468 97<511 591>
LayerCount: 2
Fore
SplineSet
521 181 m 1,0,-1
 592 182 l 1,1,-1
 592 141 l 1,2,3
 580 143 580 143 564 143 c 128,-1,4
 548 143 548 143 528 141 c 1,5,6
 528 64 528 64 454 -15 c 128,-1,7
 380 -94 380 -94 275.5 -143.5 c 128,-1,8
 171 -193 171 -193 81 -193 c 0,9,10
 34 -193 34 -193 4.5 -169 c 128,-1,11
 -25 -145 -25 -145 -25 -106 c 0,12,13
 -25 -48 -25 -48 52 15 c 128,-1,14
 129 78 129 78 232 119 c 128,-1,15
 335 160 335 160 418 167 c 1,16,17
 408 182 408 182 387 193 c 128,-1,18
 366 204 366 204 301 227.5 c 128,-1,19
 236 251 236 251 209 279.5 c 128,-1,20
 182 308 182 308 182 360 c 128,-1,21
 182 412 182 412 238 479 c 128,-1,22
 294 546 294 546 370.5 591.5 c 128,-1,23
 447 637 447 637 505 637 c 0,24,25
 531 637 531 637 548 618.5 c 128,-1,26
 565 600 565 600 565 573 c 0,27,28
 565 529 565 529 512 462.5 c 128,-1,29
 459 396 459 396 394 361 c 1,30,-1
 370 395 l 1,31,32
 409 415 409 415 438.5 457.5 c 128,-1,33
 468 500 468 500 468 531 c 128,-1,34
 468 562 468 562 435 562 c 0,35,36
 388 562 388 562 327.5 503.5 c 128,-1,37
 267 445 267 445 267 394 c 0,38,39
 267 359 267 359 285 339 c 128,-1,40
 303 319 303 319 376 289.5 c 128,-1,41
 449 260 449 260 480 237.5 c 128,-1,42
 511 215 511 215 521 181 c 1,0,-1
75 -80 m 0,43,44
 75 -128 75 -128 153.5 -128 c 0,45,46
 196 -128 196 -128 264.5 -96.5 c 128,-1,47
 333 -65 333 -65 385.5 -8.5 c 128,-1,48
 438 48 438 48 438 107 c 0,49,50
 438 114 438 114 435 128 c 1,51,52
 298 115 298 115 186.5 51 c 128,-1,53
 75 -13 75 -13 75 -80 c 0,43,44
273 700 m 1,54,-1
 420 814 l 1,55,56
 528 728 528 728 549 706 c 1,57,-1
 519 682 l 1,58,59
 434 733 434 733 416 746 c 1,60,-1
 317 676 l 1,61,-1
 273 700 l 1,54,-1
EndSplineSet
EndChar

StartChar: T
Encoding: 84 84 74
Width: 570
Flags: HMW
HStem: 4 48<120.5 154 120.5 178> 343 63<134 152> 558 66 558 73<245 332.5> 620 20G<644 650>
VStem: 30 57<445.5 483.5>
LayerCount: 2
Fore
SplineSet
449 555 m 1,0,-1
 306 558 l 1,1,2
 87 558 87 558 87 462 c 0,3,4
 87 437 87 437 105.5 421.5 c 128,-1,5
 124 406 124 406 161 406 c 128,-1,6
 198 406 198 406 258 440 c 1,7,-1
 273 414 l 1,8,9
 242 381 242 381 203 362 c 128,-1,10
 164 343 164 343 125 343 c 128,-1,11
 86 343 86 343 58 369 c 128,-1,12
 30 395 30 395 30 434 c 0,13,14
 30 513 30 513 115.5 572 c 128,-1,15
 201 631 201 631 347 631 c 0,16,17
 359 631 359 631 433 627 c 128,-1,18
 507 623 507 623 550 623 c 128,-1,19
 593 623 593 623 629 636 c 0,20,21
 643 640 643 640 646 640 c 0,22,23
 660 640 660 640 660 622 c 0,24,25
 660 596 660 596 614.5 575 c 128,-1,26
 569 554 569 554 510 554 c 1,27,28
 444 490 444 490 394.5 330.5 c 128,-1,29
 345 171 345 171 276.5 87.5 c 128,-1,30
 208 4 208 4 114 4 c 0,31,32
 77 4 77 4 44 28 c 1,33,-1
 67 66 l 1,34,35
 79 60 79 60 94 55 c 1,36,-1
 108 53 l 2,37,38
 113 52 113 52 123 52 c 0,39,40
 173 52 173 52 212.5 100 c 128,-1,41
 252 148 252 148 295.5 281.5 c 128,-1,42
 339 415 339 415 363.5 458.5 c 128,-1,43
 388 502 388 502 449 555 c 1,0,-1
EndSplineSet
EndChar

StartChar: Tbar
Encoding: 358 358 75
Width: 560
Flags: HMW
HStem: 4 48<115.5 142.5 115.5 155.5> 186 55 343 63<129 147> 558 66 558 73<240 327.5> 620 20G<639 645>
VStem: 25 57<445.5 483.5>
LayerCount: 2
Fore
SplineSet
444 555 m 1,0,-1
 301 558 l 1,1,2
 82 558 82 558 82 462 c 0,3,4
 82 437 82 437 100.5 421.5 c 128,-1,5
 119 406 119 406 156 406 c 128,-1,6
 193 406 193 406 253 440 c 1,7,-1
 268 414 l 1,8,9
 237 381 237 381 198 362 c 128,-1,10
 159 343 159 343 120 343 c 128,-1,11
 81 343 81 343 53 369 c 128,-1,12
 25 395 25 395 25 434 c 0,13,14
 25 513 25 513 110.5 572 c 128,-1,15
 196 631 196 631 342 631 c 0,16,17
 354 631 354 631 428 627 c 128,-1,18
 502 623 502 623 545 623 c 128,-1,19
 588 623 588 623 624 636 c 0,20,21
 638 640 638 640 641 640 c 0,22,23
 655 640 655 640 655 622 c 0,24,25
 655 596 655 596 609.5 575 c 128,-1,26
 564 554 564 554 505 554 c 1,27,28
 439 490 439 490 393 341 c 0,29,30
 375 283 375 283 356 237 c 1,31,-1
 474 246 l 1,32,-1
 474 190 l 1,33,-1
 331 183 l 1,34,35
 243 4 243 4 109 4 c 0,36,37
 72 4 72 4 39 28 c 1,38,-1
 62 66 l 1,39,40
 74 60 74 60 89 55 c 1,41,-1
 103 53 l 2,42,43
 108 52 108 52 118 52 c 0,44,45
 158 52 158 52 189.5 80 c 128,-1,46
 221 108 221 108 254 183 c 1,47,-1
 135 175 l 1,48,-1
 119 216 l 1,49,50
 129 217 129 217 162.5 222.5 c 0,51,52
 238.636363636 235 238.636363636 235 275 235 c 1,53,-1
 291 283 l 2,54,55
 336 416 336 416 359.5 459 c 128,-1,56
 383 502 383 502 444 555 c 1,0,-1
EndSplineSet
EndChar

StartChar: Tcaron
Encoding: 356 356 76
Width: 590
Flags: HMW
HStem: 4 48<130.5 164 130.5 188> 343 63<144 162> 554 77 620 20G<654 660> 785 20G<346 346>
VStem: 40 57<445.5 483.5>
LayerCount: 2
Fore
SplineSet
459 555 m 1,0,-1
 316 558 l 1,1,2
 97 558 97 558 97 462 c 0,3,4
 97 437 97 437 115.5 421.5 c 128,-1,5
 134 406 134 406 171 406 c 128,-1,6
 208 406 208 406 268 440 c 1,7,-1
 283 414 l 1,8,9
 252 381 252 381 213 362 c 128,-1,10
 174 343 174 343 135 343 c 128,-1,11
 96 343 96 343 68 369 c 128,-1,12
 40 395 40 395 40 434 c 0,13,14
 40 513 40 513 125.5 572 c 128,-1,15
 211 631 211 631 357 631 c 0,16,17
 369 631 369 631 443 627 c 128,-1,18
 517 623 517 623 560 623 c 128,-1,19
 603 623 603 623 639 636 c 0,20,21
 653 640 653 640 656 640 c 0,22,23
 670 640 670 640 670 622 c 0,24,25
 670 596 670 596 624.5 575 c 128,-1,26
 579 554 579 554 520 554 c 1,27,28
 454 490 454 490 404.5 330.5 c 128,-1,29
 355 171 355 171 286.5 87.5 c 128,-1,30
 218 4 218 4 124 4 c 0,31,32
 87 4 87 4 54 28 c 1,33,-1
 77 66 l 1,34,35
 89 60 89 60 104 55 c 1,36,-1
 118 53 l 2,37,38
 123 52 123 52 133 52 c 0,39,40
 183 52 183 52 222.5 100 c 128,-1,41
 262 148 262 148 305.5 281.5 c 128,-1,42
 349 415 349 415 373.5 458.5 c 128,-1,43
 398 502 398 502 459 555 c 1,0,-1
449 667 m 1,44,-1
 302 781 l 1,45,-1
 346 805 l 1,46,47
 401 763 401 763 445 735 c 1,48,49
 463 748 463 748 548 799 c 1,50,-1
 578 775 l 1,51,52
 562.571428571 757.857142857 562.571428571 757.857142857 476.5 689 c 2,53,-1
 449 667 l 1,44,-1
EndSplineSet
EndChar

StartChar: U
Encoding: 85 85 77
Width: 701
Flags: HMW
HStem: -39 75<487.5 515.5> -3 79<170.5 179.5> 518 94<578 582> 644 20G<399 399>
VStem: 30 92<132 209> 376 69 591 80<485 579>
LayerCount: 2
Fore
SplineSet
563 78 m 1,0,-1
 595 52 l 1,1,2
 583 18 583 18 554 -10.5 c 128,-1,3
 525 -39 525 -39 491 -39 c 0,4,5
 445 -39 445 -39 416 6 c 128,-1,6
 387 51 387 51 378 136 c 1,7,8
 332 86 332 86 263 41.5 c 128,-1,9
 194 -3 194 -3 142 -3 c 0,10,11
 90 -3 90 -3 60 32 c 128,-1,12
 30 67 30 67 30 122 c 0,13,14
 30 247 30 247 152 419 c 128,-1,15
 274 591 274 591 399 664 c 1,16,-1
 426 626 l 1,17,18
 312 541 312 541 217 402 c 128,-1,19
 122 263 122 263 122 158 c 0,20,21
 122 119 122 119 140.5 97.5 c 128,-1,22
 159 76 159 76 192.5 76 c 0,23,24
 226 76 226 76 286 115 c 128,-1,25
 346 154 346 154 376 188 c 1,26,27
 381 285 381 285 422.5 385 c 128,-1,28
 464 485 464 485 521.5 548.5 c 128,-1,29
 579 612 579 612 629 612 c 0,30,31
 671 612 671 612 671 561 c 0,32,33
 671 510 671 510 596 390.5 c 128,-1,34
 521 271 521 271 447 201 c 1,35,36
 445 185 445 185 445 175 c 0,37,38
 445 131 445 131 462.5 83.5 c 128,-1,39
 480 36 480 36 509 36 c 0,40,41
 534 36 534 36 563 78 c 1,0,-1
578 518 m 0,42,43
 545 518 545 518 505 440.5 c 128,-1,44
 465 363 465 363 454 276 c 1,45,46
 516 350 516 350 553.5 412.5 c 128,-1,47
 591 475 591 475 591 503 c 0,48,49
 591 518 591 518 578 518 c 0,42,43
EndSplineSet
EndChar

StartChar: Ubreve
Encoding: 364 364 78
Width: 691
Flags: HMW
HStem: -39 75<482.5 510.5> -3 79<165.5 174.5> 518 94<573 577> 697 47<506.5 544.5 506.5 547.5> 775 20G<438 438>
VStem: 25 92<132 209> 371 69 586 80<485 579>
LayerCount: 2
Fore
SplineSet
558 78 m 1,0,-1
 590 52 l 1,1,2
 578 18 578 18 549 -10.5 c 128,-1,3
 520 -39 520 -39 486 -39 c 0,4,5
 440 -39 440 -39 411 6 c 128,-1,6
 382 51 382 51 373 136 c 1,7,8
 327 86 327 86 258 41.5 c 128,-1,9
 189 -3 189 -3 137 -3 c 0,10,11
 85 -3 85 -3 55 32 c 128,-1,12
 25 67 25 67 25 122 c 0,13,14
 25 247 25 247 147 419 c 128,-1,15
 269 591 269 591 394 664 c 1,16,-1
 421 626 l 1,17,18
 307 541 307 541 212 402 c 128,-1,19
 117 263 117 263 117 158 c 0,20,21
 117 119 117 119 135.5 97.5 c 128,-1,22
 154 76 154 76 187.5 76 c 0,23,24
 221 76 221 76 281 115 c 128,-1,25
 341 154 341 154 371 188 c 1,26,27
 376 285 376 285 417.5 385 c 128,-1,28
 459 485 459 485 516.5 548.5 c 128,-1,29
 574 612 574 612 624 612 c 0,30,31
 666 612 666 612 666 561 c 0,32,33
 666 510 666 510 591 390.5 c 128,-1,34
 516 271 516 271 442 201 c 1,35,36
 440 185 440 185 440 175 c 0,37,38
 440 131 440 131 457.5 83.5 c 128,-1,39
 475 36 475 36 504 36 c 0,40,41
 529 36 529 36 558 78 c 1,0,-1
573 518 m 0,42,43
 540 518 540 518 500 440.5 c 128,-1,44
 460 363 460 363 449 276 c 1,45,46
 511 350 511 350 548.5 412.5 c 128,-1,47
 586 475 586 475 586 503 c 0,48,49
 586 518 586 518 573 518 c 0,42,43
610 792 m 1,50,-1
 640 776 l 1,51,52
 620 745 620 745 588.5 721 c 128,-1,53
 557 697 557 697 526 697 c 0,54,55
 495 697 495 697 461 720.5 c 128,-1,56
 427 744 427 744 406 768 c 1,57,-1
 438 795 l 1,58,59
 490 744 490 744 523 744 c 0,60,61
 574 744 574 744 610 792 c 1,50,-1
EndSplineSet
EndChar

StartChar: Udieresis
Encoding: 220 220 79
Width: 721
Flags: HMW
HStem: -39 75<497.5 525.5> -3 79<180.5 189.5> 518 94<588 592> 678 79<481 503 608 630>
VStem: 40 92<132 209> 386 69 453 79<706 728> 580 79<706 728> 601 80<485 579>
LayerCount: 2
Fore
SplineSet
573 78 m 1,0,-1
 605 52 l 1,1,2
 593 18 593 18 564 -10.5 c 128,-1,3
 535 -39 535 -39 501 -39 c 0,4,5
 455 -39 455 -39 426 6 c 128,-1,6
 397 51 397 51 388 136 c 1,7,8
 342 86 342 86 273 41.5 c 128,-1,9
 204 -3 204 -3 152 -3 c 0,10,11
 100 -3 100 -3 70 32 c 128,-1,12
 40 67 40 67 40 122 c 0,13,14
 40 247 40 247 162 419 c 128,-1,15
 284 591 284 591 409 664 c 1,16,-1
 436 626 l 1,17,18
 322 541 322 541 227 402 c 128,-1,19
 132 263 132 263 132 158 c 0,20,21
 132 119 132 119 150.5 97.5 c 128,-1,22
 169 76 169 76 202.5 76 c 0,23,24
 236 76 236 76 296 115 c 128,-1,25
 356 154 356 154 386 188 c 1,26,27
 391 285 391 285 432.5 385 c 128,-1,28
 474 485 474 485 531.5 548.5 c 128,-1,29
 589 612 589 612 639 612 c 0,30,31
 681 612 681 612 681 561 c 0,32,33
 681 510 681 510 606 390.5 c 128,-1,34
 531 271 531 271 457 201 c 1,35,36
 455 185 455 185 455 175 c 0,37,38
 455 131 455 131 472.5 83.5 c 128,-1,39
 490 36 490 36 519 36 c 0,40,41
 544 36 544 36 573 78 c 1,0,-1
588 518 m 0,42,43
 555 518 555 518 515 440.5 c 128,-1,44
 475 363 475 363 464 276 c 1,45,46
 526 350 526 350 563.5 412.5 c 128,-1,47
 601 475 601 475 601 503 c 0,48,49
 601 518 601 518 588 518 c 0,42,43
453 717 m 128,-1,51
 453 734 453 734 464.5 745.5 c 128,-1,52
 476 757 476 757 492 757 c 128,-1,53
 508 757 508 757 520 745.5 c 128,-1,54
 532 734 532 734 532 717.5 c 0,55,56
 532 701 532 701 520.5 689.5 c 128,-1,57
 509 678 509 678 492.5 678 c 0,58,59
 476 678 476 678 464.5 689 c 128,-1,50
 453 700 453 700 453 717 c 128,-1,51
580 717 m 128,-1,61
 580 734 580 734 591.5 745.5 c 128,-1,62
 603 757 603 757 619.5 757 c 0,63,64
 636 757 636 757 647.5 745.5 c 128,-1,65
 659 734 659 734 659 717.5 c 0,66,67
 659 701 659 701 647.5 689.5 c 128,-1,68
 636 678 636 678 619 678 c 128,-1,69
 602 678 602 678 591 689 c 128,-1,60
 580 700 580 700 580 717 c 128,-1,61
EndSplineSet
EndChar

StartChar: Uhungarumlaut
Encoding: 368 368 80
Width: 721
Flags: HMW
HStem: -39 75<497.5 525.5> -3 79<180.5 189.5> 518 94<588 592> 769 20G<500 500>
VStem: 40 92<132 209> 386 69 601 80<485 579>
LayerCount: 2
Fore
SplineSet
573 78 m 1,0,-1
 605 52 l 1,1,2
 593 18 593 18 564 -10.5 c 128,-1,3
 535 -39 535 -39 501 -39 c 0,4,5
 455 -39 455 -39 426 6 c 128,-1,6
 397 51 397 51 388 136 c 1,7,8
 342 86 342 86 273 41.5 c 128,-1,9
 204 -3 204 -3 152 -3 c 0,10,11
 100 -3 100 -3 70 32 c 128,-1,12
 40 67 40 67 40 122 c 0,13,14
 40 247 40 247 162 419 c 128,-1,15
 284 591 284 591 409 664 c 1,16,-1
 436 626 l 1,17,18
 322 541 322 541 227 402 c 128,-1,19
 132 263 132 263 132 158 c 0,20,21
 132 119 132 119 150.5 97.5 c 128,-1,22
 169 76 169 76 202.5 76 c 0,23,24
 236 76 236 76 296 115 c 128,-1,25
 356 154 356 154 386 188 c 1,26,27
 391 285 391 285 432.5 385 c 128,-1,28
 474 485 474 485 531.5 548.5 c 128,-1,29
 589 612 589 612 639 612 c 0,30,31
 681 612 681 612 681 561 c 0,32,33
 681 510 681 510 606 390.5 c 128,-1,34
 531 271 531 271 457 201 c 1,35,36
 455 185 455 185 455 175 c 0,37,38
 455 131 455 131 472.5 83.5 c 128,-1,39
 490 36 490 36 519 36 c 0,40,41
 544 36 544 36 573 78 c 1,0,-1
588 518 m 0,42,43
 555 518 555 518 515 440.5 c 128,-1,44
 475 363 475 363 464 276 c 1,45,46
 526 350 526 350 563.5 412.5 c 128,-1,47
 601 475 601 475 601 503 c 0,48,49
 601 518 601 518 588 518 c 0,42,43
585 764 m 1,50,-1
 449 679 l 1,51,-1
 408 693 l 1,52,-1
 500 789 l 1,53,-1
 585 764 l 1,50,-1
721 754 m 1,54,-1
 581 677 l 1,55,-1
 539 693 l 1,56,-1
 652 782 l 1,57,-1
 721 754 l 1,54,-1
EndSplineSet
EndChar

StartChar: Umacron
Encoding: 362 362 81
Width: 691
Flags: HMW
HStem: -39 75<482.5 510.5> -3 79<165.5 174.5> 518 94<573 577> 708 39
VStem: 25 92<132 209> 371 69 586 80<485 579>
LayerCount: 2
Fore
SplineSet
558 78 m 1,0,-1
 590 52 l 1,1,2
 578 18 578 18 549 -10.5 c 128,-1,3
 520 -39 520 -39 486 -39 c 0,4,5
 440 -39 440 -39 411 6 c 128,-1,6
 382 51 382 51 373 136 c 1,7,8
 327 86 327 86 258 41.5 c 128,-1,9
 189 -3 189 -3 137 -3 c 0,10,11
 85 -3 85 -3 55 32 c 128,-1,12
 25 67 25 67 25 122 c 0,13,14
 25 247 25 247 147 419 c 128,-1,15
 269 591 269 591 394 664 c 1,16,-1
 421 626 l 1,17,18
 307 541 307 541 212 402 c 128,-1,19
 117 263 117 263 117 158 c 0,20,21
 117 119 117 119 135.5 97.5 c 128,-1,22
 154 76 154 76 187.5 76 c 0,23,24
 221 76 221 76 281 115 c 128,-1,25
 341 154 341 154 371 188 c 1,26,27
 376 285 376 285 417.5 385 c 128,-1,28
 459 485 459 485 516.5 548.5 c 128,-1,29
 574 612 574 612 624 612 c 0,30,31
 666 612 666 612 666 561 c 0,32,33
 666 510 666 510 591 390.5 c 128,-1,34
 516 271 516 271 442 201 c 1,35,36
 440 185 440 185 440 175 c 0,37,38
 440 131 440 131 457.5 83.5 c 128,-1,39
 475 36 475 36 504 36 c 0,40,41
 529 36 529 36 558 78 c 1,0,-1
573 518 m 0,42,43
 540 518 540 518 500 440.5 c 128,-1,44
 460 363 460 363 449 276 c 1,45,46
 511 350 511 350 548.5 412.5 c 128,-1,47
 586 475 586 475 586 503 c 0,48,49
 586 518 586 518 573 518 c 0,42,43
626 747 m 1,50,-1
 626 711 l 1,51,-1
 449 705 l 1,52,-1
 440 736 l 1,53,54
 473 743 473 743 626 747 c 1,50,-1
EndSplineSet
EndChar

StartChar: Uogonek
Encoding: 370 370 82
Width: 691
Flags: HMW
HStem: -214 77<371 454.5> -39 75<482.5 510.5> -3 79<165.5 174.5> 518 94<573 577> 644 20G<394 394>
VStem: 25 92<132 209> 371 69 586 80<485 579>
LayerCount: 2
Fore
SplineSet
541 -96 m 1,0,-1
 561 -112 l 1,1,2
 531 -152 531 -152 478.5 -183 c 128,-1,3
 426 -214 426 -214 394.5 -214 c 0,4,5
 363 -214 363 -214 346.5 -200.5 c 128,-1,6
 330 -187 330 -187 330 -168 c 0,7,8
 330 -130 330 -130 357.5 -84.5 c 128,-1,9
 385 -39 385 -39 420 -6 c 1,10,11
 384 37 384 37 373 136 c 1,12,13
 327 86 327 86 258 41.5 c 128,-1,14
 189 -3 189 -3 137 -3 c 0,15,16
 85 -3 85 -3 55 32 c 128,-1,17
 25 67 25 67 25 122 c 0,18,19
 25 247 25 247 147 419 c 128,-1,20
 269 591 269 591 394 664 c 1,21,-1
 421 626 l 1,22,23
 307 541 307 541 212 402 c 128,-1,24
 117 263 117 263 117 158 c 0,25,26
 117 119 117 119 135.5 97.5 c 128,-1,27
 154 76 154 76 187.5 76 c 0,28,29
 221 76 221 76 281 115 c 128,-1,30
 341 154 341 154 371 188 c 1,31,32
 376 285 376 285 417.5 385 c 128,-1,33
 459 485 459 485 516.5 548.5 c 128,-1,34
 574 612 574 612 624 612 c 0,35,36
 666 612 666 612 666 561 c 0,37,38
 666 510 666 510 591 390.5 c 128,-1,39
 516 271 516 271 442 201 c 1,40,41
 440 185 440 185 440 175 c 0,42,43
 440 131 440 131 457.5 83.5 c 128,-1,44
 475 36 475 36 504 36 c 0,45,46
 529 36 529 36 558 78 c 1,47,-1
 590 52 l 1,48,49
 578 18 578 18 549 -10.5 c 128,-1,50
 520 -39 520 -39 486 -39 c 0,51,52
 467 -39 467 -39 453 -32 c 1,53,54
 416 -88 416 -88 416 -113 c 0,55,56
 416 -121 416 -121 423 -129 c 128,-1,57
 430 -137 430 -137 446 -137 c 0,58,59
 482 -137 482 -137 541 -96 c 1,0,-1
573 518 m 0,60,61
 540 518 540 518 500 440.5 c 128,-1,62
 460 363 460 363 449 276 c 1,63,64
 511 350 511 350 548.5 412.5 c 128,-1,65
 586 475 586 475 586 503 c 0,66,67
 586 518 586 518 573 518 c 0,60,61
EndSplineSet
EndChar

StartChar: Uring
Encoding: 366 366 83
Width: 721
Flags: HMW
HStem: -39 75<497.5 525.5> -3 79<180.5 189.5> 518 94<588 592> 667 125<541 558> 687 86<549.5 550.5>
VStem: 40 92<132 209> 386 69 516 66<703 755.5> 601 80<485 579>
LayerCount: 2
Fore
SplineSet
573 78 m 1,0,-1
 605 52 l 1,1,2
 593 18 593 18 564 -10.5 c 128,-1,3
 535 -39 535 -39 501 -39 c 0,4,5
 455 -39 455 -39 426 6 c 128,-1,6
 397 51 397 51 388 136 c 1,7,8
 342 86 342 86 273 41.5 c 128,-1,9
 204 -3 204 -3 152 -3 c 128,-1,10
 100 -3 100 -3 70 32 c 128,-1,11
 40 67 40 67 40 122 c 0,12,13
 40 247 40 247 162 419 c 128,-1,14
 284 591 284 591 409 664 c 1,15,-1
 436 626 l 1,16,17
 322 541 322 541 227 402 c 128,-1,18
 132 263 132 263 132 158 c 0,19,20
 132 119 132 119 150.5 97.5 c 128,-1,21
 169 76 169 76 202.5 76 c 128,-1,22
 236 76 236 76 296 115 c 128,-1,23
 356 154 356 154 386 188 c 1,24,25
 391 285 391 285 432.5 385 c 128,-1,26
 474 485 474 485 531.5 548.5 c 128,-1,27
 589 612 589 612 639 612 c 0,28,29
 681 612 681 612 681 561 c 128,-1,30
 681 510 681 510 606 390.5 c 128,-1,31
 531 271 531 271 457 201 c 1,32,33
 455 185 455 185 455 175 c 0,34,35
 455 131 455 131 472.5 83.5 c 128,-1,36
 490 36 490 36 519 36 c 0,37,38
 544 36 544 36 573 78 c 1,0,-1
588 518 m 0,39,40
 555 518 555 518 515 440.5 c 128,-1,41
 475 363 475 363 464 276 c 1,42,43
 526 350 526 350 563.5 412.5 c 128,-1,44
 601 475 601 475 601 503 c 0,45,46
 601 518 601 518 588 518 c 0,39,40
605.5 779 m 128,-1,48
 621 766 621 766 621 739.5 c 128,-1,49
 621 713 621 713 595 690 c 128,-1,50
 569 667 569 667 539 667 c 128,-1,51
 509 667 509 667 493.5 680.5 c 128,-1,52
 478 694 478 694 478 721 c 128,-1,53
 478 748 478 748 503.5 770 c 128,-1,54
 529 792 529 792 559.5 792 c 128,-1,47
 590 792 590 792 605.5 779 c 128,-1,48
569 706 m 128,-1,56
 582 725 582 725 582 749 c 128,-1,57
 582 773 582 773 561 773 c 0,58,59
 544 773 544 773 530 753.5 c 128,-1,60
 516 734 516 734 516 710.5 c 128,-1,61
 516 687 516 687 540 687 c 0,62,55
 556 687 556 687 569 706 c 128,-1,56
EndSplineSet
EndChar

StartChar: Utilde
Encoding: 360 360 84
Width: 691
Flags: HMW
HStem: -39 75<482.5 510.5> -3 79<165.5 174.5> 518 94<573 577> 705 48<576.5 593.5> 774 49<484 510>
VStem: 25 92<132 209> 371 69 586 80<485 579>
LayerCount: 2
Fore
SplineSet
558 78 m 1,0,-1
 590 52 l 1,1,2
 578 18 578 18 549 -10.5 c 128,-1,3
 520 -39 520 -39 486 -39 c 0,4,5
 440 -39 440 -39 411 6 c 128,-1,6
 382 51 382 51 373 136 c 1,7,8
 327 86 327 86 258 41.5 c 128,-1,9
 189 -3 189 -3 137 -3 c 128,-1,10
 85 -3 85 -3 55 32 c 128,-1,11
 25 67 25 67 25 122 c 0,12,13
 25 247 25 247 147 419 c 128,-1,14
 269 591 269 591 394 664 c 1,15,-1
 421 626 l 1,16,17
 307 541 307 541 212 402 c 128,-1,18
 117 263 117 263 117 158 c 0,19,20
 117 119 117 119 135.5 97.5 c 128,-1,21
 154 76 154 76 187.5 76 c 128,-1,22
 221 76 221 76 281 115 c 128,-1,23
 341 154 341 154 371 188 c 1,24,25
 376 285 376 285 417.5 385 c 128,-1,26
 459 485 459 485 516.5 548.5 c 128,-1,27
 574 612 574 612 624 612 c 0,28,29
 666 612 666 612 666 561 c 128,-1,30
 666 510 666 510 591 390.5 c 128,-1,31
 516 271 516 271 442 201 c 1,32,33
 440 185 440 185 440 175 c 0,34,35
 440 131 440 131 457.5 83.5 c 128,-1,36
 475 36 475 36 504 36 c 0,37,38
 529 36 529 36 558 78 c 1,0,-1
573 518 m 0,39,40
 540 518 540 518 500 440.5 c 128,-1,41
 460 363 460 363 449 276 c 1,42,43
 511 350 511 350 548.5 412.5 c 128,-1,44
 586 475 586 475 586 503 c 0,45,46
 586 518 586 518 573 518 c 0,39,40
644 796 m 1,47,-1
 667 777 l 1,48,49
 648 747 648 747 623.5 726 c 128,-1,50
 599 705 599 705 578.5 705 c 128,-1,51
 558 705 558 705 534 739.5 c 128,-1,52
 510 774 510 774 490 774 c 0,53,54
 479.6 774 479.6 774 469.8 767 c 128,-1,55
 460 760 460 760 454.5 756 c 128,-1,56
 449 752 449 752 439 744 c 128,-1,57
 429 736 429 736 423 732 c 1,58,-1
 395 758 l 1,59,60
 469 823 469 823 494.5 823 c 128,-1,61
 520 823 520 823 549 788 c 128,-1,62
 578 753 578 753 593 753 c 0,63,64
 602.769230769 753 602.769230769 753 619.384615385 771 c 128,-1,65
 636 789 636 789 644 796 c 1,47,-1
EndSplineSet
EndChar

StartChar: V
Encoding: 86 86 85
Width: 568
Flags: HMW
HStem: -9 21G<104 130> 623 20G
VStem: 65 95 80 80<263.5 332>
LayerCount: 2
Fore
SplineSet
549 612 m 1,0,-1
 578 569 l 1,1,2
 475 501 475 501 356 352.5 c 128,-1,3
 237 204 237 204 170 46 c 0,4,5
 156 13 156 13 145.5 2 c 128,-1,6
 135 -9 135 -9 115.5 -9 c 0,7,8
 96 -9 96 -9 80.5 4.5 c 128,-1,9
 65 18 65 18 65 45.5 c 0,10,11
 65 73 65 73 72.5 150.5 c 128,-1,12
 80 228 80 228 80 260 c 0,13,14
 80 485 80 485 30 623 c 1,15,-1
 103 643 l 1,16,17
 160 544 160 544 160 286 c 0,18,19
 160 202 160 202 157 152 c 1,20,21
 317 480 317 480 549 612 c 1,0,-1
EndSplineSet
EndChar

StartChar: W
Encoding: 87 87 86
Width: 789
Flags: HMW
HStem: 5 82<473 491 473 513.5> 6 21G<70 98> 624 20G<105 183 183 183>
VStem: 106 83<505 569 502.5 591.5> 369 84<125 160.5> 720 79<491 581.5 459 592.5>
LayerCount: 2
Fore
SplineSet
719 620 m 1,0,-1
 793 630 l 1,1,2
 799 603 799 603 799 571 c 0,3,4
 799 491 799 491 761.5 389 c 128,-1,5
 724 287 724 287 671 203.5 c 128,-1,6
 618 120 618 120 558 62.5 c 128,-1,7
 498 5 498 5 457 5 c 0,8,9
 369 5 369 5 369 143 c 0,10,11
 369 209 369 209 416 417 c 1,12,13
 300 253 300 253 202 129.5 c 128,-1,14
 104 6 104 6 83.5 6 c 0,15,16
 63 6 63 6 46.5 22 c 128,-1,17
 30 38 30 38 30 55 c 0,18,19
 30 72 30 72 36 89 c 0,20,21
 79 218 79 218 92.5 331 c 128,-1,22
 106 444 106 444 106 533.5 c 0,23,24
 106 623 106 623 105 644 c 1,25,-1
 183 644 l 1,26,27
 189 612 189 612 189 544.5 c 0,28,29
 189 477 189 477 172.5 356.5 c 128,-1,30
 156 236 156 236 132 133 c 1,31,32
 207 229 207 229 442 555 c 0,33,34
 469 594 469 594 485.5 606.5 c 128,-1,35
 502 619 502 619 525.5 619 c 0,36,37
 549 619 549 619 549 596 c 0,38,39
 549 587 549 587 524 510 c 0,40,41
 499 433 499 433 476 319 c 128,-1,42
 453 205 453 205 453 146 c 0,43,44
 453 87 453 87 483 87 c 0,45,46
 504 87 504 87 535 117 c 0,47,48
 612 191 612 191 666 320.5 c 128,-1,49
 720 450 720 450 720 587 c 0,50,51
 720 609 720 609 719 620 c 1,0,-1
EndSplineSet
EndChar

StartChar: Wacute
Encoding: 7810 7810 87
Width: 779
Flags: HMW
HStem: 5 82<468 486 468 508.5> 6 21G<65 93> 624 20G<100 178 178 178> 753 20G<526 526>
VStem: 101 83<505 569 502.5 591.5> 364 84<125 160.5> 715 79<491 581.5 459 592.5>
LayerCount: 2
Fore
SplineSet
714 620 m 1,0,-1
 788 630 l 1,1,2
 794 603 794 603 794 571 c 0,3,4
 794 491 794 491 756.5 389 c 128,-1,5
 719 287 719 287 666 203.5 c 128,-1,6
 613 120 613 120 553 62.5 c 128,-1,7
 493 5 493 5 452 5 c 0,8,9
 364 5 364 5 364 143 c 0,10,11
 364 209 364 209 411 417 c 1,12,13
 295 253 295 253 197 129.5 c 128,-1,14
 99 6 99 6 78.5 6 c 0,15,16
 58 6 58 6 41.5 22 c 128,-1,17
 25 38 25 38 25 55 c 0,18,19
 25 72 25 72 31 89 c 0,20,21
 74 218 74 218 87.5 331 c 128,-1,22
 101 444 101 444 101 533.5 c 0,23,24
 101 623 101 623 100 644 c 1,25,-1
 178 644 l 1,26,27
 184 612 184 612 184 544.5 c 0,28,29
 184 477 184 477 167.5 356.5 c 128,-1,30
 151 236 151 236 127 133 c 1,31,32
 202 229 202 229 437 555 c 0,33,34
 464 594 464 594 480.5 606.5 c 128,-1,35
 497 619 497 619 520.5 619 c 0,36,37
 544 619 544 619 544 596 c 0,38,39
 544 587 544 587 519 510 c 0,40,41
 494 433 494 433 471 319 c 128,-1,42
 448 205 448 205 448 146 c 0,43,44
 448 87 448 87 478 87 c 0,45,46
 499 87 499 87 530 117 c 0,47,48
 607 191 607 191 661 320.5 c 128,-1,49
 715 450 715 450 715 587 c 0,50,51
 715 609 715 609 714 620 c 1,0,-1
594 733 m 1,52,-1
 423 677 l 1,53,-1
 394 695 l 1,54,-1
 526 773 l 1,55,-1
 594 733 l 1,52,-1
EndSplineSet
EndChar

StartChar: Wcircumflex
Encoding: 372 372 88
Width: 779
Flags: HMW
HStem: 5 82<468 486 468 508.5> 6 21G<65 93> 624 20G<100 178 178 178> 786 20G<512 512>
VStem: 101 83<505 569 502.5 591.5> 364 84<125 160.5> 715 79<491 581.5 459 592.5>
LayerCount: 2
Fore
SplineSet
714 620 m 1,0,-1
 788 630 l 1,1,2
 794 603 794 603 794 571 c 0,3,4
 794 491 794 491 756.5 389 c 128,-1,5
 719 287 719 287 666 203.5 c 128,-1,6
 613 120 613 120 553 62.5 c 128,-1,7
 493 5 493 5 452 5 c 0,8,9
 364 5 364 5 364 143 c 0,10,11
 364 209 364 209 411 417 c 1,12,13
 295 253 295 253 197 129.5 c 128,-1,14
 99 6 99 6 78.5 6 c 0,15,16
 58 6 58 6 41.5 22 c 128,-1,17
 25 38 25 38 25 55 c 0,18,19
 25 72 25 72 31 89 c 0,20,21
 74 218 74 218 87.5 331 c 128,-1,22
 101 444 101 444 101 533.5 c 0,23,24
 101 623 101 623 100 644 c 1,25,-1
 178 644 l 1,26,27
 184 612 184 612 184 544.5 c 0,28,29
 184 477 184 477 167.5 356.5 c 128,-1,30
 151 236 151 236 127 133 c 1,31,32
 202 229 202 229 437 555 c 0,33,34
 464 594 464 594 480.5 606.5 c 128,-1,35
 497 619 497 619 520.5 619 c 0,36,37
 544 619 544 619 544 596 c 0,38,39
 544 587 544 587 519 510 c 0,40,41
 494 433 494 433 471 319 c 128,-1,42
 448 205 448 205 448 146 c 0,43,44
 448 87 448 87 478 87 c 0,45,46
 499 87 499 87 530 117 c 0,47,48
 607 191 607 191 661 320.5 c 128,-1,49
 715 450 715 450 715 587 c 0,50,51
 715 609 715 609 714 620 c 1,0,-1
365 692 m 1,52,-1
 512 806 l 1,53,54
 620 720 620 720 641 698 c 1,55,-1
 611 674 l 1,56,57
 526 725 526 725 508 738 c 1,58,-1
 409 668 l 1,59,-1
 365 692 l 1,52,-1
EndSplineSet
EndChar

StartChar: Wdieresis
Encoding: 7812 7812 89
Width: 779
Flags: HMW
HStem: 5 82<468 486 468 508.5> 6 21G<65 93> 624 20G<100 178 178 178> 696 79<435 457 562 584>
VStem: 101 83<505 569 502.5 591.5> 364 84<125 160.5> 407 79<724 746> 534 79<724 746> 715 79<491 581.5 459 592.5>
LayerCount: 2
Fore
SplineSet
714 620 m 1,0,-1
 788 630 l 1,1,2
 794 603 794 603 794 571 c 0,3,4
 794 491 794 491 756.5 389 c 128,-1,5
 719 287 719 287 666 203.5 c 128,-1,6
 613 120 613 120 553 62.5 c 128,-1,7
 493 5 493 5 452 5 c 0,8,9
 364 5 364 5 364 143 c 0,10,11
 364 209 364 209 411 417 c 1,12,13
 295 253 295 253 197 129.5 c 128,-1,14
 99 6 99 6 78.5 6 c 0,15,16
 58 6 58 6 41.5 22 c 128,-1,17
 25 38 25 38 25 55 c 0,18,19
 25 72 25 72 31 89 c 0,20,21
 74 218 74 218 87.5 331 c 128,-1,22
 101 444 101 444 101 533.5 c 0,23,24
 101 623 101 623 100 644 c 1,25,-1
 178 644 l 1,26,27
 184 612 184 612 184 544.5 c 0,28,29
 184 477 184 477 167.5 356.5 c 128,-1,30
 151 236 151 236 127 133 c 1,31,32
 202 229 202 229 437 555 c 0,33,34
 464 594 464 594 480.5 606.5 c 128,-1,35
 497 619 497 619 520.5 619 c 0,36,37
 544 619 544 619 544 596 c 0,38,39
 544 587 544 587 519 510 c 0,40,41
 494 433 494 433 471 319 c 128,-1,42
 448 205 448 205 448 146 c 0,43,44
 448 87 448 87 478 87 c 0,45,46
 499 87 499 87 530 117 c 0,47,48
 607 191 607 191 661 320.5 c 128,-1,49
 715 450 715 450 715 587 c 0,50,51
 715 609 715 609 714 620 c 1,0,-1
407 735 m 128,-1,53
 407 752 407 752 418.5 763.5 c 128,-1,54
 430 775 430 775 446 775 c 128,-1,55
 462 775 462 775 474 763.5 c 128,-1,56
 486 752 486 752 486 735.5 c 0,57,58
 486 719 486 719 474.5 707.5 c 128,-1,59
 463 696 463 696 446.5 696 c 0,60,61
 430 696 430 696 418.5 707 c 128,-1,52
 407 718 407 718 407 735 c 128,-1,53
534 735 m 128,-1,63
 534 752 534 752 545.5 763.5 c 128,-1,64
 557 775 557 775 573.5 775 c 0,65,66
 590 775 590 775 601.5 763.5 c 128,-1,67
 613 752 613 752 613 735.5 c 0,68,69
 613 719 613 719 601.5 707.5 c 128,-1,70
 590 696 590 696 573 696 c 128,-1,71
 556 696 556 696 545 707 c 128,-1,62
 534 718 534 718 534 735 c 128,-1,63
EndSplineSet
EndChar

StartChar: Wgrave
Encoding: 7808 7808 90
Width: 779
Flags: HMW
HStem: 5 82<468 486 468 508.5> 6 21G<65 93> 624 20G<100 178 178 178> 756 20G<481 481>
VStem: 101 83<505 569 502.5 591.5> 364 84<125 160.5> 715 79<491 581.5 459 592.5>
LayerCount: 2
Fore
SplineSet
714 620 m 1,0,-1
 788 630 l 1,1,2
 794 603 794 603 794 571 c 0,3,4
 794 491 794 491 756.5 389 c 128,-1,5
 719 287 719 287 666 203.5 c 128,-1,6
 613 120 613 120 553 62.5 c 128,-1,7
 493 5 493 5 452 5 c 0,8,9
 364 5 364 5 364 143 c 0,10,11
 364 209 364 209 411 417 c 1,12,13
 295 253 295 253 197 129.5 c 128,-1,14
 99 6 99 6 78.5 6 c 0,15,16
 58 6 58 6 41.5 22 c 128,-1,17
 25 38 25 38 25 55 c 0,18,19
 25 72 25 72 31 89 c 0,20,21
 74 218 74 218 87.5 331 c 128,-1,22
 101 444 101 444 101 533.5 c 0,23,24
 101 623 101 623 100 644 c 1,25,-1
 178 644 l 1,26,27
 184 612 184 612 184 544.5 c 0,28,29
 184 477 184 477 167.5 356.5 c 128,-1,30
 151 236 151 236 127 133 c 1,31,32
 202 229 202 229 437 555 c 0,33,34
 464 594 464 594 480.5 606.5 c 128,-1,35
 497 619 497 619 520.5 619 c 0,36,37
 544 619 544 619 544 596 c 0,38,39
 544 587 544 587 519 510 c 0,40,41
 494 433 494 433 471 319 c 128,-1,42
 448 205 448 205 448 146 c 0,43,44
 448 87 448 87 478 87 c 0,45,46
 499 87 499 87 530 117 c 0,47,48
 607 191 607 191 661 320.5 c 128,-1,49
 715 450 715 450 715 587 c 0,50,51
 715 609 715 609 714 620 c 1,0,-1
584 680 m 1,52,-1
 413 736 l 1,53,-1
 481 776 l 1,54,-1
 613 698 l 1,55,-1
 584 680 l 1,52,-1
EndSplineSet
EndChar

StartChar: X
Encoding: 88 88 91
Width: 644
Flags: HMW
HStem: -24 21G<452 452> 620 20G<612 612>
LayerCount: 2
Fore
SplineSet
326 345 m 1,0,1
 376 394.166666667 376 394.166666667 612 640 c 1,2,-1
 654 596 l 1,3,4
 607.075697211 536.442231076 607.075697211 536.442231076 483.537848606 414.721115538 c 128,-1,5
 360 293 360 293 351 284 c 1,6,7
 383.926829268 212.658536585 383.926829268 212.658536585 417.463414634 160.829268293 c 128,-1,8
 451 109 451 109 476 72 c 128,-1,9
 501 35 501 35 506 27 c 1,10,-1
 452 -24 l 1,11,12
 378 52 378 52 293 228 c 1,13,14
 259 196 259 196 212 150 c 128,-1,15
 165 104 165 104 142 82 c 0,16,17
 86.8693467337 29.2663316583 86.8693467337 29.2663316583 23 -14 c 1,18,-1
 -10 31 l 1,19,20
 -7 34 -7 34 93 119.5 c 128,-1,21
 193 205 193 205 267 287 c 1,22,23
 198 472 198 472 175 597 c 1,24,-1
 251 611 l 1,25,26
 299 408 299 408 326 345 c 1,0,1
EndSplineSet
EndChar

StartChar: Y
Encoding: 89 89 92
Width: 660
Flags: HMW
HStem: -322 69<72.5 130> -34 43<242.5 325 209 332> 37 80<213 229> 626 20G<345 345>
VStem: -90 106<-208.5 -147.5> 73 90<180 227>
LayerCount: 2
Fore
SplineSet
320 9 m 1,0,-1
 350 8 l 1,1,2
 356 29 356 29 377.5 88 c 128,-1,3
 399 147 399 147 408 166 c 1,4,5
 303.529411765 68.0588235294 303.529411765 68.0588235294 247 48 c 0,6,7
 216 37 216 37 184 37 c 0,8,9
 131 37 131 37 102 72 c 128,-1,10
 73 107 73 107 73 170 c 0,11,12
 73 260 73 260 156 410.5 c 128,-1,13
 239 561 239 561 345 646 c 1,14,-1
 385 609 l 1,15,16
 163 370 163 370 163 210 c 0,17,18
 163 117 163 117 236 117 c 128,-1,19
 309 117 309 117 378 197 c 128,-1,20
 447 277 447 277 521 445 c 0,21,22
 551 514 551 514 567 536 c 128,-1,23
 583 558 583 558 598 558 c 128,-1,24
 613 558 613 558 621.5 549 c 128,-1,25
 630 540 630 540 630 525 c 0,26,27
 630 461 630 461 538 335 c 1,28,29
 474 203 474 203 409 7 c 1,30,31
 456 4 456 4 509 -16 c 1,32,-1
 499 -50 l 1,33,-1
 393 -35 l 1,34,35
 334 -179 334 -179 250.5 -250.5 c 128,-1,36
 167 -322 167 -322 51 -322 c 0,37,38
 -9 -322 -9 -322 -49.5 -289.5 c 128,-1,39
 -90 -257 -90 -257 -90 -208 c 0,40,41
 -90 -118 -90 -118 31 -54.5 c 128,-1,42
 152 9 152 9 320 9 c 1,0,-1
96 -253 m 0,43,44
 177 -253 177 -253 239.5 -187.5 c 128,-1,45
 302 -122 302 -122 332 -34 c 1,46,47
 198 -34 198 -34 107 -79.5 c 128,-1,48
 16 -125 16 -125 16 -190 c 0,49,50
 16 -218 16 -218 38.5 -235.5 c 128,-1,51
 61 -253 61 -253 96 -253 c 0,43,44
EndSplineSet
EndChar

StartChar: Yacute
Encoding: 221 221 93
Width: 680
Flags: HMW
HStem: -322 69<82.5 140> -34 43<252.5 335 219 342> 37 80<223 239> 742 20G<556 556>
VStem: -80 106<-208.5 -147.5> 83 90<180 227>
LayerCount: 2
Fore
SplineSet
330 9 m 1,0,-1
 360 8 l 1,1,2
 366 29 366 29 387.5 88 c 128,-1,3
 409 147 409 147 418 166 c 1,4,5
 313.529411765 68.0588235294 313.529411765 68.0588235294 257 48 c 0,6,7
 226 37 226 37 194 37 c 0,8,9
 141 37 141 37 112 72 c 128,-1,10
 83 107 83 107 83 170 c 0,11,12
 83 260 83 260 166 410.5 c 128,-1,13
 249 561 249 561 355 646 c 1,14,-1
 395 609 l 1,15,16
 173 370 173 370 173 210 c 0,17,18
 173 117 173 117 246 117 c 128,-1,19
 319 117 319 117 388 197 c 128,-1,20
 457 277 457 277 531 445 c 0,21,22
 561 514 561 514 577 536 c 128,-1,23
 593 558 593 558 608 558 c 128,-1,24
 623 558 623 558 631.5 549 c 128,-1,25
 640 540 640 540 640 525 c 0,26,27
 640 461 640 461 548 335 c 1,28,29
 484 203 484 203 419 7 c 1,30,31
 466 4 466 4 519 -16 c 1,32,-1
 509 -50 l 1,33,-1
 403 -35 l 1,34,35
 344 -179 344 -179 260.5 -250.5 c 128,-1,36
 177 -322 177 -322 61 -322 c 0,37,38
 1 -322 1 -322 -39.5 -289.5 c 128,-1,39
 -80 -257 -80 -257 -80 -208 c 0,40,41
 -80 -118 -80 -118 41 -54.5 c 128,-1,42
 162 9 162 9 330 9 c 1,0,-1
106 -253 m 0,43,44
 187 -253 187 -253 249.5 -187.5 c 128,-1,45
 312 -122 312 -122 342 -34 c 1,46,47
 208 -34 208 -34 117 -79.5 c 128,-1,48
 26 -125 26 -125 26 -190 c 0,49,50
 26 -218 26 -218 48.5 -235.5 c 128,-1,51
 71 -253 71 -253 106 -253 c 0,43,44
624 722 m 1,52,-1
 453 666 l 1,53,-1
 424 684 l 1,54,-1
 556 762 l 1,55,-1
 624 722 l 1,52,-1
EndSplineSet
EndChar

StartChar: Ycircumflex
Encoding: 374 374 94
Width: 650
Flags: HMW
HStem: -322 69<67.5 125> -34 43<237.5 320 204 327> 37 80<208 224> 802 20G<462 462>
VStem: -95 106<-208.5 -147.5> 68 90<180 227>
LayerCount: 2
Fore
SplineSet
315 9 m 1,0,-1
 345 8 l 1,1,2
 351 29 351 29 372.5 88 c 128,-1,3
 394 147 394 147 403 166 c 1,4,5
 298.529411765 68.0588235294 298.529411765 68.0588235294 242 48 c 0,6,7
 211 37 211 37 179 37 c 0,8,9
 126 37 126 37 97 72 c 128,-1,10
 68 107 68 107 68 170 c 0,11,12
 68 260 68 260 151 410.5 c 128,-1,13
 234 561 234 561 340 646 c 1,14,-1
 380 609 l 1,15,16
 158 370 158 370 158 210 c 0,17,18
 158 117 158 117 231 117 c 128,-1,19
 304 117 304 117 373 197 c 128,-1,20
 442 277 442 277 516 445 c 0,21,22
 546 514 546 514 562 536 c 128,-1,23
 578 558 578 558 593 558 c 128,-1,24
 608 558 608 558 616.5 549 c 128,-1,25
 625 540 625 540 625 525 c 0,26,27
 625 461 625 461 533 335 c 1,28,29
 469 203 469 203 404 7 c 1,30,31
 451 4 451 4 504 -16 c 1,32,-1
 494 -50 l 1,33,-1
 388 -35 l 1,34,35
 329 -179 329 -179 245.5 -250.5 c 128,-1,36
 162 -322 162 -322 46 -322 c 0,37,38
 -14 -322 -14 -322 -54.5 -289.5 c 128,-1,39
 -95 -257 -95 -257 -95 -208 c 0,40,41
 -95 -118 -95 -118 26 -54.5 c 128,-1,42
 147 9 147 9 315 9 c 1,0,-1
91 -253 m 0,43,44
 172 -253 172 -253 234.5 -187.5 c 128,-1,45
 297 -122 297 -122 327 -34 c 1,46,47
 193 -34 193 -34 102 -79.5 c 128,-1,48
 11 -125 11 -125 11 -190 c 0,49,50
 11 -218 11 -218 33.5 -235.5 c 128,-1,51
 56 -253 56 -253 91 -253 c 0,43,44
315 708 m 1,52,-1
 462 822 l 1,53,54
 570 736 570 736 591 714 c 1,55,-1
 561 690 l 1,56,57
 476 741 476 741 458 754 c 1,58,-1
 359 684 l 1,59,-1
 315 708 l 1,52,-1
EndSplineSet
EndChar

StartChar: Ygrave
Encoding: 7922 7922 95
Width: 650
Flags: HMW
HStem: -322 69<67.5 125> -34 43<237.5 320 204 327> 37 80<208 224> 759 20G<460 460>
VStem: -95 106<-208.5 -147.5> 68 90<180 227>
LayerCount: 2
Fore
SplineSet
315 9 m 1,0,-1
 345 8 l 1,1,2
 351 29 351 29 372.5 88 c 128,-1,3
 394 147 394 147 403 166 c 1,4,5
 298.529411765 68.0588235294 298.529411765 68.0588235294 242 48 c 0,6,7
 211 37 211 37 179 37 c 0,8,9
 126 37 126 37 97 72 c 128,-1,10
 68 107 68 107 68 170 c 0,11,12
 68 260 68 260 151 410.5 c 128,-1,13
 234 561 234 561 340 646 c 1,14,-1
 380 609 l 1,15,16
 158 370 158 370 158 210 c 0,17,18
 158 117 158 117 231 117 c 128,-1,19
 304 117 304 117 373 197 c 128,-1,20
 442 277 442 277 516 445 c 0,21,22
 546 514 546 514 562 536 c 128,-1,23
 578 558 578 558 593 558 c 128,-1,24
 608 558 608 558 616.5 549 c 128,-1,25
 625 540 625 540 625 525 c 0,26,27
 625 461 625 461 533 335 c 1,28,29
 469 203 469 203 404 7 c 1,30,31
 451 4 451 4 504 -16 c 1,32,-1
 494 -50 l 1,33,-1
 388 -35 l 1,34,35
 329 -179 329 -179 245.5 -250.5 c 128,-1,36
 162 -322 162 -322 46 -322 c 0,37,38
 -14 -322 -14 -322 -54.5 -289.5 c 128,-1,39
 -95 -257 -95 -257 -95 -208 c 0,40,41
 -95 -118 -95 -118 26 -54.5 c 128,-1,42
 147 9 147 9 315 9 c 1,0,-1
91 -253 m 0,43,44
 172 -253 172 -253 234.5 -187.5 c 128,-1,45
 297 -122 297 -122 327 -34 c 1,46,47
 193 -34 193 -34 102 -79.5 c 128,-1,48
 11 -125 11 -125 11 -190 c 0,49,50
 11 -218 11 -218 33.5 -235.5 c 128,-1,51
 56 -253 56 -253 91 -253 c 0,43,44
563 683 m 1,52,-1
 392 739 l 1,53,-1
 460 779 l 1,54,-1
 592 701 l 1,55,-1
 563 683 l 1,52,-1
EndSplineSet
EndChar

StartChar: Z
Encoding: 90 90 96
Width: 658
Flags: HMW
HStem: -6 69<169.5 267.5 169.5 298> -6 202<133 461> 413 202<197 525> 546 69<390.5 488.5>
VStem: 151 72<489 504.5 472 553> 435 72<104.5 119.5 56 137>
LayerCount: 2
Fore
SplineSet
223 479 m 1,0,-1
 228 434 l 2,1,2
 228 426 228 426 222.5 419.5 c 128,-1,3
 217 413 217 413 210 413 c 0,4,5
 191 413 191 413 171 446 c 128,-1,6
 151 479 151 479 151 508 c 0,7,8
 151 571 151 571 225 593 c 128,-1,9
 299 615 299 615 433 615 c 128,-1,10
 567 615 567 615 597.5 606.5 c 128,-1,11
 628 598 628 598 628 559 c 0,12,13
 628 542 628 542 611.5 521 c 128,-1,14
 595 500 595 500 546.5 455 c 128,-1,15
 498 410 498 410 381.5 313 c 128,-1,16
 265 216 265 216 204 153 c 128,-1,17
 143 90 143 90 126 65 c 1,18,19
 168 63 168 63 180 63 c 0,20,21
 315 63 315 63 375 78 c 128,-1,22
 435 93 435 93 435 130 c 1,23,-1
 430 175 l 2,24,25
 430 183 430 183 435.5 189.5 c 128,-1,26
 441 196 441 196 448 196 c 0,27,28
 467 196 467 196 487 163 c 128,-1,29
 507 130 507 130 507 101 c 0,30,31
 507 38 507 38 433 16 c 128,-1,32
 359 -6 359 -6 225 -6 c 128,-1,33
 91 -6 91 -6 60.5 2.5 c 128,-1,34
 30 11 30 11 30 50 c 0,35,36
 30 77 30 77 107.5 151 c 128,-1,37
 185 225 185 225 304 325.5 c 128,-1,38
 423 426 423 426 466 468 c 128,-1,39
 509 510 509 510 532 544 c 1,40,41
 490 546 490 546 478 546 c 0,42,43
 343 546 343 546 283 531 c 128,-1,44
 223 516 223 516 223 479 c 1,0,-1
EndSplineSet
EndChar

StartChar: Zacute
Encoding: 377 377 97
Width: 678
Flags: HMW
HStem: -6 69<179.5 277.5 179.5 308> -6 202<143 471> 413 202<207 535> 546 69<400.5 498.5> 740 20G<433 433>
VStem: 161 72<489 504.5 472 553> 445 72<104.5 119.5 56 137>
LayerCount: 2
Fore
SplineSet
233 479 m 1,0,-1
 238 434 l 2,1,2
 238 426 238 426 232.5 419.5 c 128,-1,3
 227 413 227 413 220 413 c 0,4,5
 201 413 201 413 181 446 c 128,-1,6
 161 479 161 479 161 508 c 0,7,8
 161 571 161 571 235 593 c 128,-1,9
 309 615 309 615 443 615 c 128,-1,10
 577 615 577 615 607.5 606.5 c 128,-1,11
 638 598 638 598 638 559 c 0,12,13
 638 542 638 542 621.5 521 c 128,-1,14
 605 500 605 500 556.5 455 c 128,-1,15
 508 410 508 410 391.5 313 c 128,-1,16
 275 216 275 216 214 153 c 128,-1,17
 153 90 153 90 136 65 c 1,18,19
 178 63 178 63 190 63 c 0,20,21
 325 63 325 63 385 78 c 128,-1,22
 445 93 445 93 445 130 c 1,23,-1
 440 175 l 2,24,25
 440 183 440 183 445.5 189.5 c 128,-1,26
 451 196 451 196 458 196 c 0,27,28
 477 196 477 196 497 163 c 128,-1,29
 517 130 517 130 517 101 c 0,30,31
 517 38 517 38 443 16 c 128,-1,32
 369 -6 369 -6 235 -6 c 128,-1,33
 101 -6 101 -6 70.5 2.5 c 128,-1,34
 40 11 40 11 40 50 c 0,35,36
 40 77 40 77 117.5 151 c 128,-1,37
 195 225 195 225 314 325.5 c 128,-1,38
 433 426 433 426 476 468 c 128,-1,39
 519 510 519 510 542 544 c 1,40,41
 500 546 500 546 488 546 c 0,42,43
 353 546 353 546 293 531 c 128,-1,44
 233 516 233 516 233 479 c 1,0,-1
501 720 m 1,45,-1
 330 664 l 1,46,-1
 301 682 l 1,47,-1
 433 760 l 1,48,-1
 501 720 l 1,45,-1
EndSplineSet
EndChar

StartChar: Zcaron
Encoding: 381 381 98
Width: 678
Flags: HMW
HStem: -6 69<179.5 277.5 179.5 308> -6 202<143 471> 413 202<207 535> 546 69<400.5 498.5> 792 20G<328 328>
VStem: 161 72<489 504.5 472 553> 445 72<104.5 119.5 56 137>
LayerCount: 2
Fore
SplineSet
233 479 m 1,0,-1
 238 434 l 2,1,2
 238 426 238 426 232.5 419.5 c 128,-1,3
 227 413 227 413 220 413 c 0,4,5
 201 413 201 413 181 446 c 128,-1,6
 161 479 161 479 161 508 c 0,7,8
 161 571 161 571 235 593 c 128,-1,9
 309 615 309 615 443 615 c 128,-1,10
 577 615 577 615 607.5 606.5 c 128,-1,11
 638 598 638 598 638 559 c 0,12,13
 638 542 638 542 621.5 521 c 128,-1,14
 605 500 605 500 556.5 455 c 128,-1,15
 508 410 508 410 391.5 313 c 128,-1,16
 275 216 275 216 214 153 c 128,-1,17
 153 90 153 90 136 65 c 1,18,19
 178 63 178 63 190 63 c 0,20,21
 325 63 325 63 385 78 c 128,-1,22
 445 93 445 93 445 130 c 1,23,-1
 440 175 l 2,24,25
 440 183 440 183 445.5 189.5 c 128,-1,26
 451 196 451 196 458 196 c 0,27,28
 477 196 477 196 497 163 c 128,-1,29
 517 130 517 130 517 101 c 0,30,31
 517 38 517 38 443 16 c 128,-1,32
 369 -6 369 -6 235 -6 c 128,-1,33
 101 -6 101 -6 70.5 2.5 c 128,-1,34
 40 11 40 11 40 50 c 0,35,36
 40 77 40 77 117.5 151 c 128,-1,37
 195 225 195 225 314 325.5 c 128,-1,38
 433 426 433 426 476 468 c 128,-1,39
 519 510 519 510 542 544 c 1,40,41
 500 546 500 546 488 546 c 0,42,43
 353 546 353 546 293 531 c 128,-1,44
 233 516 233 516 233 479 c 1,0,-1
431 674 m 1,45,-1
 284 788 l 1,46,-1
 328 812 l 1,47,48
 383 770 383 770 427 742 c 1,49,50
 445 755 445 755 530 806 c 1,51,-1
 560 782 l 1,52,53
 544.571428571 764.857142857 544.571428571 764.857142857 458.5 696 c 2,54,-1
 431 674 l 1,45,-1
EndSplineSet
EndChar

StartChar: Zdotaccent
Encoding: 379 379 99
Width: 678
Flags: HMW
HStem: -6 69<179.5 277.5 179.5 308> -6 202<143 471> 413 202<207 535> 546 69<400.5 498.5> 682 79<427 449>
VStem: 161 72<489 504.5 472 553> 399 79<710 732> 445 72<104.5 119.5 56 137>
LayerCount: 2
Fore
SplineSet
233 479 m 1,0,-1
 238 434 l 2,1,2
 238 426 238 426 232.5 419.5 c 128,-1,3
 227 413 227 413 220 413 c 0,4,5
 201 413 201 413 181 446 c 128,-1,6
 161 479 161 479 161 508 c 0,7,8
 161 571 161 571 235 593 c 128,-1,9
 309 615 309 615 443 615 c 128,-1,10
 577 615 577 615 607.5 606.5 c 128,-1,11
 638 598 638 598 638 559 c 0,12,13
 638 542 638 542 621.5 521 c 128,-1,14
 605 500 605 500 556.5 455 c 128,-1,15
 508 410 508 410 391.5 313 c 128,-1,16
 275 216 275 216 214 153 c 128,-1,17
 153 90 153 90 136 65 c 1,18,19
 178 63 178 63 190 63 c 0,20,21
 325 63 325 63 385 78 c 128,-1,22
 445 93 445 93 445 130 c 1,23,-1
 440 175 l 2,24,25
 440 183 440 183 445.5 189.5 c 128,-1,26
 451 196 451 196 458 196 c 0,27,28
 477 196 477 196 497 163 c 128,-1,29
 517 130 517 130 517 101 c 0,30,31
 517 38 517 38 443 16 c 128,-1,32
 369 -6 369 -6 235 -6 c 128,-1,33
 101 -6 101 -6 70.5 2.5 c 128,-1,34
 40 11 40 11 40 50 c 0,35,36
 40 77 40 77 117.5 151 c 128,-1,37
 195 225 195 225 314 325.5 c 128,-1,38
 433 426 433 426 476 468 c 128,-1,39
 519 510 519 510 542 544 c 1,40,41
 500 546 500 546 488 546 c 0,42,43
 353 546 353 546 293 531 c 128,-1,44
 233 516 233 516 233 479 c 1,0,-1
399 721 m 128,-1,46
 399 738 399 738 410.5 749.5 c 128,-1,47
 422 761 422 761 438 761 c 128,-1,48
 454 761 454 761 466 749.5 c 128,-1,49
 478 738 478 738 478 721.5 c 128,-1,50
 478 705 478 705 466.5 693.5 c 128,-1,51
 455 682 455 682 438.5 682 c 128,-1,52
 422 682 422 682 410.5 693 c 128,-1,45
 399 704 399 704 399 721 c 128,-1,46
EndSplineSet
EndChar

StartChar: Agrave
Encoding: 192 192 100
Width: 810
Flags: HMW
HStem: -76 83<64.5 97> 0 21G<569 639 569 569> 239 64 671 20G<719.5 743> 802 20G<674 674>
VStem: -85 105<46 90> 563 76<0 114.5>
LayerCount: 2
Fore
SplineSet
756 298 m 1,0,-1
 751 238 l 1,1,2
 728 240 728 240 701.5 240 c 128,-1,3
 675 240 675 240 657 239 c 1,4,5
 643 129 643 129 639 0 c 1,6,-1
 569 0 l 1,7,8
 563 26 563 26 563 69 c 128,-1,9
 563 112 563 112 565.5 143.5 c 128,-1,10
 568 175 568 175 572 206 c 128,-1,11
 576 237 576 237 576 242 c 1,12,13
 562 243 562 243 510 243 c 128,-1,14
 458 243 458 243 438 241 c 1,15,16
 322 85 322 85 224 4.5 c 128,-1,17
 126 -76 126 -76 28 -76 c 0,18,19
 -20 -76 -20 -76 -52.5 -47 c 128,-1,20
 -85 -18 -85 -18 -85 30 c 0,21,22
 -85 121 -85 121 53.5 196 c 128,-1,23
 192 271 192 271 412 297 c 1,24,25
 438 337 438 337 509 420.5 c 128,-1,26
 580 504 580 504 649 566 c 1,27,28
 679 636 679 636 696.5 663.5 c 128,-1,29
 714 691 714 691 731 691 c 128,-1,30
 748 691 748 691 759 678 c 128,-1,31
 770 665 770 665 770 644.5 c 128,-1,32
 770 624 770 624 747.5 584.5 c 128,-1,33
 725 545 725 545 701 462.5 c 128,-1,34
 677 380 677 380 668 307 c 1,35,36
 720 307 720 307 756 298 c 1,0,-1
246 89 m 1,37,38
 329 168 329 168 371 239 c 1,39,40
 203 229 203 229 111.5 176 c 128,-1,41
 20 123 20 123 20 63 c 0,42,43
 20 37 20 37 37.5 22 c 128,-1,44
 55 7 55 7 84 7 c 0,45,46
 162 7 162 7 246 89 c 1,37,38
588 307 m 1,47,48
 594.888888889 341.444444444 594.888888889 341.444444444 606.444444444 392.722222222 c 128,-1,49
 618 444 618 444 620 453 c 1,50,51
 572 407 572 407 553 385.5 c 128,-1,52
 534 364 534 364 486 303 c 1,53,54
 503 304 503 304 527.5 304.5 c 128,-1,55
 552 305 552 305 568 306 c 128,-1,56
 584 307 584 307 588 307 c 1,47,48
777 726 m 1,57,-1
 606 782 l 1,58,-1
 674 822 l 1,59,-1
 806 744 l 1,60,-1
 777 726 l 1,57,-1
EndSplineSet
EndChar

StartChar: Atilde
Encoding: 195 195 101
Width: 810
Flags: HMW
HStem: -76 83<64.5 97> 0 21G<569 639 569 569> 239 64 671 20G<719.5 743> 725 48<725.5 742.5> 794 49<633 659>
VStem: -85 105<46 90> 563 76<0 114.5>
LayerCount: 2
Fore
SplineSet
756 298 m 1,0,-1
 751 238 l 1,1,2
 728 240 728 240 701.5 240 c 128,-1,3
 675 240 675 240 657 239 c 1,4,5
 643 129 643 129 639 0 c 1,6,-1
 569 0 l 1,7,8
 563 26 563 26 563 69 c 128,-1,9
 563 112 563 112 565.5 143.5 c 128,-1,10
 568 175 568 175 572 206 c 128,-1,11
 576 237 576 237 576 242 c 1,12,13
 562 243 562 243 510 243 c 128,-1,14
 458 243 458 243 438 241 c 1,15,16
 322 85 322 85 224 4.5 c 128,-1,17
 126 -76 126 -76 28 -76 c 0,18,19
 -20 -76 -20 -76 -52.5 -47 c 128,-1,20
 -85 -18 -85 -18 -85 30 c 0,21,22
 -85 121 -85 121 53.5 196 c 128,-1,23
 192 271 192 271 412 297 c 1,24,25
 438 337 438 337 509 420.5 c 128,-1,26
 580 504 580 504 649 566 c 1,27,28
 679 636 679 636 696.5 663.5 c 128,-1,29
 714 691 714 691 731 691 c 128,-1,30
 748 691 748 691 759 678 c 128,-1,31
 770 665 770 665 770 644.5 c 128,-1,32
 770 624 770 624 747.5 584.5 c 128,-1,33
 725 545 725 545 701 462.5 c 128,-1,34
 677 380 677 380 668 307 c 1,35,36
 720 307 720 307 756 298 c 1,0,-1
246 89 m 1,37,38
 329 168 329 168 371 239 c 1,39,40
 203 229 203 229 111.5 176 c 128,-1,41
 20 123 20 123 20 63 c 0,42,43
 20 37 20 37 37.5 22 c 128,-1,44
 55 7 55 7 84 7 c 0,45,46
 162 7 162 7 246 89 c 1,37,38
588 307 m 1,47,48
 594.888888889 341.444444444 594.888888889 341.444444444 606.444444444 392.722222222 c 128,-1,49
 618 444 618 444 620 453 c 1,50,51
 572 407 572 407 553 385.5 c 128,-1,52
 534 364 534 364 486 303 c 1,53,54
 503 304 503 304 527.5 304.5 c 128,-1,55
 552 305 552 305 568 306 c 128,-1,56
 584 307 584 307 588 307 c 1,47,48
793 816 m 1,57,-1
 816 797 l 1,58,59
 797 767 797 767 772.5 746 c 128,-1,60
 748 725 748 725 727.5 725 c 128,-1,61
 707 725 707 725 683 759.5 c 128,-1,62
 659 794 659 794 639 794 c 0,63,64
 628.6 794 628.6 794 618.8 787 c 128,-1,65
 609 780 609 780 603.5 776 c 128,-1,66
 598 772 598 772 588 764 c 128,-1,67
 578 756 578 756 572 752 c 1,68,-1
 544 778 l 1,69,70
 618 843 618 843 643.5 843 c 128,-1,71
 669 843 669 843 698 808 c 128,-1,72
 727 773 727 773 742 773 c 0,73,74
 751.769230769 773 751.769230769 773 768.384615385 791 c 128,-1,75
 785 809 785 809 793 816 c 1,57,-1
EndSplineSet
EndChar

StartChar: Otilde
Encoding: 213 213 102
Width: 714
Flags: HMW
HStem: 6 86<184.5 230.5> 346 47<365.5 412.5> 559 85<389 494.5> 687 48<477.5 494.5> 756 49<385 411>
VStem: 40 89<162.5 222.5> 40 244<105 470> 487 89<450.5 544>
LayerCount: 2
Fore
SplineSet
714 492 m 1,0,-1
 714 444 l 1,1,2
 669 418 669 418 548 373 c 1,3,4
 494 238 494 238 377 122 c 128,-1,5
 260 6 260 6 163 6 c 0,6,7
 108 6 108 6 74 45 c 128,-1,8
 40 84 40 84 40 152.5 c 128,-1,9
 40 221 40 221 86 317.5 c 128,-1,10
 132 414 132 414 207 498.5 c 128,-1,11
 282 583 282 583 360 623 c 1,12,13
 392 644 392 644 460 644 c 0,14,15
 511 644 511 644 543.5 604.5 c 128,-1,16
 576 565 576 565 576 511.5 c 128,-1,17
 576 458 576 458 568 431 c 1,18,19
 644 456 644 456 714 492 c 1,0,-1
317 527 m 1,20,21
 284 493 284 493 284 461.5 c 128,-1,22
 284 430 284 430 316 411.5 c 128,-1,23
 348 393 348 393 396.5 393 c 128,-1,24
 445 393 445 393 481 402 c 1,25,26
 487 432 487 432 487 460 c 0,27,28
 487 559 487 559 402 559 c 0,29,30
 363 559 363 559 317 527 c 1,20,21
330 149 m 0,31,32
 428 246 428 246 467 351 c 1,33,34
 442 346 442 346 403 346 c 0,35,36
 235 346 235 346 213 421 c 1,37,38
 129 304 129 304 129 191 c 0,39,40
 129 146 129 146 150.5 119 c 128,-1,41
 172 92 172 92 214 92 c 0,42,43
 273 92 273 92 330 149 c 0,31,32
545 778 m 1,44,-1
 568 759 l 1,45,46
 549 729 549 729 524.5 708 c 128,-1,47
 500 687 500 687 479.5 687 c 128,-1,48
 459 687 459 687 435 721.5 c 128,-1,49
 411 756 411 756 391 756 c 0,50,51
 380.6 756 380.6 756 370.8 749 c 128,-1,52
 361 742 361 742 355.5 738 c 128,-1,53
 350 734 350 734 340 726 c 128,-1,54
 330 718 330 718 324 714 c 1,55,-1
 296 740 l 1,56,57
 370 805 370 805 395.5 805 c 128,-1,58
 421 805 421 805 450 770 c 128,-1,59
 479 735 479 735 494 735 c 0,60,61
 503.769230769 735 503.769230769 735 520.384615385 753 c 128,-1,62
 537 771 537 771 545 778 c 1,44,-1
EndSplineSet
EndChar

StartChar: OE
Encoding: 338 338 103
Width: 1087
Flags: HMW
HStem: -43 21G<519 519> -2 21G<664 774.5> 6 51 6 86<151.5 197.5> 254 60<878 899.5> 346 47<332.5 379.5> 495 228<811 1028.5> 559 85<356 461.5> 663 60<925.5 948>
VStem: 7 89<162.5 222.5> 7 244<105 470> 454 89<450.5 544> 481 102<174 215> 633 94<487.5 531> 943 98<180 221.5> 984 106<607 639>
LayerCount: 2
Fore
SplineSet
1090 659 m 0,0,1
 1090 609 1090 609 1042.5 570 c 128,-1,2
 995 531 995 531 933.5 513 c 128,-1,3
 872 495 872 495 815 495 c 0,4,5
 800 495 800 495 793 496 c 1,6,-1
 793 530 l 1,7,8
 795 530 795 530 851 539.5 c 128,-1,9
 907 549 907 549 945.5 573 c 128,-1,10
 984 597 984 597 984 627 c 0,11,12
 984 663 984 663 930 663 c 0,13,14
 857 663 857 663 792 613 c 128,-1,15
 727 563 727 563 727 508 c 128,-1,16
 727 453 727 453 795 437 c 0,17,18
 810 433 810 433 815 429 c 128,-1,19
 820 425 820 425 820 415 c 128,-1,20
 820 405 820 405 810.5 398.5 c 128,-1,21
 801 392 801 392 767 380 c 0,22,23
 583 317 583 317 583 184 c 0,24,25
 583 157 583 157 593 138 c 1,26,27
 654 216 654 216 751 265 c 128,-1,28
 848 314 848 314 938 314 c 0,29,30
 985 314 985 314 1013 293.5 c 128,-1,31
 1041 273 1041 273 1041 237 c 0,32,33
 1041 181 1041 181 989 125 c 128,-1,34
 937 69 937 69 854.5 33.5 c 128,-1,35
 772 -2 772 -2 690 -2 c 128,-1,36
 608 -2 608 -2 562 28 c 1,37,38
 561 27 561 27 553.5 12.5 c 0,39,40
 532.855670103 -27.412371134 532.855670103 -27.412371134 519 -43 c 1,41,-1
 486 -29 l 1,42,43
 493 -1 493 -1 527 56 c 1,44,45
 481 108 481 108 481 172.5 c 128,-1,46
 481 237 481 237 533.5 295.5 c 128,-1,47
 586 354 586 354 680 392 c 1,48,49
 657 411 657 411 647 426 c 1,50,51
 607 407 607 407 515 373 c 1,52,53
 461 238 461 238 344 122 c 128,-1,54
 227 6 227 6 130 6 c 0,55,56
 75 6 75 6 41 45 c 128,-1,57
 7 84 7 84 7 152.5 c 128,-1,58
 7 221 7 221 53 317.5 c 128,-1,59
 99 414 99 414 174 498.5 c 128,-1,60
 249 583 249 583 327 623 c 1,61,62
 359 644 359 644 427 644 c 0,63,64
 478 644 478 644 510.5 604.5 c 128,-1,65
 543 565 543 565 543 511.5 c 128,-1,66
 543 458 543 458 535 431 c 1,67,68
 576.181818182 444.727272727 576.181818182 444.727272727 604.590909091 458.363636364 c 128,-1,69
 633 472 633 472 633 473 c 0,70,71
 633 529 633 529 693 588 c 128,-1,72
 753 647 753 647 840 685 c 128,-1,73
 927 723 927 723 1002 723 c 0,74,75
 1042 723 1042 723 1066 705.5 c 128,-1,76
 1090 688 1090 688 1090 659 c 0,0,1
297 149 m 0,77,78
 395 246 395 246 434 351 c 1,79,80
 409 346 409 346 370 346 c 0,81,82
 202 346 202 346 180 421 c 1,83,84
 96 304 96 304 96 191 c 0,85,86
 96 146 96 146 117.5 119 c 128,-1,87
 139 92 139 92 181 92 c 0,88,89
 240 92 240 92 297 149 c 0,77,78
880 254 m 0,90,91
 821 254 821 254 742.5 209 c 128,-1,92
 664 164 664 164 615 102 c 1,93,94
 655 57 655 57 728.5 57 c 128,-1,95
 802 57 802 57 872.5 104.5 c 128,-1,96
 943 152 943 152 943 207 c 0,97,98
 943 229 943 229 926 241.5 c 128,-1,99
 909 254 909 254 880 254 c 0,90,91
284 527 m 1,100,101
 251 493 251 493 251 461.5 c 128,-1,102
 251 430 251 430 283 411.5 c 128,-1,103
 315 393 315 393 363.5 393 c 128,-1,104
 412 393 412 393 448 402 c 1,105,106
 454 432 454 432 454 460 c 0,107,108
 454 559 454 559 369 559 c 0,109,110
 330 559 330 559 284 527 c 1,100,101
EndSplineSet
EndChar

StartChar: Ydieresis
Encoding: 376 376 104
Width: 680
Flags: HMW
HStem: -322 69<82.5 140> -34 43<252.5 335 219 342> 37 80<223 239> 704 79<455 477 582 604>
VStem: -80 106<-208.5 -147.5> 83 90<180 227> 427 79<732 754> 554 86
LayerCount: 2
Fore
SplineSet
330 9 m 1,0,-1
 360 8 l 1,1,2
 366 29 366 29 387.5 88 c 128,-1,3
 409 147 409 147 418 166 c 1,4,5
 313.529411765 68.0588235294 313.529411765 68.0588235294 257 48 c 0,6,7
 226 37 226 37 194 37 c 0,8,9
 141 37 141 37 112 72 c 128,-1,10
 83 107 83 107 83 170 c 0,11,12
 83 260 83 260 166 410.5 c 128,-1,13
 249 561 249 561 355 646 c 1,14,-1
 395 609 l 1,15,16
 173 370 173 370 173 210 c 0,17,18
 173 117 173 117 246 117 c 128,-1,19
 319 117 319 117 388 197 c 128,-1,20
 457 277 457 277 531 445 c 0,21,22
 561 514 561 514 577 536 c 128,-1,23
 593 558 593 558 608 558 c 128,-1,24
 623 558 623 558 631.5 549 c 128,-1,25
 640 540 640 540 640 525 c 0,26,27
 640 461 640 461 548 335 c 1,28,29
 484 203 484 203 419 7 c 1,30,31
 466 4 466 4 519 -16 c 1,32,-1
 509 -50 l 1,33,-1
 403 -35 l 1,34,35
 344 -179 344 -179 260.5 -250.5 c 128,-1,36
 177 -322 177 -322 61 -322 c 0,37,38
 1 -322 1 -322 -39.5 -289.5 c 128,-1,39
 -80 -257 -80 -257 -80 -208 c 0,40,41
 -80 -118 -80 -118 41 -54.5 c 128,-1,42
 162 9 162 9 330 9 c 1,0,-1
106 -253 m 0,43,44
 187 -253 187 -253 249.5 -187.5 c 128,-1,45
 312 -122 312 -122 342 -34 c 1,46,47
 208 -34 208 -34 117 -79.5 c 128,-1,48
 26 -125 26 -125 26 -190 c 0,49,50
 26 -218 26 -218 48.5 -235.5 c 128,-1,51
 71 -253 71 -253 106 -253 c 0,43,44
427 743 m 128,-1,53
 427 760 427 760 438.5 771.5 c 128,-1,54
 450 783 450 783 466 783 c 128,-1,55
 482 783 482 783 494 771.5 c 128,-1,56
 506 760 506 760 506 743.5 c 128,-1,57
 506 727 506 727 494.5 715.5 c 128,-1,58
 483 704 483 704 466.5 704 c 128,-1,59
 450 704 450 704 438.5 715 c 128,-1,52
 427 726 427 726 427 743 c 128,-1,53
554 743 m 128,-1,61
 554 760 554 760 565.5 771.5 c 128,-1,62
 577 783 577 783 593.5 783 c 128,-1,63
 610 783 610 783 621.5 771.5 c 128,-1,64
 633 760 633 760 633 743.5 c 128,-1,65
 633 727 633 727 621.5 715.5 c 128,-1,66
 610 704 610 704 593 704 c 128,-1,67
 576 704 576 704 565 715 c 128,-1,60
 554 726 554 726 554 743 c 128,-1,61
EndSplineSet
EndChar

StartChar: Acircumflex
Encoding: 194 194 105
Width: 810
Flags: HMW
HStem: -76 83<64.5 97> 0 21G<569 639 569 569> 239 64 671 20G<719.5 743> 844 20G<697 697>
VStem: -85 105<46 90> 563 76<0 114.5>
LayerCount: 2
Fore
SplineSet
756 298 m 1,0,-1
 751 238 l 1,1,2
 728 240 728 240 701.5 240 c 128,-1,3
 675 240 675 240 657 239 c 1,4,5
 643 129 643 129 639 0 c 1,6,-1
 569 0 l 1,7,8
 563 26 563 26 563 69 c 128,-1,9
 563 112 563 112 565.5 143.5 c 128,-1,10
 568 175 568 175 572 206 c 128,-1,11
 576 237 576 237 576 242 c 1,12,13
 562 243 562 243 510 243 c 128,-1,14
 458 243 458 243 438 241 c 1,15,16
 322 85 322 85 224 4.5 c 128,-1,17
 126 -76 126 -76 28 -76 c 0,18,19
 -20 -76 -20 -76 -52.5 -47 c 128,-1,20
 -85 -18 -85 -18 -85 30 c 0,21,22
 -85 121 -85 121 53.5 196 c 128,-1,23
 192 271 192 271 412 297 c 1,24,25
 438 337 438 337 509 420.5 c 128,-1,26
 580 504 580 504 649 566 c 1,27,28
 679 636 679 636 696.5 663.5 c 128,-1,29
 714 691 714 691 731 691 c 128,-1,30
 748 691 748 691 759 678 c 128,-1,31
 770 665 770 665 770 644.5 c 128,-1,32
 770 624 770 624 747.5 584.5 c 128,-1,33
 725 545 725 545 701 462.5 c 128,-1,34
 677 380 677 380 668 307 c 1,35,36
 720 307 720 307 756 298 c 1,0,-1
246 89 m 1,37,38
 329 168 329 168 371 239 c 1,39,40
 203 229 203 229 111.5 176 c 128,-1,41
 20 123 20 123 20 63 c 0,42,43
 20 37 20 37 37.5 22 c 128,-1,44
 55 7 55 7 84 7 c 0,45,46
 162 7 162 7 246 89 c 1,37,38
588 307 m 1,47,48
 594.888888889 341.444444444 594.888888889 341.444444444 606.444444444 392.722222222 c 128,-1,49
 618 444 618 444 620 453 c 1,50,51
 572 407 572 407 553 385.5 c 128,-1,52
 534 364 534 364 486 303 c 1,53,54
 503 304 503 304 527.5 304.5 c 128,-1,55
 552 305 552 305 568 306 c 128,-1,56
 584 307 584 307 588 307 c 1,47,48
550 750 m 1,57,-1
 697 864 l 1,58,59
 805 778 805 778 826 756 c 1,60,-1
 796 732 l 1,61,62
 711 783 711 783 693 796 c 1,63,-1
 594 726 l 1,64,-1
 550 750 l 1,57,-1
EndSplineSet
EndChar

StartChar: Ecircumflex
Encoding: 202 202 106
Width: 689
Flags: HMW
HStem: -128 21G<78 78> -87 59<260 333.5> 169 60<437 458.5> 410 228<370 587.5> 578 60<484.5 507> 776 20G<513 513>
VStem: 40 102<89 130> 192 94<402.5 447.5> 192 187<324 447.5> 502 98<95 136.5> 543 106<522 554>
LayerCount: 2
Fore
SplineSet
649 574 m 0,0,1
 649 524 649 524 601.5 485 c 128,-1,2
 554 446 554 446 492.5 428 c 128,-1,3
 431 410 431 410 374 410 c 0,4,5
 359 410 359 410 352 411 c 1,6,-1
 352 445 l 1,7,8
 354 445 354 445 410 454.5 c 128,-1,9
 466 464 466 464 504.5 488 c 128,-1,10
 543 512 543 512 543 542 c 0,11,12
 543 578 543 578 489 578 c 0,13,14
 416 578 416 578 351 528 c 128,-1,15
 286 478 286 478 286 423 c 128,-1,16
 286 368 286 368 354 352 c 0,17,18
 369 348 369 348 374 344 c 128,-1,19
 379 340 379 340 379 330 c 128,-1,20
 379 320 379 320 369.5 313.5 c 128,-1,21
 360 307 360 307 326 295 c 0,22,23
 142 232 142 232 142 99 c 0,24,25
 142 72 142 72 152 53 c 1,26,27
 213 131 213 131 310 180 c 128,-1,28
 407 229 407 229 497 229 c 0,29,30
 544 229 544 229 572 208.5 c 128,-1,31
 600 188 600 188 600 152 c 0,32,33
 600 96 600 96 548 40 c 128,-1,34
 496 -16 496 -16 413.5 -51.5 c 128,-1,35
 331 -87 331 -87 249.5 -87 c 128,-1,36
 168 -87 168 -87 121 -57 c 1,37,38
 120 -58 120 -58 112.5 -72.5 c 0,39,40
 91.8556701031 -112.412371134 91.8556701031 -112.412371134 78 -128 c 1,41,-1
 45 -114 l 1,42,43
 52 -86 52 -86 86 -29 c 1,44,45
 40 23 40 23 40 87.5 c 128,-1,46
 40 152 40 152 92.5 210.5 c 128,-1,47
 145 269 145 269 239 307 c 1,48,49
 192 346 192 346 192 388 c 0,50,51
 192 445 192 445 252 504.5 c 128,-1,52
 312 564 312 564 398.5 601 c 128,-1,53
 485 638 485 638 561 638 c 0,54,55
 601 638 601 638 625 620.5 c 128,-1,56
 649 603 649 603 649 574 c 0,0,1
439 169 m 0,57,58
 380 169 380 169 301.5 124 c 128,-1,59
 223 79 223 79 174 17 c 1,60,61
 214 -28 214 -28 287.5 -28 c 128,-1,62
 361 -28 361 -28 431.5 19.5 c 128,-1,63
 502 67 502 67 502 122 c 0,64,65
 502 144 502 144 485 156.5 c 128,-1,66
 468 169 468 169 439 169 c 0,57,58
366 682 m 1,67,-1
 513 796 l 1,68,69
 621 710 621 710 642 688 c 1,70,-1
 612 664 l 1,71,72
 527 715 527 715 509 728 c 1,73,-1
 410 658 l 1,74,-1
 366 682 l 1,67,-1
EndSplineSet
EndChar

StartChar: Aacute
Encoding: 193 193 107
Width: 810
Flags: HMW
HStem: -76 83<64.5 97> 0 21G<569 639 569 569> 239 64 671 20G<719.5 743> 797 20G<726 726>
VStem: -85 105<46 90> 563 76<0 114.5>
LayerCount: 2
Fore
SplineSet
756 298 m 1,0,-1
 751 238 l 1,1,2
 728 240 728 240 701.5 240 c 128,-1,3
 675 240 675 240 657 239 c 1,4,5
 643 129 643 129 639 0 c 1,6,-1
 569 0 l 1,7,8
 563 26 563 26 563 69 c 128,-1,9
 563 112 563 112 565.5 143.5 c 128,-1,10
 568 175 568 175 572 206 c 128,-1,11
 576 237 576 237 576 242 c 1,12,13
 562 243 562 243 510 243 c 128,-1,14
 458 243 458 243 438 241 c 1,15,16
 322 85 322 85 224 4.5 c 128,-1,17
 126 -76 126 -76 28 -76 c 0,18,19
 -20 -76 -20 -76 -52.5 -47 c 128,-1,20
 -85 -18 -85 -18 -85 30 c 0,21,22
 -85 121 -85 121 53.5 196 c 128,-1,23
 192 271 192 271 412 297 c 1,24,25
 438 337 438 337 509 420.5 c 128,-1,26
 580 504 580 504 649 566 c 1,27,28
 679 636 679 636 696.5 663.5 c 128,-1,29
 714 691 714 691 731 691 c 128,-1,30
 748 691 748 691 759 678 c 128,-1,31
 770 665 770 665 770 644.5 c 128,-1,32
 770 624 770 624 747.5 584.5 c 128,-1,33
 725 545 725 545 701 462.5 c 128,-1,34
 677 380 677 380 668 307 c 1,35,36
 720 307 720 307 756 298 c 1,0,-1
246 89 m 1,37,38
 329 168 329 168 371 239 c 1,39,40
 203 229 203 229 111.5 176 c 128,-1,41
 20 123 20 123 20 63 c 0,42,43
 20 37 20 37 37.5 22 c 128,-1,44
 55 7 55 7 84 7 c 0,45,46
 162 7 162 7 246 89 c 1,37,38
588 307 m 1,47,48
 594.888888889 341.444444444 594.888888889 341.444444444 606.444444444 392.722222222 c 128,-1,49
 618 444 618 444 620 453 c 1,50,51
 572 407 572 407 553 385.5 c 128,-1,52
 534 364 534 364 486 303 c 1,53,54
 503 304 503 304 527.5 304.5 c 128,-1,55
 552 305 552 305 568 306 c 128,-1,56
 584 307 584 307 588 307 c 1,47,48
794 777 m 1,57,-1
 623 721 l 1,58,-1
 594 739 l 1,59,-1
 726 817 l 1,60,-1
 794 777 l 1,57,-1
EndSplineSet
EndChar

StartChar: Edieresis
Encoding: 203 203 108
Width: 689
Flags: HMW
HStem: -128 21G<78 78> -87 59<260 333.5> 169 60<437 458.5> 410 228<370 587.5> 578 60<484.5 507> 682 79<437 459 564 586>
VStem: 40 102<89 130> 192 94<402.5 447.5> 192 187<324 447.5> 409 79<710 732> 502 98<95 136.5> 543 72 543 106<522 554>
LayerCount: 2
Fore
SplineSet
649 574 m 0,0,1
 649 524 649 524 601.5 485 c 128,-1,2
 554 446 554 446 492.5 428 c 128,-1,3
 431 410 431 410 374 410 c 0,4,5
 359 410 359 410 352 411 c 1,6,-1
 352 445 l 1,7,8
 354 445 354 445 410 454.5 c 128,-1,9
 466 464 466 464 504.5 488 c 128,-1,10
 543 512 543 512 543 542 c 0,11,12
 543 578 543 578 489 578 c 0,13,14
 416 578 416 578 351 528 c 128,-1,15
 286 478 286 478 286 423 c 128,-1,16
 286 368 286 368 354 352 c 0,17,18
 369 348 369 348 374 344 c 128,-1,19
 379 340 379 340 379 330 c 128,-1,20
 379 320 379 320 369.5 313.5 c 128,-1,21
 360 307 360 307 326 295 c 0,22,23
 142 232 142 232 142 99 c 0,24,25
 142 72 142 72 152 53 c 1,26,27
 213 131 213 131 310 180 c 128,-1,28
 407 229 407 229 497 229 c 0,29,30
 544 229 544 229 572 208.5 c 128,-1,31
 600 188 600 188 600 152 c 0,32,33
 600 96 600 96 548 40 c 128,-1,34
 496 -16 496 -16 413.5 -51.5 c 128,-1,35
 331 -87 331 -87 249.5 -87 c 128,-1,36
 168 -87 168 -87 121 -57 c 1,37,38
 120 -58 120 -58 112.5 -72.5 c 0,39,40
 91.8556701031 -112.412371134 91.8556701031 -112.412371134 78 -128 c 1,41,-1
 45 -114 l 1,42,43
 52 -86 52 -86 86 -29 c 1,44,45
 40 23 40 23 40 87.5 c 128,-1,46
 40 152 40 152 92.5 210.5 c 128,-1,47
 145 269 145 269 239 307 c 1,48,49
 192 346 192 346 192 388 c 0,50,51
 192 445 192 445 252 504.5 c 128,-1,52
 312 564 312 564 398.5 601 c 128,-1,53
 485 638 485 638 561 638 c 0,54,55
 601 638 601 638 625 620.5 c 128,-1,56
 649 603 649 603 649 574 c 0,0,1
439 169 m 0,57,58
 380 169 380 169 301.5 124 c 128,-1,59
 223 79 223 79 174 17 c 1,60,61
 214 -28 214 -28 287.5 -28 c 128,-1,62
 361 -28 361 -28 431.5 19.5 c 128,-1,63
 502 67 502 67 502 122 c 0,64,65
 502 144 502 144 485 156.5 c 128,-1,66
 468 169 468 169 439 169 c 0,57,58
409 721 m 128,-1,68
 409 738 409 738 420.5 749.5 c 128,-1,69
 432 761 432 761 448 761 c 128,-1,70
 464 761 464 761 476 749.5 c 128,-1,71
 488 738 488 738 488 721.5 c 128,-1,72
 488 705 488 705 476.5 693.5 c 128,-1,73
 465 682 465 682 448.5 682 c 128,-1,74
 432 682 432 682 420.5 693 c 128,-1,67
 409 704 409 704 409 721 c 128,-1,68
536 721 m 128,-1,76
 536 738 536 738 547.5 749.5 c 128,-1,77
 559 761 559 761 575.5 761 c 128,-1,78
 592 761 592 761 603.5 749.5 c 128,-1,79
 615 738 615 738 615 721.5 c 128,-1,80
 615 705 615 705 603.5 693.5 c 128,-1,81
 592 682 592 682 575 682 c 128,-1,82
 558 682 558 682 547 693 c 128,-1,75
 536 704 536 704 536 721 c 128,-1,76
EndSplineSet
EndChar

StartChar: Egrave
Encoding: 200 200 109
Width: 689
Flags: HMW
HStem: -128 21G<78 78> -87 59<260 333.5> 169 60<437 458.5> 410 228<370 587.5> 578 60<484.5 507> 759 20G<465 465>
VStem: 40 102<89 130> 192 94<402.5 447.5> 192 187<324 447.5> 502 98<95 136.5> 543 106<522 554>
LayerCount: 2
Fore
SplineSet
649 574 m 0,0,1
 649 524 649 524 601.5 485 c 128,-1,2
 554 446 554 446 492.5 428 c 128,-1,3
 431 410 431 410 374 410 c 0,4,5
 359 410 359 410 352 411 c 1,6,-1
 352 445 l 1,7,8
 354 445 354 445 410 454.5 c 128,-1,9
 466 464 466 464 504.5 488 c 128,-1,10
 543 512 543 512 543 542 c 0,11,12
 543 578 543 578 489 578 c 0,13,14
 416 578 416 578 351 528 c 128,-1,15
 286 478 286 478 286 423 c 128,-1,16
 286 368 286 368 354 352 c 0,17,18
 369 348 369 348 374 344 c 128,-1,19
 379 340 379 340 379 330 c 128,-1,20
 379 320 379 320 369.5 313.5 c 128,-1,21
 360 307 360 307 326 295 c 0,22,23
 142 232 142 232 142 99 c 0,24,25
 142 72 142 72 152 53 c 1,26,27
 213 131 213 131 310 180 c 128,-1,28
 407 229 407 229 497 229 c 0,29,30
 544 229 544 229 572 208.5 c 128,-1,31
 600 188 600 188 600 152 c 0,32,33
 600 96 600 96 548 40 c 128,-1,34
 496 -16 496 -16 413.5 -51.5 c 128,-1,35
 331 -87 331 -87 249.5 -87 c 128,-1,36
 168 -87 168 -87 121 -57 c 1,37,38
 120 -58 120 -58 112.5 -72.5 c 0,39,40
 91.8556701031 -112.412371134 91.8556701031 -112.412371134 78 -128 c 1,41,-1
 45 -114 l 1,42,43
 52 -86 52 -86 86 -29 c 1,44,45
 40 23 40 23 40 87.5 c 128,-1,46
 40 152 40 152 92.5 210.5 c 128,-1,47
 145 269 145 269 239 307 c 1,48,49
 192 346 192 346 192 388 c 0,50,51
 192 445 192 445 252 504.5 c 128,-1,52
 312 564 312 564 398.5 601 c 128,-1,53
 485 638 485 638 561 638 c 0,54,55
 601 638 601 638 625 620.5 c 128,-1,56
 649 603 649 603 649 574 c 0,0,1
439 169 m 0,57,58
 380 169 380 169 301.5 124 c 128,-1,59
 223 79 223 79 174 17 c 1,60,61
 214 -28 214 -28 287.5 -28 c 128,-1,62
 361 -28 361 -28 431.5 19.5 c 128,-1,63
 502 67 502 67 502 122 c 0,64,65
 502 144 502 144 485 156.5 c 128,-1,66
 468 169 468 169 439 169 c 0,57,58
568 683 m 1,67,-1
 397 739 l 1,68,-1
 465 779 l 1,69,-1
 597 701 l 1,70,-1
 568 683 l 1,67,-1
EndSplineSet
EndChar

StartChar: Iacute
Encoding: 205 205 110
Width: 606
Flags: HMW
HStem: 3 50<186 217> 541 78<475.5 489> 748 20G<499 499>
VStem: 40 102<101 153.5 101 154> 173 64<453.5 475 433 528>
LayerCount: 2
Fore
SplineSet
599 616 m 1,0,1
 616 611 616 611 616 598 c 0,2,3
 616 594 616 594 604.5 579.5 c 0,4,5
 558.04 520.92 558.04 520.92 539.52 491.96 c 128,-1,6
 521 463 521 463 495.5 395 c 128,-1,7
 470 327 470 327 449.5 264.5 c 128,-1,8
 429 202 429 202 429 201 c 0,9,10
 388 109 388 109 316 56 c 128,-1,11
 244 3 244 3 165 3 c 0,12,13
 109 3 109 3 74.5 30.5 c 128,-1,14
 40 58 40 58 40 104 c 0,15,16
 40 176 40 176 133 236 c 128,-1,17
 226 296 226 296 319 296 c 1,18,-1
 323 263 l 1,19,20
 249 248 249 248 195.5 208 c 128,-1,21
 142 168 142 168 142 121 c 0,22,23
 142 91 142 91 159.5 72 c 128,-1,24
 177 53 177 53 204 53 c 0,25,26
 255 53 255 53 292 100.5 c 128,-1,27
 329 148 329 148 367.5 269 c 128,-1,28
 406 390 406 390 437.5 446 c 128,-1,29
 469 502 469 502 517 540 c 1,30,31
 503 541 503 541 486 541 c 0,32,33
 400 541 400 541 318.5 514 c 128,-1,34
 237 487 237 487 237 442 c 0,35,36
 237 414 237 414 262 389 c 1,37,-1
 240 362 l 1,38,39
 173 409 173 409 173 471 c 0,40,41
 173 512 173 512 208.5 542 c 128,-1,42
 244 572 244 572 303.5 588 c 0,43,44
 418.78125 619 418.78125 619 562 619 c 0,45,46
 593 619 593 619 599 616 c 1,0,1
567 728 m 1,47,-1
 396 672 l 1,48,-1
 367 690 l 1,49,-1
 499 768 l 1,50,-1
 567 728 l 1,47,-1
EndSplineSet
EndChar

StartChar: Icircumflex
Encoding: 206 206 111
Width: 606
Flags: HMW
HStem: 3 50<186 217> 541 78<475.5 489> 782 20G<453 453>
VStem: 40 102<101 153.5 101 154> 173 64<453.5 475 433 528>
LayerCount: 2
Fore
SplineSet
599 616 m 1,0,1
 616 611 616 611 616 598 c 0,2,3
 616 594 616 594 604.5 579.5 c 0,4,5
 558.04 520.92 558.04 520.92 539.52 491.96 c 128,-1,6
 521 463 521 463 495.5 395 c 128,-1,7
 470 327 470 327 449.5 264.5 c 128,-1,8
 429 202 429 202 429 201 c 0,9,10
 388 109 388 109 316 56 c 128,-1,11
 244 3 244 3 165 3 c 0,12,13
 109 3 109 3 74.5 30.5 c 128,-1,14
 40 58 40 58 40 104 c 0,15,16
 40 176 40 176 133 236 c 128,-1,17
 226 296 226 296 319 296 c 1,18,-1
 323 263 l 1,19,20
 249 248 249 248 195.5 208 c 128,-1,21
 142 168 142 168 142 121 c 0,22,23
 142 91 142 91 159.5 72 c 128,-1,24
 177 53 177 53 204 53 c 0,25,26
 255 53 255 53 292 100.5 c 128,-1,27
 329 148 329 148 367.5 269 c 128,-1,28
 406 390 406 390 437.5 446 c 128,-1,29
 469 502 469 502 517 540 c 1,30,31
 503 541 503 541 486 541 c 0,32,33
 400 541 400 541 318.5 514 c 128,-1,34
 237 487 237 487 237 442 c 0,35,36
 237 414 237 414 262 389 c 1,37,-1
 240 362 l 1,38,39
 173 409 173 409 173 471 c 0,40,41
 173 512 173 512 208.5 542 c 128,-1,42
 244 572 244 572 303.5 588 c 0,43,44
 418.78125 619 418.78125 619 562 619 c 0,45,46
 593 619 593 619 599 616 c 1,0,1
306 688 m 1,47,-1
 453 802 l 1,48,49
 561 716 561 716 582 694 c 1,50,-1
 552 670 l 1,51,52
 467 721 467 721 449 734 c 1,53,-1
 350 664 l 1,54,-1
 306 688 l 1,47,-1
EndSplineSet
EndChar

StartChar: Idieresis
Encoding: 207 207 112
Width: 606
Flags: HMW
HStem: 3 50<186 217> 541 78<475.5 489> 684 79<382 404 509 531>
VStem: 40 102<101 153.5 101 154> 173 64<453.5 475 433 528> 354 79<712 734> 481 79<712 734>
LayerCount: 2
Fore
SplineSet
599 616 m 1,0,1
 616 611 616 611 616 598 c 0,2,3
 616 594 616 594 604.5 579.5 c 0,4,5
 558.04 520.92 558.04 520.92 539.52 491.96 c 128,-1,6
 521 463 521 463 495.5 395 c 128,-1,7
 470 327 470 327 449.5 264.5 c 128,-1,8
 429 202 429 202 429 201 c 0,9,10
 388 109 388 109 316 56 c 128,-1,11
 244 3 244 3 165 3 c 0,12,13
 109 3 109 3 74.5 30.5 c 128,-1,14
 40 58 40 58 40 104 c 0,15,16
 40 176 40 176 133 236 c 128,-1,17
 226 296 226 296 319 296 c 1,18,-1
 323 263 l 1,19,20
 249 248 249 248 195.5 208 c 128,-1,21
 142 168 142 168 142 121 c 0,22,23
 142 91 142 91 159.5 72 c 128,-1,24
 177 53 177 53 204 53 c 0,25,26
 255 53 255 53 292 100.5 c 128,-1,27
 329 148 329 148 367.5 269 c 128,-1,28
 406 390 406 390 437.5 446 c 128,-1,29
 469 502 469 502 517 540 c 1,30,31
 503 541 503 541 486 541 c 0,32,33
 400 541 400 541 318.5 514 c 128,-1,34
 237 487 237 487 237 442 c 0,35,36
 237 414 237 414 262 389 c 1,37,-1
 240 362 l 1,38,39
 173 409 173 409 173 471 c 0,40,41
 173 512 173 512 208.5 542 c 128,-1,42
 244 572 244 572 303.5 588 c 0,43,44
 418.78125 619 418.78125 619 562 619 c 0,45,46
 593 619 593 619 599 616 c 1,0,1
354 723 m 128,-1,48
 354 740 354 740 365.5 751.5 c 128,-1,49
 377 763 377 763 393.5 763 c 128,-1,50
 410 763 410 763 421.5 751.5 c 128,-1,51
 433 740 433 740 433 723.5 c 128,-1,52
 433 707 433 707 421.5 695.5 c 128,-1,53
 410 684 410 684 393 684 c 128,-1,54
 376 684 376 684 365 695 c 128,-1,47
 354 706 354 706 354 723 c 128,-1,48
481 723 m 128,-1,56
 481 740 481 740 492.5 751.5 c 128,-1,57
 504 763 504 763 520 763 c 128,-1,58
 536 763 536 763 548 751.5 c 128,-1,59
 560 740 560 740 560 723.5 c 128,-1,60
 560 707 560 707 548.5 695.5 c 128,-1,61
 537 684 537 684 520.5 684 c 128,-1,62
 504 684 504 684 492.5 695 c 128,-1,55
 481 706 481 706 481 723 c 128,-1,56
EndSplineSet
EndChar

StartChar: Igrave
Encoding: 204 204 113
Width: 606
Flags: HMW
HStem: 3 50<186 217> 541 78<475.5 489> 743 20G<450 450>
VStem: 40 102<101 153.5 101 154> 173 64<453.5 475 433 528>
LayerCount: 2
Fore
SplineSet
599 616 m 1,0,1
 616 611 616 611 616 598 c 0,2,3
 616 594 616 594 604.5 579.5 c 0,4,5
 558.04 520.92 558.04 520.92 539.52 491.96 c 128,-1,6
 521 463 521 463 495.5 395 c 128,-1,7
 470 327 470 327 449.5 264.5 c 128,-1,8
 429 202 429 202 429 201 c 0,9,10
 388 109 388 109 316 56 c 128,-1,11
 244 3 244 3 165 3 c 0,12,13
 109 3 109 3 74.5 30.5 c 128,-1,14
 40 58 40 58 40 104 c 0,15,16
 40 176 40 176 133 236 c 128,-1,17
 226 296 226 296 319 296 c 1,18,-1
 323 263 l 1,19,20
 249 248 249 248 195.5 208 c 128,-1,21
 142 168 142 168 142 121 c 0,22,23
 142 91 142 91 159.5 72 c 128,-1,24
 177 53 177 53 204 53 c 0,25,26
 255 53 255 53 292 100.5 c 128,-1,27
 329 148 329 148 367.5 269 c 128,-1,28
 406 390 406 390 437.5 446 c 128,-1,29
 469 502 469 502 517 540 c 1,30,31
 503 541 503 541 486 541 c 0,32,33
 400 541 400 541 318.5 514 c 128,-1,34
 237 487 237 487 237 442 c 0,35,36
 237 414 237 414 262 389 c 1,37,-1
 240 362 l 1,38,39
 173 409 173 409 173 471 c 0,40,41
 173 512 173 512 208.5 542 c 128,-1,42
 244 572 244 572 303.5 588 c 0,43,44
 418.78125 619 418.78125 619 562 619 c 0,45,46
 593 619 593 619 599 616 c 1,0,1
553 667 m 1,47,-1
 382 723 l 1,48,-1
 450 763 l 1,49,-1
 582 685 l 1,50,-1
 553 667 l 1,47,-1
EndSplineSet
EndChar

StartChar: Oacute
Encoding: 211 211 114
Width: 714
Flags: HMW
HStem: 6 86<184.5 230.5> 346 47<365.5 412.5> 559 85<389 494.5> 749 20G<459 459>
VStem: 40 89<162.5 222.5> 40 244<105 470> 487 89<450.5 544>
LayerCount: 2
Fore
SplineSet
714 492 m 1,0,-1
 714 444 l 1,1,2
 669 418 669 418 548 373 c 1,3,4
 494 238 494 238 377 122 c 128,-1,5
 260 6 260 6 163 6 c 0,6,7
 108 6 108 6 74 45 c 128,-1,8
 40 84 40 84 40 152.5 c 0,9,10
 40 221 40 221 86 317.5 c 128,-1,11
 132 414 132 414 207 498.5 c 128,-1,12
 282 583 282 583 360 623 c 1,13,14
 392 644 392 644 460 644 c 0,15,16
 511 644 511 644 543.5 604.5 c 128,-1,17
 576 565 576 565 576 511.5 c 0,18,19
 576 458 576 458 568 431 c 1,20,21
 644 456 644 456 714 492 c 1,0,-1
317 527 m 1,22,23
 284 493 284 493 284 461.5 c 0,24,25
 284 430 284 430 316 411.5 c 128,-1,26
 348 393 348 393 396.5 393 c 0,27,28
 445 393 445 393 481 402 c 1,29,30
 487 432 487 432 487 460 c 0,31,32
 487 559 487 559 402 559 c 0,33,34
 363 559 363 559 317 527 c 1,22,23
330 149 m 0,35,36
 428 246 428 246 467 351 c 1,37,38
 442 346 442 346 403 346 c 0,39,40
 235 346 235 346 213 421 c 1,41,42
 129 304 129 304 129 191 c 0,43,44
 129 146 129 146 150.5 119 c 128,-1,45
 172 92 172 92 214 92 c 0,46,47
 273 92 273 92 330 149 c 0,35,36
527 729 m 1,48,-1
 356 673 l 1,49,-1
 327 691 l 1,50,-1
 459 769 l 1,51,-1
 527 729 l 1,48,-1
EndSplineSet
EndChar

StartChar: Ocircumflex
Encoding: 212 212 115
Width: 714
Flags: HMW
HStem: 6 86<184.5 230.5> 346 47<365.5 412.5> 559 85<389 494.5> 788 20G<438 438>
VStem: 40 89<162.5 222.5> 40 244<105 470> 487 89<450.5 544>
LayerCount: 2
Fore
SplineSet
714 492 m 1,0,-1
 714 444 l 1,1,2
 669 418 669 418 548 373 c 1,3,4
 494 238 494 238 377 122 c 128,-1,5
 260 6 260 6 163 6 c 0,6,7
 108 6 108 6 74 45 c 128,-1,8
 40 84 40 84 40 152.5 c 0,9,10
 40 221 40 221 86 317.5 c 128,-1,11
 132 414 132 414 207 498.5 c 128,-1,12
 282 583 282 583 360 623 c 1,13,14
 392 644 392 644 460 644 c 0,15,16
 511 644 511 644 543.5 604.5 c 128,-1,17
 576 565 576 565 576 511.5 c 0,18,19
 576 458 576 458 568 431 c 1,20,21
 644 456 644 456 714 492 c 1,0,-1
317 527 m 1,22,23
 284 493 284 493 284 461.5 c 0,24,25
 284 430 284 430 316 411.5 c 128,-1,26
 348 393 348 393 396.5 393 c 0,27,28
 445 393 445 393 481 402 c 1,29,30
 487 432 487 432 487 460 c 0,31,32
 487 559 487 559 402 559 c 0,33,34
 363 559 363 559 317 527 c 1,22,23
330 149 m 0,35,36
 428 246 428 246 467 351 c 1,37,38
 442 346 442 346 403 346 c 0,39,40
 235 346 235 346 213 421 c 1,41,42
 129 304 129 304 129 191 c 0,43,44
 129 146 129 146 150.5 119 c 128,-1,45
 172 92 172 92 214 92 c 0,46,47
 273 92 273 92 330 149 c 0,35,36
291 694 m 1,48,-1
 438 808 l 1,49,50
 546 722 546 722 567 700 c 1,51,-1
 537 676 l 1,52,53
 452 727 452 727 434 740 c 1,54,-1
 335 670 l 1,55,-1
 291 694 l 1,48,-1
EndSplineSet
EndChar

StartChar: Ograve
Encoding: 210 210 116
Width: 714
Flags: HMW
HStem: 6 86<184.5 230.5> 346 47<365.5 412.5> 559 85<389 494.5> 751 20G<383 383>
VStem: 40 89<162.5 222.5> 40 244<105 470> 487 89<450.5 544>
LayerCount: 2
Fore
SplineSet
714 492 m 1,0,-1
 714 444 l 1,1,2
 669 418 669 418 548 373 c 1,3,4
 494 238 494 238 377 122 c 128,-1,5
 260 6 260 6 163 6 c 0,6,7
 108 6 108 6 74 45 c 128,-1,8
 40 84 40 84 40 152.5 c 0,9,10
 40 221 40 221 86 317.5 c 128,-1,11
 132 414 132 414 207 498.5 c 128,-1,12
 282 583 282 583 360 623 c 1,13,14
 392 644 392 644 460 644 c 0,15,16
 511 644 511 644 543.5 604.5 c 128,-1,17
 576 565 576 565 576 511.5 c 0,18,19
 576 458 576 458 568 431 c 1,20,21
 644 456 644 456 714 492 c 1,0,-1
317 527 m 1,22,23
 284 493 284 493 284 461.5 c 0,24,25
 284 430 284 430 316 411.5 c 128,-1,26
 348 393 348 393 396.5 393 c 0,27,28
 445 393 445 393 481 402 c 1,29,30
 487 432 487 432 487 460 c 0,31,32
 487 559 487 559 402 559 c 0,33,34
 363 559 363 559 317 527 c 1,22,23
330 149 m 0,35,36
 428 246 428 246 467 351 c 1,37,38
 442 346 442 346 403 346 c 0,39,40
 235 346 235 346 213 421 c 1,41,42
 129 304 129 304 129 191 c 0,43,44
 129 146 129 146 150.5 119 c 128,-1,45
 172 92 172 92 214 92 c 0,46,47
 273 92 273 92 330 149 c 0,35,36
486 675 m 1,48,-1
 315 731 l 1,49,-1
 383 771 l 1,50,-1
 515 693 l 1,51,-1
 486 675 l 1,48,-1
EndSplineSet
EndChar

